<svg xmlns="http://www.w3.org/2000/svg" fill="none" viewBox="0 0 361 283"><defs/><path fill="#7D7C82" d="M86.217 244.009l-.023.034c.002-.003.003-.006.008-.01.003-.009.01-.016.015-.024zM86.145 244.1c.015-.015.027-.033.04-.049l.008-.008c-.017.017-.03.04-.048.057zM85.94 248.473c-.006-.011-.013-.024-.022-.035 0 .002.004.006.005.012l.018.023zM82.69 245.529c0 .003.006.008.006.009v-.001c-.003-.004-.002-.006-.005-.008zM85.878 248.373l.022.038c.006.01.011.019.018.027-.013-.023-.028-.043-.04-.065z"/><path fill="#A4DBE4" d="M69.9 238.495c-.862-1-1.86-1.886-2.976-2.6a12.37 12.37 0 00-3.116-1.404.938.938 0 00-.367-.115c-.022.003-.045-.008-.078-.01-.093-.026-.181-.044-.271-.069a1.103 1.103 0 00-.45-.006 21.71 21.71 0 00-.99-.061 5.16 5.16 0 01.426-.242c.257-.149.433-.474.471-.749a1.217 1.217 0 00-.007-.451c.019-.016.035-.051.047-.066.71-1.15.91-2.524 1.275-3.794.605-1.905 1.515-3.697 2.108-5.601.26-.841.467-1.684.518-2.56a8.603 8.603 0 00-.405-2.976c-.314-1.037-.907-2.013-1.506-2.921-.565-.856-1.238-1.643-1.958-2.376a15.925 15.925 0 00-4.362-3.072c-1.564-.731-3.303-1.187-5.01-1.455-1.785-.263-3.61-.307-5.414-.252-.98.031-1.952.095-2.93.188-2.407.23-4.783.615-7.178.953-1.563.224-3.111.489-4.63.889-1.383.344-2.768.858-3.907 1.689a5.112 5.112 0 00-1.32 1.434c-.348.59-.495 1.26-.51 1.948.007.678.199 1.349.416 1.992.29.833.726 1.607 1.169 2.374.936 1.639 2.11 3.158 3.3 4.627 1.081 1.366 2.228 2.674 3.335 4.008.578.682 1.155 1.387 1.76 2.051a33.107 33.107 0 002.206 2.153 22.151 22.151 0 004.49 3.108c1.276.684 2.664 1.172 4.071 1.516 1.353.324 2.768.432 4.153.4a12.781 12.781 0 00-2.103 2.25 14.138 14.138 0 00-1.947 3.643c-.52 1.403-.766 2.883-.867 4.367-.206 2.933.17 5.881.101 8.816-.047 1.169-.146 2.36-.472 3.493-.468 1.33-1.15 2.561-1.545 3.922a6.14 6.14 0 00-.26 1.98c.013.769.348 1.497.776 2.128.363.527.912.957 1.466 1.267.595.313 1.256.51 1.9.641.707.126 1.442.141 2.154.164.657.02 1.324.007 1.967.015a9.552 9.552 0 012.067.331c.936.272 1.85.559 2.785.804a9.11 9.11 0 002.127.315c.743.022 1.465-.114 2.192-.319.84-.247 1.64-.631 2.407-1.032a27.758 27.758 0 002.92-1.672 17.919 17.919 0 003.922-3.453c2.185-2.628 3.213-5.941 3.306-9.299.108-3.389-.5-6.808-1.554-10.041-.805-2.461-2.016-4.868-3.703-6.87zM103.813 243.334c-1.465-1.453-3.208-2.624-5.004-3.669-1.792-1.034-3.695-1.88-5.627-2.616-3.36-1.307-6.925-2.314-10.52-2.686-1.118-.115-2.372-.172-3.59-.053-2.427.23-4.74 1.119-5.69 3.464-.238.608-.004 1.29.613 1.563a.782.782 0 00.2.07c-.19 2.501.07 5.034.61 7.479a32.497 32.497 0 001.417 4.692c.593 1.552 1.326 3.03 2.155 4.474 1.568 2.748 3.635 5.27 6.194 7.21a17.051 17.051 0 004.05 2.286c1.51.617 3.126.947 4.774 1.063a26.73 26.73 0 006.676-.39c1.852-.333 3.786-.861 5.364-1.905a4.618 4.618 0 001.357-1.435c.327-.563.513-1.193.615-1.824.132-.704.173-1.426.233-2.146.085-1.163.206-2.333.286-3.497.081-1.076.107-2.171.061-3.248-.04-1.154-.261-2.293-.604-3.403-.627-2.095-2.02-3.872-3.57-5.429zM117.98 213.496c-.493-.683-1.114-1.29-1.715-1.884-.613-.58-1.268-1.125-1.92-1.667-1.504-1.205-3.133-2.264-4.919-3.044-1.871-.834-3.919-1.301-5.983-1.412a16.566 16.566 0 00-2.59.056 20.9 20.9 0 00-3.809.742c-1.927.576-3.705 1.573-5.337 2.706-1.745 1.203-3.328 2.679-4.732 4.243-1.322 1.464-2.467 3.074-3.484 4.745a22.916 22.916 0 00-2.133 4.513c-.214.157-.45.461-.467.744-.065 1.584-.025 3.197.566 4.688.23.577.573 1.12.989 1.579.497.569 1.079.982 1.733 1.346.636.375 1.35.584 2.042.791.885.265 1.775.418 2.67.551 1.84.281 3.687.488 5.532.652 2.109.182 4.233.273 6.35.242 1.971-.034 3.948-.198 5.877-.643 1.844-.396 3.632-1.066 5.098-2.251 1.309-1.087 2.165-2.542 2.731-4.125.453-1.241.76-2.543 1.119-3.802.14-.381.338-.74.549-1.098.845-1.275 1.85-2.449 2.602-3.788a2.654 2.654 0 00.294-1.724c-.145-.793-.588-1.511-1.063-2.16z"/><path fill="#A4DBE4" d="M62.309 208.876c.416.8.864 1.581 1.329 2.351a31.983 31.983 0 003.143 4.344c1.159 1.339 2.477 2.578 3.977 3.556 1.413.91 2.996 1.579 4.699 1.743 1.505.152 3.052-.018 4.468-.543 2.585-.961 4.32-3.189 5.36-5.608 1.119-2.616 1.533-5.525 1.68-8.362.07-1.422.067-2.848.002-4.266-.07-1.457-.177-2.911-.43-4.355a17.336 17.336 0 00-.883-3.26c-.392-1.016-.941-1.986-1.562-2.895-.622-.927-1.375-1.776-2.152-2.586-.444-.474-.918-.93-1.39-1.384-.37-.383-.786-.728-1.174-1.106-.858-.928-1.641-1.917-2.537-2.823-.842-.861-1.872-1.737-3.162-1.895a1.51 1.51 0 00-.284.004c-.54.048-1.012.402-1.1.961-.08.428.136.898.497 1.157-.181.197-.37.395-.566.576-1.432 1.281-3.125 2.259-4.776 3.251-1.713 1.027-3.364 2.139-4.715 3.612-1.215 1.347-1.907 3.03-2.316 4.768-.431 1.809-.478 3.721-.305 5.573.16 1.773.566 3.564 1.243 5.215.276.675.612 1.334.954 1.972z"/><path fill="#59767B" d="M76.436 227.653c-.547.157-.8.749-.727 1.273-.243-.43-.573-.798-.93-1.137-.066-.065-.14-.107-.204-.161a8.425 8.425 0 001.6-.421c.08.16.212.306.36.425-.035.014-.07.007-.099.021zm-2.245 3.771a.896.896 0 00-.15.435c-.019.253-.013.513.003.762a1.222 1.222 0 00-.62-.079 4.057 4.057 0 00-.478-.023c-.144.029-.283.063-.439.095-.133.07-.256.144-.398.217-.03.02-.051.052-.081.072a1.932 1.932 0 00-.633-.74c.11.023.232.03.355.014.266-.051.498-.097.722-.25.287-.209.47-.479.63-.793.046-.093.079-.208.118-.312.303.215.622.397.974.538-.002.016-.005.039-.003.064zm-3.837.325a2.55 2.55 0 00-.371-.002c.019-.059.044-.122.042-.184a1.328 1.328 0 00-.037-.474c.077.098.133.21.2.307.109.148.26.286.416.417-.078-.019-.155-.053-.25-.064zm-1.862-4.284c.078-.029.152-.064.218-.103.15.103.293.21.457.297.228.14.455.251.706.35-.027.031-.071.072-.096.112-.046-.02-.058-.059-.107-.082a15.457 15.457 0 00-.987-.438c-.054-.053-.124-.086-.191-.136zm4.058-3.373c.163.339.388.623.683.858a5.25 5.25 0 00-.508.538c-.4-.249-.82-.482-1.257-.699-.02-.011-.047-.017-.079-.03.076.008.148.023.22.017.43-.042.774-.326.941-.684zm8.106 2.987c.434-.239.853-.544 1.164-.928.407-.504.526-1.173.269-1.765-.137-.307-.349-.527-.597-.745-.252-.211-.582-.309-.9-.382a1.445 1.445 0 00-.515-.033 1.717 1.717 0 00-.589-.136 2.484 2.484 0 00-.435.004c-.13.012-.258.037-.431.077a3.367 3.367 0 00-.613.241c-.26.125-.47.301-.696.462 0 0-.022-.003-.026-.014.137-.456.159-.956 0-1.404a6.042 6.042 0 00.093-2.375c-.062-.489-.452-1.014-1-1.049a3.602 3.602 0 00-.557-.009c-.017.003-.05.004-.067.007a2.376 2.376 0 00-.493.108c-.332.075-.626.269-.897.445-.612.391-1.105 1-1.466 1.609a4.6 4.6 0 00-.345.75 12.502 12.502 0 00-.33-1.668c-.169-.535-.506-1.103-.989-1.415-.274-.168-.544-.306-.875-.316a2.873 2.873 0 00-.474.002c-.24.023-.457.084-.694.171-1.264.518-1.601 1.956-1.458 3.161.021.227.088.46.152.698-.664-.536-1.47-.99-2.315-.908a2.036 2.036 0 00-.41.082c-.578.183-.992.656-1.18 1.209a2.638 2.638 0 00-.132 1.045c.023.198.083.382.154.562.05.258.174.501.38.681.175.251.418.486.632.686.279.275.624.507.957.709.088.06.173.099.251.152a5.628 5.628 0 00-.609.01 6.338 6.338 0 00-1.313-.006 4.55 4.55 0 00-1.567.412c-.2.058-.358.188-.492.345-.192.211-.333.579-.275.864.088.339.164.608.365.908.13.233.347.42.545.618.217.208.5.348.762.504.203.123.42.183.651.265-.16.13-.333.247-.45.394a1.16 1.16 0 00.181 1.656c-.001.01.004.011.02.021a.851.851 0 00.097.149c.19.261.458.393.775.466.413.115.861.099 1.28.095.498-.02.977-.106 1.458-.206a8.011 8.011 0 00-.73 1.097c-.159.213-.285.433-.422.654-.16.26-.128.649-.025.921.165.404.517.628.932.73.503.124 1.009.042 1.496-.097.561-.144 1.074-.397 1.572-.699.024-.018.06-.04.095-.07-.062.146-.132.297-.16.461-.1.514.13 1.065.423 1.475.296.43.794.629 1.272.758.224.049.479.033.706.022.103-.007.219-.032.314-.066.31.045.629-.032.877-.2.12-.088.226-.201.306-.321.173-.12.326-.259.453-.402.371-.362.613-.798.756-1.282.035-.137.041-.261.06-.397.303.212.66.359 1.031.418.7.117 1.526-.154 2.04-.617.488-.434.796-1.031.732-1.693-.045-.537-.27-1.02-.563-1.471.75.217 1.538.354 2.311.271.665-.077 1.135-.639 1.08-1.294a2.641 2.641 0 00-.448-1.277c.01-.065.017-.123.021-.197.062-1.396-.94-2.127-2.178-2.427a9.512 9.512 0 001.054-.506z"/><path fill="#172963" d="M73.238 62.513c-.861-1-1.86-1.885-2.975-2.6a12.399 12.399 0 00-3.116-1.404.923.923 0 00-.367-.114c-.022.002-.045-.01-.078-.01-.093-.027-.181-.044-.271-.07a1.105 1.105 0 00-.45-.006c-.33-.026-.659-.05-.99-.06a5.03 5.03 0 01.426-.243c.257-.149.433-.474.471-.749a1.218 1.218 0 00-.007-.45c.019-.017.034-.052.047-.066.71-1.15.91-2.525 1.275-3.794.605-1.906 1.515-3.697 2.108-5.602.26-.84.467-1.684.518-2.56a8.604 8.604 0 00-.405-2.975c-.314-1.038-.907-2.014-1.506-2.922-.565-.855-1.239-1.643-1.958-2.376a15.914 15.914 0 00-4.362-3.072c-1.564-.73-3.303-1.187-5.01-1.455-1.785-.262-3.61-.307-5.414-.252-.98.031-1.952.095-2.93.188-2.407.23-4.783.615-7.178.954-1.563.223-3.111.489-4.63.889-1.383.343-2.768.858-3.907 1.688a5.117 5.117 0 00-1.32 1.434c-.348.59-.495 1.26-.51 1.948.007.678.199 1.35.416 1.992.29.834.726 1.608 1.169 2.374.936 1.64 2.11 3.159 3.3 4.627 1.081 1.366 2.228 2.674 3.335 4.009.578.681 1.155 1.386 1.76 2.05.699.746 1.433 1.47 2.206 2.153a22.152 22.152 0 004.49 3.109c1.276.683 2.664 1.171 4.071 1.516 1.353.323 2.768.431 4.153.4a12.778 12.778 0 00-2.103 2.25 14.148 14.148 0 00-1.947 3.642c-.52 1.403-.766 2.883-.867 4.367-.206 2.933.17 5.881.101 8.816-.047 1.17-.146 2.36-.472 3.494-.468 1.33-1.15 2.56-1.545 3.922a6.135 6.135 0 00-.26 1.979c.013.77.348 1.497.776 2.129.363.526.912.956 1.466 1.266.595.313 1.256.51 1.9.641.707.126 1.442.141 2.154.164.657.02 1.324.008 1.967.016a9.57 9.57 0 012.067.33c.936.272 1.85.56 2.785.805a9.147 9.147 0 002.127.314c.743.022 1.465-.114 2.192-.318.84-.248 1.64-.632 2.407-1.033a27.688 27.688 0 002.92-1.671 17.906 17.906 0 003.922-3.454c2.185-2.627 3.213-5.94 3.306-9.3.108-3.387-.5-6.807-1.554-10.04-.805-2.46-2.016-4.867-3.703-6.87zM107.152 67.352c-1.465-1.453-3.208-2.624-5.004-3.669-1.792-1.034-3.695-1.88-5.627-2.616-3.36-1.307-6.925-2.314-10.52-2.685-1.118-.116-2.372-.173-3.59-.054-2.427.23-4.74 1.119-5.69 3.465-.238.607-.004 1.29.613 1.563a.806.806 0 00.2.07c-.19 2.5.07 5.033.61 7.478a32.513 32.513 0 001.417 4.693c.593 1.552 1.326 3.03 2.155 4.473 1.568 2.749 3.635 5.27 6.194 7.21a17.075 17.075 0 004.05 2.287c1.51.616 3.126.947 4.774 1.063a26.75 26.75 0 006.676-.391c1.852-.333 3.786-.86 5.364-1.905a4.62 4.62 0 001.357-1.435c.327-.563.513-1.193.615-1.824.132-.704.173-1.426.233-2.145.085-1.164.206-2.333.286-3.498.081-1.076.107-2.17.061-3.248-.04-1.154-.261-2.293-.604-3.403-.627-2.095-2.02-3.871-3.57-5.429zM121.319 37.514c-.493-.683-1.114-1.29-1.715-1.884-.613-.58-1.268-1.124-1.92-1.667-1.504-1.205-3.133-2.264-4.919-3.044-1.871-.834-3.92-1.3-5.983-1.412a16.578 16.578 0 00-2.59.056c-1.29.122-2.561.383-3.809.743-1.927.576-3.705 1.572-5.337 2.705-1.745 1.203-3.328 2.68-4.732 4.244-1.322 1.463-2.467 3.074-3.484 4.744a22.912 22.912 0 00-2.133 4.514c-.214.157-.45.46-.467.743-.065 1.585-.025 3.197.566 4.688.23.578.573 1.12.989 1.58.497.568 1.079.981 1.733 1.345.636.375 1.35.584 2.042.79.885.266 1.775.42 2.67.552 1.84.281 3.687.488 5.532.653 2.109.181 4.233.272 6.35.242 1.971-.035 3.948-.199 5.877-.644 1.844-.396 3.632-1.065 5.098-2.25 1.309-1.088 2.165-2.543 2.731-4.126.453-1.241.76-2.542 1.119-3.802.14-.38.338-.74.549-1.097.845-1.276 1.85-2.45 2.602-3.788a2.655 2.655 0 00.294-1.725c-.145-.792-.588-1.511-1.063-2.16z"/><path fill="#172963" d="M65.648 32.894c.416.8.864 1.581 1.329 2.351a32.02 32.02 0 003.143 4.345c1.159 1.339 2.477 2.577 3.977 3.555 1.413.91 2.997 1.58 4.699 1.743 1.505.152 3.052-.017 4.468-.543 2.585-.96 4.32-3.189 5.36-5.608 1.119-2.615 1.533-5.525 1.68-8.362.07-1.421.067-2.848.002-4.266-.07-1.457-.177-2.91-.43-4.355a17.324 17.324 0 00-.883-3.26c-.392-1.015-.941-1.986-1.562-2.894-.622-.928-1.375-1.777-2.152-2.586-.444-.474-.918-.93-1.39-1.384-.37-.384-.786-.729-1.174-1.107-.858-.927-1.641-1.917-2.537-2.823-.842-.86-1.872-1.737-3.162-1.895a1.613 1.613 0 00-.284.004c-.54.049-1.012.403-1.1.96-.08.43.136.899.497 1.159-.181.196-.37.394-.566.575-1.432 1.281-3.125 2.26-4.776 3.252-1.713 1.026-3.364 2.138-4.715 3.611-1.215 1.348-1.907 3.03-2.316 4.768-.431 1.81-.478 3.722-.305 5.574.16 1.772.566 3.563 1.243 5.214.276.675.612 1.334.954 1.972z"/><path fill="#89A1ED" d="M79.775 51.672c-.547.157-.8.748-.727 1.273-.243-.43-.573-.798-.93-1.138-.066-.065-.14-.107-.204-.16a8.393 8.393 0 001.6-.422c.08.16.212.306.36.425-.035.014-.07.007-.099.022zm-2.245 3.77a.898.898 0 00-.15.435c-.018.254-.013.513.003.763a1.217 1.217 0 00-.62-.08 4.035 4.035 0 00-.477-.022c-.145.028-.284.062-.44.094-.133.07-.256.144-.398.218-.03.02-.05.051-.081.071a1.93 1.93 0 00-.633-.74c.11.024.232.03.355.015.266-.052.498-.097.722-.25.287-.21.47-.48.631-.794.046-.092.078-.208.117-.312.303.215.622.397.974.538-.002.016-.005.04-.003.064zm-3.837.326a2.52 2.52 0 00-.37-.003c.018-.059.043-.122.04-.184a1.329 1.329 0 00-.036-.474c.077.099.133.21.2.307.109.149.26.287.416.417-.077-.018-.155-.053-.25-.063zm-1.862-4.284c.078-.03.152-.065.218-.104.15.103.293.21.457.297.228.14.455.252.706.35-.027.03-.07.073-.096.112-.046-.02-.058-.059-.107-.081a15.358 15.358 0 00-.987-.439c-.054-.053-.123-.086-.19-.135zm4.058-3.374c.163.34.388.624.683.858a5.22 5.22 0 00-.508.539c-.4-.25-.82-.483-1.257-.7-.02-.01-.047-.017-.079-.03.076.008.148.024.22.017.43-.042.774-.325.941-.684zm8.106 2.987c.435-.239.853-.544 1.164-.928.407-.504.526-1.173.269-1.765-.137-.306-.349-.527-.597-.745-.252-.21-.582-.309-.9-.381a1.43 1.43 0 00-.514-.033 1.74 1.74 0 00-.59-.137 2.603 2.603 0 00-.866.081c-.212.06-.415.14-.613.242-.26.124-.47.3-.696.462 0 0-.022-.003-.026-.015.137-.455.159-.956 0-1.404a6.043 6.043 0 00.094-2.375c-.063-.488-.453-1.013-1.001-1.048a3.642 3.642 0 00-.557-.01c-.017.003-.05.004-.067.007a2.426 2.426 0 00-.493.108c-.332.075-.626.27-.897.446-.612.39-1.105 1-1.466 1.609-.137.24-.25.485-.345.75a12.485 12.485 0 00-.33-1.669c-.169-.535-.506-1.103-.989-1.414-.274-.168-.544-.306-.875-.317a2.987 2.987 0 00-.473.002c-.24.023-.457.084-.695.171-1.264.518-1.601 1.956-1.458 3.162.021.226.089.46.152.697-.663-.535-1.47-.99-2.315-.908a2 2 0 00-.41.083c-.578.182-.992.656-1.18 1.208a2.637 2.637 0 00-.132 1.046c.023.197.083.381.154.562.05.257.174.5.38.68.175.25.418.487.633.686.278.276.623.507.956.71.088.06.173.098.251.151a5.813 5.813 0 00-.609.01 6.373 6.373 0 00-1.313-.006 4.547 4.547 0 00-1.567.412c-.2.058-.358.188-.492.346-.191.21-.332.578-.275.863.088.34.164.609.365.908.13.234.347.42.546.618.216.208.5.348.761.504.203.124.42.183.651.265-.16.13-.333.247-.45.394a1.16 1.16 0 00.181 1.656c-.001.01.004.011.02.021a.86.86 0 00.097.15c.19.26.458.392.775.465.414.115.861.1 1.28.095.498-.02.977-.106 1.458-.206a7.992 7.992 0 00-.73 1.097c-.158.213-.285.433-.422.654-.16.26-.127.649-.025.921.165.404.517.628.932.73.503.125 1.01.042 1.496-.097.561-.144 1.074-.396 1.572-.699.024-.018.06-.04.095-.07-.062.147-.132.297-.16.461-.1.514.13 1.065.423 1.476.296.43.794.628 1.272.757.224.05.479.034.706.022.103-.007.219-.031.314-.066.31.045.629-.031.877-.2.12-.088.226-.201.306-.32.173-.121.327-.26.453-.403.372-.362.613-.798.756-1.282.035-.136.041-.26.06-.397.303.212.66.36 1.032.418.699.117 1.525-.154 2.04-.616.487-.434.795-1.032.731-1.694-.045-.536-.27-1.02-.563-1.47.751.217 1.538.354 2.311.27.665-.077 1.135-.639 1.08-1.294a2.638 2.638 0 00-.448-1.276c.01-.066.017-.123.022-.197.061-1.396-.942-2.128-2.18-2.428a9.517 9.517 0 001.054-.506z"/><path fill="#397ABF" d="M118.465 149.614c-.862-1-1.86-1.885-2.975-2.6a12.379 12.379 0 00-3.117-1.404.916.916 0 00-.366-.114c-.023.002-.046-.009-.079-.011-.092-.026-.181-.043-.271-.069a1.102 1.102 0 00-.45-.006 20.38 20.38 0 00-.99-.06c.147-.092.276-.168.426-.243.257-.149.434-.474.471-.749a1.198 1.198 0 00-.007-.451c.019-.016.035-.051.048-.065.71-1.151.909-2.525 1.275-3.794.604-1.906 1.514-3.697 2.107-5.602.261-.841.467-1.684.518-2.559a8.617 8.617 0 00-.404-2.976c-.315-1.038-.908-2.014-1.507-2.922-.565-.855-1.238-1.643-1.958-2.376a15.908 15.908 0 00-4.362-3.072c-1.564-.731-3.303-1.187-5.01-1.455-1.784-.262-3.61-.307-5.413-.252-.98.031-1.952.095-2.93.188-2.408.231-4.784.615-7.179.954-1.562.223-3.111.488-4.629.889-1.383.343-2.768.858-3.908 1.688a5.112 5.112 0 00-1.32 1.434c-.348.59-.495 1.26-.509 1.948.007.678.198 1.349.415 1.992.29.834.727 1.607 1.17 2.374.936 1.639 2.109 3.159 3.3 4.627 1.08 1.366 2.227 2.674 3.334 4.009.578.681 1.156 1.386 1.76 2.05a32.62 32.62 0 002.206 2.153 22.156 22.156 0 004.49 3.109c1.276.683 2.664 1.171 4.072 1.516 1.352.323 2.768.431 4.153.4a12.781 12.781 0 00-2.104 2.249 14.154 14.154 0 00-1.947 3.643c-.52 1.403-.765 2.883-.867 4.367-.205 2.933.17 5.881.102 8.816-.047 1.169-.147 2.36-.473 3.494-.467 1.329-1.15 2.561-1.545 3.922a6.13 6.13 0 00-.26 1.979c.014.769.349 1.497.776 2.129.363.526.912.956 1.466 1.266.596.313 1.256.51 1.901.641.706.126 1.441.141 2.153.164.657.02 1.325.008 1.967.016a9.549 9.549 0 012.067.33c.936.272 1.851.56 2.786.805a9.155 9.155 0 002.127.314c.742.022 1.464-.114 2.191-.318.84-.248 1.64-.632 2.407-1.033a27.77 27.77 0 002.921-1.671 17.932 17.932 0 003.921-3.454c2.185-2.627 3.213-5.941 3.306-9.299.109-3.388-.499-6.808-1.553-10.041-.805-2.461-2.016-4.867-3.703-6.87zM152.378 154.453c-1.465-1.453-3.208-2.624-5.004-3.669-1.792-1.034-3.695-1.88-5.627-2.616-3.36-1.307-6.924-2.314-10.52-2.685-1.117-.116-2.372-.173-3.59-.054-2.427.231-4.74 1.119-5.69 3.465-.237.607-.003 1.289.614 1.563a.82.82 0 00.199.07c-.19 2.5.071 5.033.611 7.478a32.536 32.536 0 001.416 4.692c.593 1.553 1.326 3.031 2.155 4.474 1.569 2.749 3.636 5.27 6.195 7.211a17.073 17.073 0 004.049 2.285c1.511.617 3.127.948 4.775 1.064 2.228.155 4.478.012 6.675-.391 1.853-.333 3.786-.86 5.365-1.905a4.626 4.626 0 001.356-1.435c.328-.563.513-1.193.616-1.824.132-.704.173-1.426.232-2.145.085-1.164.207-2.333.286-3.498a27.94 27.94 0 00.062-3.248c-.04-1.154-.262-2.293-.605-3.403-.626-2.095-2.02-3.871-3.57-5.429zM166.545 124.615c-.493-.683-1.114-1.29-1.714-1.884a41.377 41.377 0 00-1.92-1.667c-1.505-1.205-3.134-2.264-4.919-3.044-1.872-.834-3.92-1.301-5.984-1.412a16.57 16.57 0 00-2.59.056c-1.29.122-2.56.383-3.809.743-1.927.576-3.705 1.572-5.336 2.705-1.746 1.203-3.328 2.679-4.733 4.244-1.322 1.463-2.466 3.074-3.484 4.744a22.892 22.892 0 00-2.132 4.513c-.214.158-.451.461-.468.744-.065 1.585-.024 3.197.567 4.688.229.578.573 1.12.988 1.579.497.569 1.079.982 1.733 1.346.637.375 1.35.584 2.043.791.885.265 1.774.418 2.669.551 1.84.281 3.687.488 5.532.653 2.109.181 4.234.272 6.35.241 1.971-.034 3.949-.198 5.877-.643 1.844-.396 3.633-1.065 5.098-2.251 1.309-1.087 2.166-2.542 2.731-4.125.453-1.241.76-2.542 1.119-3.802.14-.38.338-.74.549-1.097.846-1.276 1.85-2.45 2.603-3.789a2.66 2.66 0 00.293-1.724c-.144-.792-.588-1.511-1.063-2.16z"/><path fill="#397ABF" d="M110.874 119.995c.416.801.865 1.581 1.329 2.351a32.13 32.13 0 003.143 4.345c1.159 1.339 2.478 2.577 3.978 3.555 1.413.91 2.996 1.579 4.698 1.743 1.505.152 3.052-.017 4.469-.543 2.584-.961 4.319-3.189 5.359-5.608 1.119-2.615 1.534-5.525 1.679-8.362.071-1.421.068-2.848.003-4.266-.07-1.457-.177-2.91-.43-4.355a17.352 17.352 0 00-.883-3.26c-.392-1.016-.941-1.986-1.562-2.894-.621-.928-1.374-1.777-2.152-2.587-.444-.473-.918-.93-1.389-1.383-.371-.384-.786-.729-1.175-1.107-.857-.927-1.641-1.917-2.537-2.823-.842-.86-1.872-1.737-3.162-1.895a1.62 1.62 0 00-.284.004c-.54.049-1.012.403-1.099.96-.081.43.135.899.496 1.159-.181.196-.37.394-.566.575-1.431 1.281-3.124 2.26-4.775 3.252-1.714 1.026-3.365 2.138-4.716 3.611-1.215 1.348-1.907 3.03-2.315 4.768-.432 1.809-.479 3.722-.306 5.574.16 1.772.567 3.563 1.243 5.214.276.675.612 1.334.954 1.972z"/><path fill="#072647" d="M125.002 138.773c-.547.157-.801.748-.727 1.273-.244-.431-.573-.798-.931-1.138-.066-.065-.14-.107-.204-.161a8.364 8.364 0 001.601-.421c.08.161.211.306.36.425-.035.014-.07.007-.099.022zm-2.246 3.77a.9.9 0 00-.15.435c-.018.254-.012.513.003.763a1.224 1.224 0 00-.619-.08 4.054 4.054 0 00-.478-.022c-.144.028-.284.062-.439.094-.134.07-.256.144-.399.218-.03.02-.051.051-.081.071a1.916 1.916 0 00-.633-.739c.11.023.233.029.356.014.265-.052.497-.098.721-.251.287-.208.47-.479.631-.793.046-.092.078-.208.117-.312.304.215.622.397.974.538-.002.016-.005.04-.003.064zm-3.837.326a2.414 2.414 0 00-.371-.003c.019-.059.045-.122.042-.184a1.34 1.34 0 00-.037-.474c.077.099.134.21.2.307.109.149.261.287.416.417-.077-.018-.155-.053-.25-.063zm-1.862-4.284a1.42 1.42 0 00.218-.104c.151.103.293.211.457.297.229.141.455.252.706.35-.026.031-.071.073-.095.112-.047-.02-.058-.059-.107-.081a15.052 15.052 0 00-.988-.439c-.053-.053-.123-.086-.191-.135zm4.059-3.374c.162.34.387.624.683.858a5.163 5.163 0 00-.508.539c-.401-.25-.82-.483-1.258-.7-.02-.011-.047-.017-.078-.029.076.007.148.023.22.016a1.18 1.18 0 00.941-.684zm8.106 2.987c.434-.239.852-.544 1.163-.928.408-.504.526-1.173.269-1.765-.137-.306-.349-.527-.597-.745-.251-.21-.582-.309-.899-.381a1.421 1.421 0 00-.515-.034 1.769 1.769 0 00-.589-.136 2.693 2.693 0 00-.435.004 3.189 3.189 0 00-.432.077 3.31 3.31 0 00-.613.242c-.259.124-.47.3-.696.462 0 0-.021-.003-.025-.015.136-.455.158-.956-.001-1.404a6.051 6.051 0 00.094-2.375c-.063-.488-.453-1.013-1.001-1.048a3.484 3.484 0 00-.557-.01c-.017.003-.05.004-.067.007a2.44 2.44 0 00-.493.108c-.332.075-.625.269-.897.445-.612.391-1.105 1.001-1.466 1.61-.137.239-.25.485-.344.749a12.678 12.678 0 00-.33-1.668c-.169-.535-.507-1.103-.99-1.414-.274-.168-.543-.306-.875-.317a2.87 2.87 0 00-.473.002c-.24.023-.457.084-.695.171-1.264.518-1.601 1.956-1.458 3.162.022.226.089.459.153.697-.664-.535-1.471-.99-2.316-.908a1.976 1.976 0 00-.41.083c-.577.182-.991.656-1.18 1.208a2.658 2.658 0 00-.132 1.045c.023.198.083.382.155.563.05.257.173.5.38.68.174.251.417.487.632.686.278.276.624.507.956.71.088.06.174.098.252.151a5.893 5.893 0 00-.609.01 6.412 6.412 0 00-1.314-.006 4.55 4.55 0 00-1.566.412 1.027 1.027 0 00-.493.346c-.191.211-.332.578-.275.863.089.34.165.609.366.908.13.234.346.42.545.618.216.208.5.348.762.504.203.124.42.183.651.265-.161.13-.334.247-.45.394a1.16 1.16 0 00.181 1.656c-.002.01.004.011.019.021a.81.81 0 00.098.149c.189.261.457.393.775.466.413.115.861.099 1.279.095.498-.02.977-.106 1.458-.206a8.102 8.102 0 00-.73 1.097c-.158.213-.284.433-.422.654-.159.261-.127.649-.024.921.165.404.516.628.931.73.503.125 1.009.042 1.496-.097.561-.144 1.074-.396 1.572-.699.025-.018.061-.04.095-.069-.061.146-.131.296-.159.46-.101.514.129 1.065.422 1.476.296.429.795.628 1.272.757.224.049.479.034.706.022.103-.007.219-.031.315-.066.31.045.628-.032.877-.2.119-.088.225-.201.305-.321.173-.12.327-.259.454-.402.371-.362.612-.798.755-1.282.035-.136.041-.261.06-.397.304.212.66.36 1.032.418.699.117 1.525-.154 2.039-.616.489-.435.796-1.032.732-1.694-.044-.536-.27-1.02-.563-1.471.751.218 1.538.355 2.312.271.665-.077 1.135-.639 1.079-1.294a2.637 2.637 0 00-.447-1.276c.008-.066.016-.123.021-.197.062-1.396-.941-2.128-2.179-2.428a9.745 9.745 0 001.054-.506z"/><path fill="#fff" d="M156.059 249.044a3.125 3.125 0 01-.828-1.404c-.408-1.296-.612-2.568-.612-3.816 0-.576.036-1.128.108-1.656.24-1.8.648-3.708 1.224-5.724.024-.096.036-.204.036-.324 0-.12.012-.216.036-.288 0-.072-.024-.108-.072-.108-.12-.048-.204-.048-.252 0a2.052 2.052 0 00-.54.648l-.216.432-2.124 4.32c-.336.72-.6 1.26-.792 1.62-.24.456-.636.732-1.188.828-.312.072-.6.108-.864.108-.624 0-1.164-.168-1.62-.504-.432-.36-.816-.924-1.152-1.692a9.696 9.696 0 01-.756-3.24c0-.144-.096-.216-.288-.216-.216 0-.36.096-.432.288a64.36 64.36 0 00-.936 1.944c-1.44 2.928-2.22 4.5-2.34 4.716-.336.624-.78 1.008-1.332 1.152-.408.12-.732.18-.972.18-.768 0-1.356-.42-1.764-1.26-.288-.504-.432-1.116-.432-1.836 0-.384.036-.756.108-1.116l.108-.252c.168-.312.372-.468.612-.468.36 0 .564.204.612.612.048.48.072.828.072 1.044.024.408.168.78.432 1.116.168.168.324.252.468.252.12 0 .228-.048.324-.144.456-.576.732-.936.828-1.08.48-1.032 1.428-3.024 2.844-5.976s2.424-4.98 3.024-6.084c.192-.288.432-.432.72-.432.168 0 .324.06.468.18.168.096.288.24.36.432.072.192.12.408.144.648.048.24.084.408.108.504l1.044 5.76c.024.096.036.24.036.432.024.192.072.348.144.468.072.12.192.192.36.216h.108c.168 0 .324-.096.468-.288.144-.192.252-.324.324-.396.936-1.08 2.064-2.616 3.384-4.608l1.44-2.088c.24-.312.456-.54.648-.684a.842.842 0 01.72-.108c.624.144.936.66.936 1.548 0 1.104-.084 2.148-.252 3.132-.192.936-.384 1.908-.576 2.916a33.183 33.183 0 00-.36 2.736 34.217 34.217 0 00-.072 1.836c0 .936.084 1.812.252 2.628a.8.8 0 00.108.252c.048.072.096.108.144.108.312 0 1.116-1.02 2.412-3.06a120.22 120.22 0 003.528-5.976.909.909 0 00.108-.216c.048-.096.108-.192.18-.288.048-.072.108-.156.18-.252a.78.78 0 01.216-.252.39.39 0 01.288-.108c.24 0 .36.12.36.36 0 .168-.072.396-.216.684-.504.936-.804 1.488-.9 1.656-.12.216-.264.468-.432.756-.144.264-.3.564-.468.9l-1.836 3.6c-1.032 2.016-1.656 3.216-1.872 3.6-.36.624-.756 1.08-1.188 1.368-.408.288-.816.432-1.224.432-.48 0-.852-.156-1.116-.468zm20.606 2.52c-.312.12-.612.18-.9.18-.792 0-1.428-.336-1.908-1.008-.528-.768-.84-1.5-.936-2.196-.096-.648-.228-1.716-.396-3.204.072-.408.132-1.02.18-1.836.024-.168.048-.492.072-.972.048-.48.12-.924.216-1.332l.216-1.188c.048-.192.144-.672.288-1.44.168-.792.36-1.524.576-2.196.024-.024.036-.072.036-.144a.242.242 0 00-.108-.216.242.242 0 00-.216-.108c-.168 0-.336.024-.504.072a3.323 3.323 0 01-.468.036c-.696.024-1.14.42-1.332 1.188-.648 2.376-1.524 4.5-2.628 6.372a7.263 7.263 0 01-1.44 1.728c-.48.408-.96.612-1.44.612-.648 0-1.212-.3-1.692-.9-.504-.576-.756-1.164-.756-1.764 0-.336.06-.624.18-.864.072-.168.144-.288.216-.36a.39.39 0 01.288-.108h.072c.216 0 .372.144.468.432.12.528.288.936.504 1.224.24.312.468.468.684.468.216 0 .408-.108.576-.324.528-.48 1.068-1.2 1.62-2.16.744-1.296 1.368-2.82 1.872-4.572a.618.618 0 00.036-.252c0-.264-.18-.432-.54-.504a45.1 45.1 0 00-.612-.072l-.576-.072c-.12 0-.324-.012-.612-.036a5.72 5.72 0 01-.72-.108c-.768-.144-1.368-.48-1.8-1.008a3.07 3.07 0 01-.612-1.872c0-.504.108-.972.324-1.404.264-.6.732-1.128 1.404-1.584.696-.456 1.392-.648 2.088-.576 1.584.192 2.652.984 3.204 2.376.192.504.336 1.296.432 2.376.024.264.096.444.216.54.144.072.348.084.612.036.216-.048.564-.12 1.044-.216a7.094 7.094 0 001.296-.36c.096-.048.24-.072.432-.072.264 0 .468.084.612.252.168.168.252.396.252.684 0 .288-.048.612-.144.972-.072.36-.12.636-.144.828-.192 1.152-.288 2.664-.288 4.536V244.76c0 .192-.012.42-.036.684 0 .264.012.576.036.936.048.984.168 1.716.36 2.196.048.096.12.156.216.18.12.024.216 0 .288-.072.264-.288.492-.624.684-1.008l.396-.792c.48-1.008.912-2.028 1.296-3.06.408-1.056.888-2.376 1.44-3.96.456-1.32.756-2.16.9-2.52.072-.168.156-.36.252-.576.12-.216.216-.384.288-.504.096-.192.216-.264.36-.216.192.096.24.264.144.504l-.9 2.7-.72 2.088a183.598 183.598 0 01-1.656 4.896c-.264.792-.804 2.148-1.62 4.068a5.897 5.897 0 01-.216.396 5.897 5.897 0 01-.216.396c-.096.168-.276.324-.54.468zm-6.912-16.956c.24 0 .396-.06.468-.18.096-.12.144-.336.144-.648 0-.648-.228-1.236-.684-1.764-.408-.408-.804-.612-1.188-.612-.168 0-.36.036-.576.108-.552.216-.888.672-1.008 1.368v.216c0 .36.156.624.468.792.912.456 1.668.696 2.268.72h.108zm16.614-2.988a4.32 4.32 0 01-.612.072c-.384 0-.732-.084-1.044-.252a1.727 1.727 0 01-.684-.756 1.917 1.917 0 01-.216-.864c0-.48.216-.972.648-1.476.24-.288.468-.384.684-.288.216.096.324.24.324.432 0 .096-.024.216-.072.36l-.072.216-.072.144c-.024.264.024.48.144.648a.682.682 0 00.54.252l.288-.072c3.072-1.128 5.28-1.872 6.624-2.232 1.368-.36 2.532-.516 3.492-.468.576.048 1.032.264 1.368.648.336.384.492.888.468 1.512 0 .072-.012.156-.036.252l-.072.216c-.12.312-.3.48-.54.504l-.144.036c-.24 0-.396-.132-.468-.396 0-.024-.012-.036-.036-.036-.024-.024-.036-.06-.036-.108-.264-.624-.816-.936-1.656-.936-.528 0-1.164.108-1.908.324-.72.216-1.656.54-2.808.972-1.848.648-3.216 1.08-4.104 1.296zm13.392 19.08c-.408.48-.912.72-1.512.72-.384 0-.744-.108-1.08-.324-.312-.192-.552-.48-.72-.864-.312-.744-.504-1.572-.576-2.484a22.058 22.058 0 01-.108-2.196c0-1.728.18-3.432.54-5.112.288-1.536.492-2.688.612-3.456l.36-2.016c.024-.024 0-.06-.072-.108-.696.408-1.284 1.044-1.764 1.908a142.025 142.025 0 00-2.232 3.744 33.223 33.223 0 00-1.44 2.772c-.096.168-.204.348-.324.54a5.93 5.93 0 00-.324.504c-.264.504-.744.756-1.44.756-.312 0-.576-.048-.792-.144-.192-.12-.348-.312-.468-.576a3.738 3.738 0 01-.324-1.152 12.275 12.275 0 01-.072-.756l-.072-1.332c0-.216-.084-.324-.252-.324-.168.048-.288.12-.36.216-.408.6-.78 1.284-1.116 2.052a43.309 43.309 0 01-.648 1.44 40.33 40.33 0 01-.792 1.728l-.396.864c-.288.72-.792 1.08-1.512 1.08-.6 0-1.044-.12-1.332-.36-.288-.264-.492-.696-.612-1.296-.12-.552-.18-1.212-.18-1.98 0-.576.024-1.008.072-1.296.192-1.824.348-3.192.468-4.104.144-.936.336-1.896.576-2.88.096-.384.228-.816.396-1.296.144-.288.288-.492.432-.612.312-.312.576-.408.792-.288.456.144.684.384.684.72.024.384.012.936-.036 1.656l-.18 2.304c-.192 2.304-.3 4.032-.324 5.184 0 .216.072.324.216.324.096 0 .168-.048.216-.144l1.8-3.132c.192-.336.588-.972 1.188-1.908.192-.264.432-.516.72-.756.288-.216.564-.324.828-.324.432 0 .78.24 1.044.72.072.168.12.36.144.576l.108.432c.072.312.12.6.144.864.024.24.048.444.072.612.072.12.144.18.216.18a.32.32 0 00.144.036.235.235 0 00.108-.108c.624-.888.972-1.38 1.044-1.476.576-.96 1.488-2.376 2.736-4.248l.54-.792c.576-.816 1.26-1.62 2.052-2.412.264-.264.528-.48.792-.648.312-.192.6-.288.864-.288.24 0 .468.084.684.252.24.168.42.396.54.684.216.432.324.816.324 1.152v1.044c0 .936-.036 1.644-.108 2.124 0 .096-.144 1.044-.432 2.844-.456 2.64-.684 4.752-.684 6.336l-.036.828c0 .312.048.6.144.864.048.12.108.192.18.216.144 0 .228-.036.252-.108.456-.624.708-.996.756-1.116 1.824-3.192 3.252-6.276 4.284-9.252.096-.312.24-.636.432-.972.024-.048.084-.084.18-.108a.631.631 0 01.18-.072c.144 0 .24.096.288.288.024.072.036.18.036.324 0 .192-.072.48-.216.864-.72 2.16-1.296 3.768-1.728 4.824-.408 1.008-1.068 2.52-1.98 4.536l-.684 1.512c-.384.96-.804 1.692-1.26 2.196zm15.575-.864c-.504-.168-.864-.564-1.08-1.188-.672-1.56-1.08-2.796-1.224-3.708a12.477 12.477 0 01-.216-2.304c0-.576.06-1.248.18-2.016.096-.48.144-.84.144-1.08 0-.24-.024-.42-.072-.54a1.178 1.178 0 00-.288-.072c-.12 0-.24.036-.36.108a1.53 1.53 0 00-.216.144c-.864.528-2.208 1.2-4.032 2.016l-.54.252c-.504.24-.768.636-.792 1.188-.024.648-.108 1.596-.252 2.844-.048.432-.096.732-.144.9-.096.336-.228.576-.396.72-.168.144-.42.216-.756.216-.72 0-1.152-.336-1.296-1.008-.12-.768-.18-1.464-.18-2.088.048-3.072.096-5.376.144-6.912l.072-3.456c0-.384.096-.72.288-1.008.264-.384.564-.576.9-.576.576 0 .948.252 1.116.756.12.36.18.696.18 1.008 0 .48.048 1.176.144 2.088.096 1.056.144 1.848.144 2.376 0 .288-.024.696-.072 1.224v.072c0 .216.06.372.18.468.144.096.3.096.468 0l1.044-.432a54.68 54.68 0 001.548-.648c.84-.384 1.596-.804 2.268-1.26.936-.6 1.536-1.38 1.8-2.34.192-.672.516-1.56.972-2.664.216-.552.528-.936.936-1.152a.646.646 0 01.324-.108c.144 0 .264.048.36.144.12.096.192.216.216.36v.36c0 .36-.012.636-.036.828l-.828 6.264c-.048.36-.072.888-.072 1.584 0 .672.048 1.704.144 3.096l.108.792c.048.384.072.66.072.828.048.504.168.936.36 1.296.096.168.228.252.396.252.144 0 .264-.06.36-.18.576-.696 1.02-1.356 1.332-1.98 1.176-2.28 2.196-4.896 3.06-7.848l.396-1.116c.072-.12.204-.18.396-.18.12 0 .216.048.288.144a.25.25 0 01.072.252c0 .528-.06.972-.18 1.332a60.802 60.802 0 01-3.852 10.08 2.902 2.902 0 01-.252.468c-.096.144-.18.3-.252.468-.432.744-1.08 1.116-1.944 1.116a3.89 3.89 0 01-1.08-.18zm9.125-.432c-1.296-.048-2.268-.576-2.916-1.584-.528-.816-.792-1.824-.792-3.024 0-1.752.288-3.36.864-4.824.216-.528.288-1.152.216-1.872a3.658 3.658 0 01-.036-.576c0-1.08.324-2.004.972-2.772.648-.792 1.488-1.296 2.52-1.512.096-.024.228-.036.396-.036.6 0 1.176.216 1.728.648.552.432.96.864 1.224 1.296.312.6.552 1.104.72 1.512.168.408.288.84.36 1.296.096.744.288 1.116.576 1.116.12 0 .276-.048.468-.144.216-.096.384-.168.504-.216.552-.24 1.38-.624 2.484-1.152l1.476-.684c.264-.12.66-.324 1.188-.612a1.63 1.63 0 01.576-.108c.144 0 .264.072.36.216a.666.666 0 010 .432.991.991 0 01-.468.36l-1.692.864a188.172 188.172 0 01-4.464 2.232c-.312.144-.552.324-.72.54-.144.192-.24.456-.288.792-.144 1.584-.588 3.168-1.332 4.752a6.875 6.875 0 01-1.476 2.052c-.696.672-1.512 1.008-2.448 1.008zm2.556-9.72c.12-.024.276-.036.468-.036s.408-.024.648-.072c.384-.024.576-.264.576-.72 0-1.344-.564-2.58-1.692-3.708-.36-.36-.732-.54-1.116-.54-.312 0-.66.108-1.044.324-.696.36-1.164.972-1.404 1.836v.144c0 .192.072.3.216.324 1.008.144 1.44.696 1.296 1.656V239c0 .24.168.408.504.504l1.548.18zm-1.368 7.236c.48-.168.936-.54 1.368-1.116a6.33 6.33 0 00.972-1.872c.24-.672.444-1.488.612-2.448v-.072a.488.488 0 00-.504-.504l-1.728.036c-.264 0-.684-.024-1.26-.072a1.092 1.092 0 00-.324-.036.48.48 0 00-.396.18c-.072.12-.132.312-.18.576-.048.24-.168 1.092-.36 2.556l.108.792c.048.552.144 1.008.288 1.368.216.48.504.72.864.72.192 0 .372-.036.54-.108zm15.96-10.08a17.09 17.09 0 01-1.296.072c-.696 0-1.26-.072-1.692-.216a2.375 2.375 0 01-.396-.144c-.072-.072-.108-.18-.108-.324 0-.216.144-.396.432-.54a3.585 3.585 0 011.62-.396H243.983c1.32 0 2.388.084 3.204.252.072.024.168.048.288.072.12.024.216.06.288.108.216.096.324.252.324.468a.479.479 0 01-.108.288.35.35 0 01-.216.144 6.832 6.832 0 01-1.188.108l-2.016-.036a26.99 26.99 0 00-2.952.144zm16.417 13.284c-.384-.504-.672-1.248-.864-2.232-.192-1.008-.288-2.124-.288-3.348 0-1.08.06-2.112.18-3.096.12-1.008.288-1.8.504-2.376l.648-1.98c.048-.168.216-.696.504-1.584.312-.888.648-1.728 1.008-2.52.096-.216.144-.564.144-1.044v-.072c0-.168-.06-.276-.18-.324-.12-.072-.252-.072-.396 0-.432.168-.924.504-1.476 1.008-.96.936-2.028 2.136-3.204 3.6l-1.152 1.404c-.096.12-.264.18-.504.18-.168 0-.276-.024-.324-.072-.192-.168-.252-.396-.18-.684.096-.192.156-.336.18-.432.192-.456.468-.936.828-1.44.384-.528.648-.888.792-1.08 1.008-1.368 2.076-2.496 3.204-3.384.528-.432 1.032-.744 1.512-.936.408-.144.78-.216 1.116-.216.672 0 1.236.24 1.692.72.456.456.684 1.068.684 1.836 0 .648-.144 1.548-.432 2.7-.192 1.008-.36 1.74-.504 2.196-.336 1.032-.66 2.34-.972 3.924-.288 1.56-.432 2.904-.432 4.032 0 1.32.216 2.076.648 2.268a.32.32 0 00.144.036.419.419 0 00.108-.072c.24-.24.408-.432.504-.576 1.032-1.368 2.076-3.012 3.132-4.932.36-.696.924-1.74 1.692-3.132l.684-1.224a.909.909 0 00.108-.216c.048-.096.108-.192.18-.288.048-.072.108-.156.18-.252a.78.78 0 01.216-.252.39.39 0 01.288-.108c.24 0 .36.12.36.36 0 .168-.072.396-.216.684-.504.936-.804 1.488-.9 1.656-.12.216-.264.468-.432.756-.144.264-.3.564-.468.9l-1.836 3.6c-1.032 2.016-1.656 3.216-1.872 3.6-.528 1.008-.948 1.752-1.26 2.232-.216.312-.48.54-.792.684-.288.168-.6.252-.936.252-.648 0-1.188-.252-1.62-.756zm11.892-.72c-1.296-.048-2.268-.576-2.916-1.584-.528-.816-.792-1.824-.792-3.024 0-1.752.288-3.36.864-4.824.216-.528.288-1.152.216-1.872a3.658 3.658 0 01-.036-.576c0-1.08.324-2.004.972-2.772.648-.792 1.488-1.296 2.52-1.512.096-.024.228-.036.396-.036.6 0 1.176.216 1.728.648.552.432.96.864 1.224 1.296.312.6.552 1.104.72 1.512.168.408.288.84.36 1.296.096.744.288 1.116.576 1.116.12 0 .276-.048.468-.144.216-.096.384-.168.504-.216.552-.24 1.38-.624 2.484-1.152l1.476-.684c.264-.12.66-.324 1.188-.612a1.63 1.63 0 01.576-.108c.144 0 .264.072.36.216a.666.666 0 010 .432.991.991 0 01-.468.36l-1.692.864a188.172 188.172 0 01-4.464 2.232c-.312.144-.552.324-.72.54-.144.192-.24.456-.288.792-.144 1.584-.588 3.168-1.332 4.752a6.875 6.875 0 01-1.476 2.052c-.696.672-1.512 1.008-2.448 1.008zm2.556-9.72c.12-.024.276-.036.468-.036s.408-.024.648-.072c.384-.024.576-.264.576-.72 0-1.344-.564-2.58-1.692-3.708-.36-.36-.732-.54-1.116-.54-.312 0-.66.108-1.044.324-.696.36-1.164.972-1.404 1.836v.144c0 .192.072.3.216.324 1.008.144 1.44.696 1.296 1.656V239c0 .24.168.408.504.504l1.548.18zm-1.368 7.236c.48-.168.936-.54 1.368-1.116a6.33 6.33 0 00.972-1.872c.24-.672.444-1.488.612-2.448v-.072a.488.488 0 00-.504-.504l-1.728.036c-.264 0-.684-.024-1.26-.072a1.092 1.092 0 00-.324-.036.48.48 0 00-.396.18c-.072.12-.132.312-.18.576-.048.24-.168 1.092-.36 2.556l.108.792c.048.552.144 1.008.288 1.368.216.48.504.72.864.72.192 0 .372-.036.54-.108zm21.504 1.728a7.64 7.64 0 01-.864.072c-.408 0-.756-.084-1.044-.252a4.205 4.205 0 01-.972-.9c-.744-1.104-1.2-2.58-1.368-4.428-.096-1.296-.144-2.292-.144-2.988 0-1.224.084-2.376.252-3.456a2.001 2.001 0 000-.756c0-.072-.06-.132-.18-.18-.12 0-.204.036-.252.108a.896.896 0 00-.216.396l-.684 1.368a85.505 85.505 0 01-2.052 4.176c-.36.72-.924 1.776-1.692 3.168-.336.624-.78 1.008-1.332 1.152-.408.12-.732.18-.972.18-.768 0-1.356-.42-1.764-1.26-.288-.504-.432-1.116-.432-1.836 0-.384.036-.756.108-1.116l.108-.252c.168-.312.372-.468.612-.468.36 0 .564.204.612.612.048.48.072.828.072 1.044.024.408.168.78.432 1.116.168.168.324.252.468.252.12 0 .228-.048.324-.144.456-.576.732-.936.828-1.08l1.188-2.088c.384-.624.936-1.584 1.656-2.88l1.296-2.34c.816-1.584 1.56-2.904 2.232-3.96.192-.336.348-.588.468-.756.216-.264.468-.396.756-.396.312 0 .564.168.756.504.312.504.492 1.128.54 1.872l.108 4.932v1.44c0 1.776.132 3.252.396 4.428.024.12.048.3.072.54.024.24.072.432.144.576.072.144.216.216.432.216.12.024.84-.948 2.16-2.916 1.344-1.992 2.4-3.684 3.168-5.076a.909.909 0 00.108-.216c.048-.096.108-.192.18-.288.048-.072.108-.156.18-.252a.78.78 0 01.216-.252.39.39 0 01.288-.108c.24 0 .36.12.36.36 0 .168-.072.396-.216.684-.504.936-.804 1.488-.9 1.656-.12.216-.264.468-.432.756-.144.264-.3.564-.468.9l-1.836 3.6c-1.032 2.016-1.656 3.216-1.872 3.6l-.18.36a.896.896 0 01-.216.396c-.096.096-.24.156-.432.18zm8.897 10.296c-1.08-.072-1.812-.66-2.196-1.764a3.11 3.11 0 01-.18-.972c0-.312.06-.672.18-1.08.264-.816.684-1.62 1.26-2.412 1.56-2.16 2.844-3.888 3.852-5.184.528-.696.864-1.416 1.008-2.16l.216-1.296c.408-2.4.648-3.888.72-4.464.12-.936.348-2.22.684-3.852.024-.12.06-.288.108-.504a2.69 2.69 0 00.072-.576c0-.168-.012-.3-.036-.396a1.4 1.4 0 00-.504.324c-.12.144-.228.312-.324.504a6.878 6.878 0 01-.216.36l-1.152 1.764c-.624 1.008-1.116 1.764-1.476 2.268-.432.6-1.128 1.452-2.088 2.556-.36.36-.828.54-1.404.54-.336 0-.66-.072-.972-.216a1.796 1.796 0 01-.684-.576c-.288-.36-.444-.732-.468-1.116-.12-.768-.18-1.452-.18-2.052 0-.432.036-.84.108-1.224l.216-1.404c.048-.312.12-.756.216-1.332.12-.6.228-1.116.324-1.548.192-.816.48-1.512.864-2.088.168-.312.396-.468.684-.468.432 0 .684.216.756.648.024.096.06.276.108.54.048.24.072.456.072.648 0 .864-.024 2.112-.072 3.744l-.108 3.168c0 .096.048.18.144.252.12.048.216.048.288 0 .216-.144.408-.3.576-.468a16.7 16.7 0 002.7-3.24l1.296-1.8c1.104-1.512 1.872-2.64 2.304-3.384.192-.408.444-.612.756-.612.24 0 .444.108.612.324a.972.972 0 01.252.756 89.242 89.242 0 01-.396 3.744l-.9 5.796c-.024.12-.06.276-.108.468a1.97 1.97 0 00-.072.432c0 .168.06.288.18.36a.512.512 0 00.288.072c.192 0 .36-.108.504-.324.168-.24.288-.396.36-.468 1.608-1.704 2.856-2.94 3.744-3.708.216-.192.48-.408.792-.648.312-.24.552-.42.72-.54a.63.63 0 01.576-.144c.096.024.168.096.216.216.072.12.084.204.036.252-.12.192-.288.372-.504.54l-1.548 1.332c-.84.744-1.62 1.476-2.34 2.196a31.795 31.795 0 00-1.872 2.052c-.6.72-.972 1.164-1.116 1.332-.312.384-.516.936-.612 1.656l-.18 1.08c-.576 3.408-1.08 5.952-1.512 7.632-.12.504-.288.972-.504 1.404a39.972 39.972 0 01-.936 1.728c-.576 1.008-1.62 1.452-3.132 1.332zm.324-2.016a.991.991 0 00.468-.36c.576-.624.972-1.248 1.188-1.872.408-1.344.72-2.544.936-3.6.048-.264.096-.66.144-1.188a.419.419 0 00-.108-.252c-.216 0-.348.024-.396.072-1.368 1.68-2.496 3.384-3.384 5.112-.096.144-.18.468-.252.972 0 .384.084.684.252.9a.785.785 0 00.648.324c.168 0 .336-.036.504-.108zm17.889-9.108c-.432.12-.84.18-1.224.18-.816 0-1.716-.264-2.7-.792-.168-.072-.42-.312-.756-.72-.936-1.152-1.404-2.592-1.404-4.32 0-.288.024-.696.072-1.224.144-1.08.48-2.496 1.008-4.248.552-1.632 1.596-2.604 3.132-2.916.288-.048.48-.072.576-.072.72 0 1.332.288 1.836.864.072.072.108.216.108.432 0 .168-.108.252-.324.252-.12.024-.312.036-.576.036l-.324-.036c-.576 0-1.068.36-1.476 1.08a8.773 8.773 0 00-.828 2.736c-.048.72-.072 1.248-.072 1.584l.036 1.116c.024.792.288 1.548.792 2.268.24.384.54.576.9.576.264 0 .552-.12.864-.36.72-.576 1.26-1.344 1.62-2.304.6-1.584 1.02-3.18 1.26-4.788.144-1.008.216-2.016.216-3.024 0-2.928-.6-5.892-1.8-8.892-1.032-2.616-2.004-4.764-2.916-6.444l-.18-.396c-.192-.456-.288-.84-.288-1.152 0-.696.456-1.248 1.368-1.656.552-.24 1.08-.36 1.584-.36l3.708-.144c.672.048 1.176.072 1.512.072.984 0 1.992-.06 3.024-.18 1.032-.144 2.328-.348 3.888-.612.096-.024.24-.036.432-.036.384 0 .72.096 1.008.288a.684.684 0 01.288.576c0 .168-.06.336-.18.504a.585.585 0 01-.288.252.622.622 0 01-.36-.036 2.503 2.503 0 00-.9-.18c-.24 0-.72.084-1.44.252-1.584.384-3.324.6-5.22.648-.984.024-2.544.084-4.68.18-.456.048-.9.12-1.332.216-.432.096-.648.312-.648.648 0 .12.036.276.108.468.288.672.528 1.164.72 1.476.768 1.464 1.56 3.204 2.376 5.22.888 2.256 1.524 4.716 1.908 7.38.168 1.152.252 2.364.252 3.636 0 1.68-.144 3.372-.432 5.076-.288 1.704-.936 3.48-1.944 5.328-.24.432-.552.768-.936 1.008-.36.216-.816.396-1.368.54zm10.877 1.584c-1.296-.048-2.268-.576-2.916-1.584-.528-.816-.792-1.824-.792-3.024 0-1.752.288-3.36.864-4.824.216-.528.288-1.152.216-1.872a3.658 3.658 0 01-.036-.576c0-1.08.324-2.004.972-2.772.648-.792 1.488-1.296 2.52-1.512.096-.024.228-.036.396-.036.6 0 1.176.216 1.728.648.552.432.96.864 1.224 1.296.312.6.552 1.104.72 1.512.168.408.288.84.36 1.296.096.744.288 1.116.576 1.116.12 0 .276-.048.468-.144.216-.096.384-.168.504-.216.552-.24 1.38-.624 2.484-1.152l1.476-.684c.264-.12.66-.324 1.188-.612a1.63 1.63 0 01.576-.108c.144 0 .264.072.36.216a.666.666 0 010 .432.991.991 0 01-.468.36l-1.692.864a188.172 188.172 0 01-4.464 2.232c-.312.144-.552.324-.72.54-.144.192-.24.456-.288.792-.144 1.584-.588 3.168-1.332 4.752a6.875 6.875 0 01-1.476 2.052c-.696.672-1.512 1.008-2.448 1.008zm2.556-9.72c.12-.024.276-.036.468-.036s.408-.024.648-.072c.384-.024.576-.264.576-.72 0-1.344-.564-2.58-1.692-3.708-.36-.36-.732-.54-1.116-.54-.312 0-.66.108-1.044.324-.696.36-1.164.972-1.404 1.836v.144c0 .192.072.3.216.324 1.008.144 1.44.696 1.296 1.656V239c0 .24.168.408.504.504l1.548.18zm-1.368 7.236c.48-.168.936-.54 1.368-1.116a6.33 6.33 0 00.972-1.872c.24-.672.444-1.488.612-2.448v-.072a.488.488 0 00-.504-.504l-1.728.036c-.264 0-.684-.024-1.26-.072a1.092 1.092 0 00-.324-.036.48.48 0 00-.396.18c-.072.12-.132.312-.18.576-.048.24-.168 1.092-.36 2.556l.108.792c.048.552.144 1.008.288 1.368.216.48.504.72.864.72.192 0 .372-.036.54-.108zm14.197-17.928c-.624-.792-.9-1.74-.828-2.844a3 3 0 01.108-.684c.072-.264.252-.42.54-.468.264 0 .432.156.504.468l.288.9.216.684c.12.336.264.6.432.792.168.192.42.288.756.288.312 0 .552-.084.72-.252.168-.168.348-.42.54-.756l.288-.72c.12-.36.204-.588.252-.684.048-.216.168-.432.36-.648.144-.144.276-.168.396-.072.12.048.192.108.216.18.024.12.036.3.036.54 0 .864-.312 1.872-.936 3.024-.168.312-.456.576-.864.792a2.7 2.7 0 01-1.224.288c-.768 0-1.368-.276-1.8-.828zm8.568 18.648c-.384.504-.9.756-1.548.756-.672 0-1.212-.288-1.62-.864-.096-.12-.228-.384-.396-.792-.528-1.344-.792-2.568-.792-3.672.048-1.104.096-1.932.144-2.484l.072-1.26.108-2.412c0-.12-.036-.192-.108-.216-.096-.048-.18-.048-.252 0-.048.024-.084.072-.108.144l-2.16 3.96c-.312.552-.828 1.356-1.548 2.412-.312.456-.636.756-.972.9-.432.192-.828.288-1.188.288a1.89 1.89 0 01-1.008-.288c-.312-.192-.564-.48-.756-.864a4.633 4.633 0 01-.54-1.656 12.405 12.405 0 01-.144-2.016c0-.456.048-1.14.144-2.052l.072-.72c.096-1.008.192-1.764.288-2.268.144-.984.42-1.728.828-2.232.216-.24.444-.36.684-.36.312 0 .552.192.72.576.144.384.216.792.216 1.224l.072 6.444c0 .192.024.48.072.864.024.12.096.216.216.288a.456.456 0 00.396-.036c.408-.336.696-.612.864-.828.648-.744 1.32-1.74 2.016-2.988l.648-1.116a47.583 47.583 0 001.656-2.916c.456-.84.84-1.716 1.152-2.628l.108-.288c.168-.312.444-.504.828-.576.168-.024.336.048.504.216.192.144.324.312.396.504.072.216.108.456.108.72v1.188c0 .552-.012.96-.036 1.224l-.144 2.52c-.192 3.408-.3 5.964-.324 7.668 0 .072-.012.156-.036.252 0 .096.012.216.036.36.024.144.036.336.036.576.024.216.06.396.108.54.072.144.204.24.396.288.192.048.348.012.468-.108.12-.12.228-.264.324-.432a2.96 2.96 0 01.252-.432 21.99 21.99 0 002.484-3.924c.576-1.128 1.344-2.412 2.304-3.852l.648-.864c.168-.216.336-.276.504-.18.144.072.216.168.216.288 0 .024-.036.144-.108.36-.84 1.32-1.344 2.136-1.512 2.448l-2.268 4.212-.576 1.08c-.456.888-1.104 1.896-1.944 3.024zM186.541 159.136a2.662 2.662 0 01-.756-.9c-1.104-2.136-1.656-4.176-1.656-6.12 0-.504.036-1.02.108-1.548.048-.36.096-.852.144-1.476l.108-1.08c.216-1.656.516-3.168.9-4.536a17.56 17.56 0 011.656-3.888c.456-.816 1.164-1.728 2.124-2.736.696-.816 1.584-1.224 2.664-1.224 1.248 0 2.136.54 2.664 1.62.12.216.204.504.252.864.048.336.072.6.072.792 0 .984-.324 2.064-.972 3.24-.048.048-.132.072-.252.072l-.144-.072a.276.276 0 01-.036-.108c.12-1.032.192-1.584.216-1.656.048-.384.072-.66.072-.828 0-.312-.036-.588-.108-.828a.921.921 0 00-.36-.576.86.86 0 00-.576-.216.793.793 0 00-.576.252c-.528.456-.924.828-1.188 1.116-.264.264-.456.612-.576 1.044a25.101 25.101 0 01-.576 1.476l-.324.756c-.744 1.728-1.164 3.48-1.26 5.256l-.108 1.44c-.096 1.104-.144 1.92-.144 2.448 0 .24-.012.54-.036.9 0 .336.012.744.036 1.224.072 1.104.468 2.22 1.188 3.348.168.336.444.504.828.504.144 0 .252-.012.324-.036 1.704-.36 3.204-1.332 4.5-2.916 1.296-1.584 2.508-3.408 3.636-5.472a.909.909 0 00.108-.216c.048-.096.108-.192.18-.288.048-.072.108-.156.18-.252a.78.78 0 01.216-.252.39.39 0 01.288-.108c.24 0 .36.12.36.36 0 .168-.072.396-.216.684-1.92 3.72-3.84 6.42-5.76 8.1-1.896 1.656-3.612 2.484-5.148 2.484-.816 0-1.5-.216-2.052-.648zm24.177.504c-.384.504-.9.756-1.548.756-.672 0-1.212-.288-1.62-.864-.096-.12-.228-.384-.396-.792-.528-1.344-.792-2.568-.792-3.672.048-1.104.096-1.932.144-2.484l.072-1.26.108-2.412c0-.12-.036-.192-.108-.216-.096-.048-.18-.048-.252 0-.048.024-.084.072-.108.144l-2.16 3.96c-.312.552-.828 1.356-1.548 2.412-.312.456-.636.756-.972.9-.432.192-.828.288-1.188.288a1.89 1.89 0 01-1.008-.288c-.312-.192-.564-.48-.756-.864a4.633 4.633 0 01-.54-1.656 12.405 12.405 0 01-.144-2.016c0-.456.048-1.14.144-2.052l.072-.72c.096-1.008.192-1.764.288-2.268.144-.984.42-1.728.828-2.232.216-.24.444-.36.684-.36.312 0 .552.192.72.576.144.384.216.792.216 1.224l.072 6.444c0 .192.024.48.072.864.024.12.096.216.216.288a.456.456 0 00.396-.036c.408-.336.696-.612.864-.828.648-.744 1.32-1.74 2.016-2.988l.648-1.116a47.583 47.583 0 001.656-2.916c.456-.84.84-1.716 1.152-2.628l.108-.288c.168-.312.444-.504.828-.576.168-.024.336.048.504.216.192.144.324.312.396.504.072.216.108.456.108.72v1.188c0 .552-.012.96-.036 1.224l-.144 2.52c-.192 3.408-.3 5.964-.324 7.668 0 .072-.012.156-.036.252 0 .096.012.216.036.36.024.144.036.336.036.576.024.216.06.396.108.54.072.144.204.24.396.288.192.048.348.012.468-.108.12-.12.228-.264.324-.432a2.96 2.96 0 01.252-.432 21.99 21.99 0 002.484-3.924c.576-1.128 1.344-2.412 2.304-3.852l.648-.864c.168-.216.336-.276.504-.18.144.072.216.168.216.288 0 .024-.036.144-.108.36-.84 1.32-1.344 2.136-1.512 2.448l-2.268 4.212-.576 1.08c-.456.888-1.104 1.896-1.944 3.024zm16.141 2.196c-.504-.168-.864-.564-1.08-1.188-.672-1.56-1.08-2.796-1.224-3.708a12.477 12.477 0 01-.216-2.304c0-.576.06-1.248.18-2.016.096-.48.144-.84.144-1.08 0-.24-.024-.42-.072-.54a1.178 1.178 0 00-.288-.072c-.12 0-.24.036-.36.108a1.53 1.53 0 00-.216.144c-.864.528-2.208 1.2-4.032 2.016l-.54.252c-.504.24-.768.636-.792 1.188-.024.648-.108 1.596-.252 2.844-.048.432-.096.732-.144.9-.096.336-.228.576-.396.72-.168.144-.42.216-.756.216-.72 0-1.152-.336-1.296-1.008-.12-.768-.18-1.464-.18-2.088.048-3.072.096-5.376.144-6.912l.072-3.456c0-.384.096-.72.288-1.008.264-.384.564-.576.9-.576.576 0 .948.252 1.116.756.12.36.18.696.18 1.008 0 .48.048 1.176.144 2.088.096 1.056.144 1.848.144 2.376 0 .288-.024.696-.072 1.224v.072c0 .216.06.372.18.468.144.096.3.096.468 0l1.044-.432a54.68 54.68 0 001.548-.648c.84-.384 1.596-.804 2.268-1.26.936-.6 1.536-1.38 1.8-2.34.192-.672.516-1.56.972-2.664.216-.552.528-.936.936-1.152a.646.646 0 01.324-.108c.144 0 .264.048.36.144.12.096.192.216.216.36v.36c0 .36-.012.636-.036.828l-.828 6.264c-.048.36-.072.888-.072 1.584 0 .672.048 1.704.144 3.096l.108.792c.048.384.072.66.072.828.048.504.168.936.36 1.296.096.168.228.252.396.252.144 0 .264-.06.36-.18.576-.696 1.02-1.356 1.332-1.98 1.176-2.28 2.196-4.896 3.06-7.848l.396-1.116c.072-.12.204-.18.396-.18.12 0 .216.048.288.144a.25.25 0 01.072.252c0 .528-.06.972-.18 1.332a60.802 60.802 0 01-3.852 10.08 2.902 2.902 0 01-.252.468c-.096.144-.18.3-.252.468-.432.744-1.08 1.116-1.944 1.116a3.89 3.89 0 01-1.08-.18zm18.593-2.196c-.384.504-.9.756-1.548.756-.672 0-1.212-.288-1.62-.864-.096-.12-.228-.384-.396-.792-.528-1.344-.792-2.568-.792-3.672.048-1.104.096-1.932.144-2.484l.072-1.26.108-2.412c0-.12-.036-.192-.108-.216-.096-.048-.18-.048-.252 0-.048.024-.084.072-.108.144l-2.16 3.96c-.312.552-.828 1.356-1.548 2.412-.312.456-.636.756-.972.9-.432.192-.828.288-1.188.288a1.89 1.89 0 01-1.008-.288c-.312-.192-.564-.48-.756-.864a4.633 4.633 0 01-.54-1.656 12.405 12.405 0 01-.144-2.016c0-.456.048-1.14.144-2.052l.072-.72c.096-1.008.192-1.764.288-2.268.144-.984.42-1.728.828-2.232.216-.24.444-.36.684-.36.312 0 .552.192.72.576.144.384.216.792.216 1.224l.072 6.444c0 .192.024.48.072.864.024.12.096.216.216.288a.456.456 0 00.396-.036c.408-.336.696-.612.864-.828.648-.744 1.32-1.74 2.016-2.988l.648-1.116a47.583 47.583 0 001.656-2.916c.456-.84.84-1.716 1.152-2.628l.108-.288c.168-.312.444-.504.828-.576.168-.024.336.048.504.216.192.144.324.312.396.504.072.216.108.456.108.72v1.188c0 .552-.012.96-.036 1.224l-.144 2.52c-.192 3.408-.3 5.964-.324 7.668 0 .072-.012.156-.036.252 0 .096.012.216.036.36.024.144.036.336.036.576.024.216.06.396.108.54.072.144.204.24.396.288.192.048.348.012.468-.108.12-.12.228-.264.324-.432a2.96 2.96 0 01.252-.432 21.99 21.99 0 002.484-3.924c.576-1.128 1.344-2.412 2.304-3.852l.648-.864c.168-.216.336-.276.504-.18.144.072.216.168.216.288 0 .024-.036.144-.108.36-.84 1.32-1.344 2.136-1.512 2.448l-2.268 4.212-.576 1.08c-.456.888-1.104 1.896-1.944 3.024zm8.87-18.648c-.624-.792-.9-1.74-.828-2.844a3 3 0 01.108-.684c.072-.264.252-.42.54-.468.264 0 .432.156.504.468l.288.9.216.684c.12.336.264.6.432.792.168.192.42.288.756.288.312 0 .552-.084.72-.252.168-.168.348-.42.54-.756l.288-.72c.12-.36.204-.588.252-.684.048-.216.168-.432.36-.648.144-.144.276-.168.396-.072.12.048.192.108.216.18.024.12.036.3.036.54 0 .864-.312 1.872-.936 3.024-.168.312-.456.576-.864.792a2.7 2.7 0 01-1.224.288c-.768 0-1.368-.276-1.8-.828zm8.568 18.648c-.384.504-.9.756-1.548.756-.672 0-1.212-.288-1.62-.864-.096-.12-.228-.384-.396-.792-.528-1.344-.792-2.568-.792-3.672.048-1.104.096-1.932.144-2.484l.072-1.26.108-2.412c0-.12-.036-.192-.108-.216-.096-.048-.18-.048-.252 0-.048.024-.084.072-.108.144l-2.16 3.96c-.312.552-.828 1.356-1.548 2.412-.312.456-.636.756-.972.9-.432.192-.828.288-1.188.288a1.89 1.89 0 01-1.008-.288c-.312-.192-.564-.48-.756-.864a4.633 4.633 0 01-.54-1.656 12.405 12.405 0 01-.144-2.016c0-.456.048-1.14.144-2.052l.072-.72c.096-1.008.192-1.764.288-2.268.144-.984.42-1.728.828-2.232.216-.24.444-.36.684-.36.312 0 .552.192.72.576.144.384.216.792.216 1.224l.072 6.444c0 .192.024.48.072.864.024.12.096.216.216.288a.456.456 0 00.396-.036c.408-.336.696-.612.864-.828.648-.744 1.32-1.74 2.016-2.988l.648-1.116a47.583 47.583 0 001.656-2.916c.456-.84.84-1.716 1.152-2.628l.108-.288c.168-.312.444-.504.828-.576.168-.024.336.048.504.216.192.144.324.312.396.504.072.216.108.456.108.72v1.188c0 .552-.012.96-.036 1.224l-.144 2.52c-.192 3.408-.3 5.964-.324 7.668 0 .072-.012.156-.036.252 0 .096.012.216.036.36.024.144.036.336.036.576.024.216.06.396.108.54.072.144.204.24.396.288.192.048.348.012.468-.108.12-.12.228-.264.324-.432a2.96 2.96 0 01.252-.432 21.99 21.99 0 002.484-3.924c.576-1.128 1.344-2.412 2.304-3.852l.648-.864c.168-.216.336-.276.504-.18.144.072.216.168.216.288 0 .024-.036.144-.108.36-.84 1.32-1.344 2.136-1.512 2.448l-2.268 4.212-.576 1.08c-.456.888-1.104 1.896-1.944 3.024zM155.703 43.62a4.32 4.32 0 01-.612.072c-.384 0-.732-.084-1.044-.252a1.727 1.727 0 01-.684-.756 1.917 1.917 0 01-.216-.864c0-.48.216-.972.648-1.476.24-.288.468-.384.684-.288.216.096.324.24.324.432 0 .096-.024.216-.072.36l-.072.216-.072.144c-.024.264.024.48.144.648a.682.682 0 00.54.252l.288-.072c3.072-1.128 5.28-1.872 6.624-2.232 1.368-.36 2.532-.516 3.492-.468.576.048 1.032.264 1.368.648.336.384.492.888.468 1.512 0 .072-.012.156-.036.252l-.072.216c-.12.312-.3.48-.54.504l-.144.036c-.24 0-.396-.132-.468-.396 0-.024-.012-.036-.036-.036-.024-.024-.036-.06-.036-.108-.264-.624-.816-.936-1.656-.936-.528 0-1.164.108-1.908.324-.72.216-1.656.54-2.808.972-1.848.648-3.216 1.08-4.104 1.296zm13.392 19.08c-.408.48-.912.72-1.512.72-.384 0-.744-.108-1.08-.324-.312-.192-.552-.48-.72-.864-.312-.744-.504-1.572-.576-2.484a22.058 22.058 0 01-.108-2.196c0-1.728.18-3.432.54-5.112.288-1.536.492-2.688.612-3.456l.36-2.016c.024-.024 0-.06-.072-.108-.696.408-1.284 1.044-1.764 1.908a142.025 142.025 0 00-2.232 3.744 33.223 33.223 0 00-1.44 2.772c-.096.168-.204.348-.324.54a5.93 5.93 0 00-.324.504c-.264.504-.744.756-1.44.756-.312 0-.576-.048-.792-.144-.192-.12-.348-.312-.468-.576a3.738 3.738 0 01-.324-1.152 12.275 12.275 0 01-.072-.756l-.072-1.332c0-.216-.084-.324-.252-.324-.168.048-.288.12-.36.216-.408.6-.78 1.284-1.116 2.052a43.309 43.309 0 01-.648 1.44 40.33 40.33 0 01-.792 1.728l-.396.864c-.288.72-.792 1.08-1.512 1.08-.6 0-1.044-.12-1.332-.36-.288-.264-.492-.696-.612-1.296-.12-.552-.18-1.212-.18-1.98 0-.576.024-1.008.072-1.296.192-1.824.348-3.192.468-4.104.144-.936.336-1.896.576-2.88.096-.384.228-.816.396-1.296.144-.288.288-.492.432-.612.312-.312.576-.408.792-.288.456.144.684.384.684.72.024.384.012.936-.036 1.656l-.18 2.304c-.192 2.304-.3 4.032-.324 5.184 0 .216.072.324.216.324.096 0 .168-.048.216-.144l1.8-3.132c.192-.336.588-.972 1.188-1.908.192-.264.432-.516.72-.756.288-.216.564-.324.828-.324.432 0 .78.24 1.044.72.072.168.12.36.144.576l.108.432c.072.312.12.6.144.864.024.24.048.444.072.612.072.12.144.18.216.18a.32.32 0 00.144.036.235.235 0 00.108-.108c.624-.888.972-1.38 1.044-1.476.576-.96 1.488-2.376 2.736-4.248l.54-.792c.576-.816 1.26-1.62 2.052-2.412.264-.264.528-.48.792-.648.312-.192.6-.288.864-.288.24 0 .468.084.684.252.24.168.42.396.54.684.216.432.324.816.324 1.152v1.044c0 .936-.036 1.644-.108 2.124 0 .096-.144 1.044-.432 2.844-.456 2.64-.684 4.752-.684 6.336l-.036.828c0 .312.048.6.144.864.048.12.108.192.18.216.144 0 .228-.036.252-.108.456-.624.708-.996.756-1.116 1.824-3.192 3.252-6.276 4.284-9.252.096-.312.24-.636.432-.972.024-.048.084-.084.18-.108a.631.631 0 01.18-.072c.144 0 .24.096.288.288.024.072.036.18.036.324 0 .192-.072.48-.216.864-.72 2.16-1.296 3.768-1.728 4.824-.408 1.008-1.068 2.52-1.98 4.536l-.684 1.512c-.384.96-.804 1.692-1.26 2.196zm7.151-18.252c-.336 0-.576-.144-.72-.432-.096-.288-.144-.516-.144-.684 0-.168.036-.336.108-.504a.88.88 0 01.324-.396.827.827 0 01.468-.144c.24 0 .432.096.576.288.144.168.204.396.18.684-.024.096-.06.216-.108.36-.024.12-.06.264-.108.432-.072.216-.264.348-.576.396zm2.808.072a.534.534 0 01-.36-.252 1.008 1.008 0 01-.144-.504c0-.336.144-.672.432-1.008.168-.216.36-.324.576-.324.216 0 .384.072.504.216.12.12.192.288.216.504v.36a.501.501 0 00-.036.216.83.83 0 01-.072.288c-.072.192-.228.336-.468.432-.216.096-.432.12-.648.072zm-4.968 16.452c-.456-.096-.888-.408-1.296-.936-.816-1.104-1.26-2.208-1.332-3.312-.048-.48-.072-.828-.072-1.044a4.282 4.282 0 01-.036-.648c0-.48.06-.936.18-1.368.12-.456.312-1.044.576-1.764.576-1.704 1.416-3.12 2.52-4.248.336-.336.888-.744 1.656-1.224.408-.24.876-.36 1.404-.36.456 0 .912.096 1.368.288.456.168.84.396 1.152.684a2.2 2.2 0 01.72 1.656c0 .24-.012.42-.036.54-.144.84-.492 1.632-1.044 2.376a6.06 6.06 0 01-1.908 1.764c-.72.432-1.428.648-2.124.648h-.144c-.216 0-.372.048-.468.144-.072.096-.12.276-.144.54-.024.192-.036.48-.036.864 0 .816.096 1.524.288 2.124.12.384.264.636.432.756.192.12.54.18 1.044.18.528 0 1.104-.156 1.728-.468.744-.408 1.44-.972 2.088-1.692 1.272-1.488 2.256-2.748 2.952-3.78.6-.888 1.524-2.196 2.772-3.924.072-.12.156-.228.252-.324a.448.448 0 01.324-.144c.216 0 .324.108.324.324 0 .192-.072.396-.216.612a332.523 332.523 0 01-3.852 5.904c-.552.888-1.356 1.968-2.412 3.24-.864 1.032-1.992 1.836-3.384 2.412-.552.24-1.164.36-1.836.36a6.55 6.55 0 01-1.44-.18zm2.016-8.244c.408 0 .876-.204 1.404-.612a7.247 7.247 0 001.368-1.476c.408-.552.612-1.008.612-1.368 0-.312-.072-.552-.216-.72a.595.595 0 00-.54-.288.959.959 0 00-.432.108 2.7 2.7 0 00-.504.288c-.576.384-.996.828-1.26 1.332-.264.504-.588 1.26-.972 2.268v.072c0 .096.06.192.18.288.12.072.24.108.36.108zm25.265 8.316a3.125 3.125 0 01-.828-1.404c-.408-1.296-.612-2.568-.612-3.816 0-.576.036-1.128.108-1.656.24-1.8.648-3.708 1.224-5.724.024-.096.036-.204.036-.324 0-.12.012-.216.036-.288 0-.072-.024-.108-.072-.108-.12-.048-.204-.048-.252 0a2.052 2.052 0 00-.54.648l-.216.432-2.124 4.32c-.336.72-.6 1.26-.792 1.62-.24.456-.636.732-1.188.828-.312.072-.6.108-.864.108-.624 0-1.164-.168-1.62-.504-.432-.36-.816-.924-1.152-1.692a9.696 9.696 0 01-.756-3.24c0-.144-.096-.216-.288-.216-.216 0-.36.096-.432.288a64.36 64.36 0 00-.936 1.944c-1.44 2.928-2.22 4.5-2.34 4.716-.336.624-.78 1.008-1.332 1.152-.408.12-.732.18-.972.18-.768 0-1.356-.42-1.764-1.26-.288-.504-.432-1.116-.432-1.836 0-.384.036-.756.108-1.116l.108-.252c.168-.312.372-.468.612-.468.36 0 .564.204.612.612.048.48.072.828.072 1.044.024.408.168.78.432 1.116.168.168.324.252.468.252.12 0 .228-.048.324-.144.456-.576.732-.936.828-1.08.48-1.032 1.428-3.024 2.844-5.976s2.424-4.98 3.024-6.084c.192-.288.432-.432.72-.432.168 0 .324.06.468.18.168.096.288.24.36.432.072.192.12.408.144.648.048.24.084.408.108.504l1.044 5.76c.024.096.036.24.036.432.024.192.072.348.144.468.072.12.192.192.36.216h.108c.168 0 .324-.096.468-.288.144-.192.252-.324.324-.396.936-1.08 2.064-2.616 3.384-4.608l1.44-2.088c.24-.312.456-.54.648-.684a.842.842 0 01.72-.108c.624.144.936.66.936 1.548 0 1.104-.084 2.148-.252 3.132-.192.936-.384 1.908-.576 2.916a33.183 33.183 0 00-.36 2.736 34.217 34.217 0 00-.072 1.836c0 .936.084 1.812.252 2.628a.8.8 0 00.108.252c.048.072.096.108.144.108.312 0 1.116-1.02 2.412-3.06a120.22 120.22 0 003.528-5.976.909.909 0 00.108-.216c.048-.096.108-.192.18-.288.048-.072.108-.156.18-.252a.78.78 0 01.216-.252.39.39 0 01.288-.108c.24 0 .36.12.36.36 0 .168-.072.396-.216.684-.504.936-.804 1.488-.9 1.656-.12.216-.264.468-.432.756-.144.264-.3.564-.468.9l-1.836 3.6c-1.032 2.016-1.656 3.216-1.872 3.6-.36.624-.756 1.08-1.188 1.368-.408.288-.816.432-1.224.432-.48 0-.852-.156-1.116-.468zm18.986.792c-.504-.168-.864-.564-1.08-1.188-.672-1.56-1.08-2.796-1.224-3.708a12.477 12.477 0 01-.216-2.304c0-.576.06-1.248.18-2.016.096-.48.144-.84.144-1.08 0-.24-.024-.42-.072-.54a1.178 1.178 0 00-.288-.072c-.12 0-.24.036-.36.108a1.53 1.53 0 00-.216.144c-.864.528-2.208 1.2-4.032 2.016l-.54.252c-.504.24-.768.636-.792 1.188-.024.648-.108 1.596-.252 2.844-.048.432-.096.732-.144.9-.096.336-.228.576-.396.72-.168.144-.42.216-.756.216-.72 0-1.152-.336-1.296-1.008-.12-.768-.18-1.464-.18-2.088.048-3.072.096-5.376.144-6.912l.072-3.456c0-.384.096-.72.288-1.008.264-.384.564-.576.9-.576.576 0 .948.252 1.116.756.12.36.18.696.18 1.008 0 .48.048 1.176.144 2.088.096 1.056.144 1.848.144 2.376 0 .288-.024.696-.072 1.224v.072c0 .216.06.372.18.468.144.096.3.096.468 0l1.044-.432a54.68 54.68 0 001.548-.648c.84-.384 1.596-.804 2.268-1.26.936-.6 1.536-1.38 1.8-2.34.192-.672.516-1.56.972-2.664.216-.552.528-.936.936-1.152a.646.646 0 01.324-.108c.144 0 .264.048.36.144.12.096.192.216.216.36v.36c0 .36-.012.636-.036.828l-.828 6.264c-.048.36-.072.888-.072 1.584 0 .672.048 1.704.144 3.096l.108.792c.048.384.072.66.072.828.048.504.168.936.36 1.296.096.168.228.252.396.252.144 0 .264-.06.36-.18.576-.696 1.02-1.356 1.332-1.98 1.176-2.28 2.196-4.896 3.06-7.848l.396-1.116c.072-.12.204-.18.396-.18.12 0 .216.048.288.144a.25.25 0 01.072.252c0 .528-.06.972-.18 1.332a60.802 60.802 0 01-3.852 10.08 2.902 2.902 0 01-.252.468c-.096.144-.18.3-.252.468-.432.744-1.08 1.116-1.944 1.116a3.89 3.89 0 01-1.08-.18zm9.125-.432c-1.296-.048-2.268-.576-2.916-1.584-.528-.816-.792-1.824-.792-3.024 0-1.752.288-3.36.864-4.824.216-.528.288-1.152.216-1.872a3.658 3.658 0 01-.036-.576c0-1.08.324-2.004.972-2.772.648-.792 1.488-1.296 2.52-1.512.096-.024.228-.036.396-.036.6 0 1.176.216 1.728.648.552.432.96.864 1.224 1.296.312.6.552 1.104.72 1.512.168.408.288.84.36 1.296.096.744.288 1.116.576 1.116.12 0 .276-.048.468-.144.216-.096.384-.168.504-.216.552-.24 1.38-.624 2.484-1.152l1.476-.684c.264-.12.66-.324 1.188-.612a1.63 1.63 0 01.576-.108c.144 0 .264.072.36.216a.666.666 0 010 .432.991.991 0 01-.468.36l-1.692.864a188.172 188.172 0 01-4.464 2.232c-.312.144-.552.324-.72.54-.144.192-.24.456-.288.792-.144 1.584-.588 3.168-1.332 4.752a6.875 6.875 0 01-1.476 2.052c-.696.672-1.512 1.008-2.448 1.008zm2.556-9.72c.12-.024.276-.036.468-.036s.408-.024.648-.072c.384-.024.576-.264.576-.72 0-1.344-.564-2.58-1.692-3.708-.36-.36-.732-.54-1.116-.54-.312 0-.66.108-1.044.324-.696.36-1.164.972-1.404 1.836v.144c0 .192.072.3.216.324 1.008.144 1.44.696 1.296 1.656V51c0 .24.168.408.504.504l1.548.18zm-1.368 7.236c.48-.168.936-.54 1.368-1.116a6.33 6.33 0 00.972-1.872c.24-.672.444-1.488.612-2.448v-.072a.488.488 0 00-.504-.504l-1.728.036c-.264 0-.684-.024-1.26-.072a1.092 1.092 0 00-.324-.036.48.48 0 00-.396.18c-.072.12-.132.312-.18.576-.048.24-.168 1.092-.36 2.556l.108.792c.048.552.144 1.008.288 1.368.216.48.504.72.864.72.192 0 .372-.036.54-.108zm15.961-10.08a17.09 17.09 0 01-1.296.072c-.696 0-1.26-.072-1.692-.216a2.375 2.375 0 01-.396-.144c-.072-.072-.108-.18-.108-.324 0-.216.144-.396.432-.54a3.585 3.585 0 011.62-.396H249.003c1.32 0 2.388.084 3.204.252.072.024.168.048.288.072.12.024.216.06.288.108.216.096.324.252.324.468a.479.479 0 01-.108.288.35.35 0 01-.216.144 6.832 6.832 0 01-1.188.108l-2.016-.036a26.99 26.99 0 00-2.952.144zm10.981 10.296c-.264-.144-.456-.3-.576-.468-.696-1.056-1.044-2.004-1.044-2.844 0-.12.024-.348.072-.684.432-2.016.792-3.516 1.08-4.5.72-2.256 1.992-4.152 3.816-5.688.696-.6 1.524-1.044 2.484-1.332.216-.072.444-.108.684-.108.6 0 1.116.204 1.548.612.432.384.648.888.648 1.512 0 .216-.036.456-.108.72-.144.48-.3.888-.468 1.224a2.177 2.177 0 01-.72.828c-.024.024-.06.036-.108.036a.32.32 0 01-.144-.036.235.235 0 01-.108-.108.32.32 0 01-.036-.144l.468-1.728.036-.18c0-.12-.06-.24-.18-.36a.646.646 0 00-.324-.108.488.488 0 00-.36.144c-1.296 1.008-2.292 2.424-2.988 4.248l-.288.756c-.528 1.32-.84 2.352-.936 3.096-.096.624-.132 1.08-.108 1.368v.576c.072.456.312.636.72.54.984-.312 1.836-.732 2.556-1.26 1.152-.84 2.364-1.956 3.636-3.348.6-.624 1.476-1.584 2.628-2.88.408-.456.804-.768 1.188-.936a.618.618 0 01.252-.036.39.39 0 01.288.108c.216.168.264.348.144.54-.24.48-.456.816-.648 1.008a37.096 37.096 0 00-2.268 2.484c-.24.24-.72.756-1.44 1.548a33.116 33.116 0 01-2.088 2.052c-.24.192-.6.504-1.08.936-1.176 1.032-2.1 1.752-2.772 2.16-.552.36-1.176.54-1.872.54-.48 0-1.008-.096-1.584-.288zm24.791.504c-.384.504-.9.756-1.548.756-.672 0-1.212-.288-1.62-.864-.096-.12-.228-.384-.396-.792-.528-1.344-.792-2.568-.792-3.672.048-1.104.096-1.932.144-2.484l.072-1.26.108-2.412c0-.12-.036-.192-.108-.216-.096-.048-.18-.048-.252 0-.048.024-.084.072-.108.144l-2.16 3.96c-.312.552-.828 1.356-1.548 2.412-.312.456-.636.756-.972.9-.432.192-.828.288-1.188.288a1.89 1.89 0 01-1.008-.288c-.312-.192-.564-.48-.756-.864a4.633 4.633 0 01-.54-1.656 12.405 12.405 0 01-.144-2.016c0-.456.048-1.14.144-2.052l.072-.72c.096-1.008.192-1.764.288-2.268.144-.984.42-1.728.828-2.232.216-.24.444-.36.684-.36.312 0 .552.192.72.576.144.384.216.792.216 1.224l.072 6.444c0 .192.024.48.072.864.024.12.096.216.216.288a.456.456 0 00.396-.036c.408-.336.696-.612.864-.828.648-.744 1.32-1.74 2.016-2.988l.648-1.116a47.583 47.583 0 001.656-2.916c.456-.84.84-1.716 1.152-2.628l.108-.288c.168-.312.444-.504.828-.576.168-.024.336.048.504.216.192.144.324.312.396.504.072.216.108.456.108.72v1.188c0 .552-.012.96-.036 1.224l-.144 2.52c-.192 3.408-.3 5.964-.324 7.668 0 .072-.012.156-.036.252 0 .096.012.216.036.36.024.144.036.336.036.576.024.216.06.396.108.54.072.144.204.24.396.288.192.048.348.012.468-.108.12-.12.228-.264.324-.432a2.96 2.96 0 01.252-.432 21.99 21.99 0 002.484-3.924c.576-1.128 1.344-2.412 2.304-3.852l.648-.864c.168-.216.336-.276.504-.18.144.072.216.168.216.288 0 .024-.036.144-.108.36-.84 1.32-1.344 2.136-1.512 2.448l-2.268 4.212-.576 1.08c-.456.888-1.104 1.896-1.944 3.024zm16.142 2.196c-.504-.168-.864-.564-1.08-1.188-.672-1.56-1.08-2.796-1.224-3.708a12.477 12.477 0 01-.216-2.304c0-.576.06-1.248.18-2.016.096-.48.144-.84.144-1.08 0-.24-.024-.42-.072-.54a1.178 1.178 0 00-.288-.072c-.12 0-.24.036-.36.108a1.53 1.53 0 00-.216.144c-.864.528-2.208 1.2-4.032 2.016l-.54.252c-.504.24-.768.636-.792 1.188-.024.648-.108 1.596-.252 2.844-.048.432-.096.732-.144.9-.096.336-.228.576-.396.72-.168.144-.42.216-.756.216-.72 0-1.152-.336-1.296-1.008-.12-.768-.18-1.464-.18-2.088.048-3.072.096-5.376.144-6.912l.072-3.456c0-.384.096-.72.288-1.008.264-.384.564-.576.9-.576.576 0 .948.252 1.116.756.12.36.18.696.18 1.008 0 .48.048 1.176.144 2.088.096 1.056.144 1.848.144 2.376 0 .288-.024.696-.072 1.224v.072c0 .216.06.372.18.468.144.096.3.096.468 0l1.044-.432a54.68 54.68 0 001.548-.648c.84-.384 1.596-.804 2.268-1.26.936-.6 1.536-1.38 1.8-2.34.192-.672.516-1.56.972-2.664.216-.552.528-.936.936-1.152a.646.646 0 01.324-.108c.144 0 .264.048.36.144.12.096.192.216.216.36v.36c0 .36-.012.636-.036.828l-.828 6.264c-.048.36-.072.888-.072 1.584 0 .672.048 1.704.144 3.096l.108.792c.048.384.072.66.072.828.048.504.168.936.36 1.296.096.168.228.252.396.252.144 0 .264-.06.36-.18.576-.696 1.02-1.356 1.332-1.98 1.176-2.28 2.196-4.896 3.06-7.848l.396-1.116c.072-.12.204-.18.396-.18.12 0 .216.048.288.144a.25.25 0 01.072.252c0 .528-.06.972-.18 1.332a60.802 60.802 0 01-3.852 10.08 2.902 2.902 0 01-.252.468c-.096.144-.18.3-.252.468-.432.744-1.08 1.116-1.944 1.116a3.89 3.89 0 01-1.08-.18zm18.593-2.196c-.384.504-.9.756-1.548.756-.672 0-1.212-.288-1.62-.864-.096-.12-.228-.384-.396-.792-.528-1.344-.792-2.568-.792-3.672.048-1.104.096-1.932.144-2.484l.072-1.26.108-2.412c0-.12-.036-.192-.108-.216-.096-.048-.18-.048-.252 0-.048.024-.084.072-.108.144l-2.16 3.96c-.312.552-.828 1.356-1.548 2.412-.312.456-.636.756-.972.9-.432.192-.828.288-1.188.288a1.89 1.89 0 01-1.008-.288c-.312-.192-.564-.48-.756-.864a4.633 4.633 0 01-.54-1.656 12.405 12.405 0 01-.144-2.016c0-.456.048-1.14.144-2.052l.072-.72c.096-1.008.192-1.764.288-2.268.144-.984.42-1.728.828-2.232.216-.24.444-.36.684-.36.312 0 .552.192.72.576.144.384.216.792.216 1.224l.072 6.444c0 .192.024.48.072.864.024.12.096.216.216.288a.456.456 0 00.396-.036c.408-.336.696-.612.864-.828.648-.744 1.32-1.74 2.016-2.988l.648-1.116a47.583 47.583 0 001.656-2.916c.456-.84.84-1.716 1.152-2.628l.108-.288c.168-.312.444-.504.828-.576.168-.024.336.048.504.216.192.144.324.312.396.504.072.216.108.456.108.72v1.188c0 .552-.012.96-.036 1.224l-.144 2.52c-.192 3.408-.3 5.964-.324 7.668 0 .072-.012.156-.036.252 0 .096.012.216.036.36.024.144.036.336.036.576.024.216.06.396.108.54.072.144.204.24.396.288.192.048.348.012.468-.108.12-.12.228-.264.324-.432a2.96 2.96 0 01.252-.432 21.99 21.99 0 002.484-3.924c.576-1.128 1.344-2.412 2.304-3.852l.648-.864c.168-.216.336-.276.504-.18.144.072.216.168.216.288 0 .024-.036.144-.108.36-.84 1.32-1.344 2.136-1.512 2.448l-2.268 4.212-.576 1.08c-.456.888-1.104 1.896-1.944 3.024zm8.869-18.648c-.624-.792-.9-1.74-.828-2.844a3 3 0 01.108-.684c.072-.264.252-.42.54-.468.264 0 .432.156.504.468l.288.9.216.684c.12.336.264.6.432.792.168.192.42.288.756.288.312 0 .552-.084.72-.252.168-.168.348-.42.54-.756l.288-.72c.12-.36.204-.588.252-.684.048-.216.168-.432.36-.648.144-.144.276-.168.396-.072.12.048.192.108.216.18.024.12.036.3.036.54 0 .864-.312 1.872-.936 3.024-.168.312-.456.576-.864.792a2.7 2.7 0 01-1.224.288c-.768 0-1.368-.276-1.8-.828zm8.568 18.648c-.384.504-.9.756-1.548.756-.672 0-1.212-.288-1.62-.864-.096-.12-.228-.384-.396-.792-.528-1.344-.792-2.568-.792-3.672.048-1.104.096-1.932.144-2.484l.072-1.26.108-2.412c0-.12-.036-.192-.108-.216-.096-.048-.18-.048-.252 0-.048.024-.084.072-.108.144l-2.16 3.96c-.312.552-.828 1.356-1.548 2.412-.312.456-.636.756-.972.9-.432.192-.828.288-1.188.288a1.89 1.89 0 01-1.008-.288c-.312-.192-.564-.48-.756-.864a4.633 4.633 0 01-.54-1.656 12.405 12.405 0 01-.144-2.016c0-.456.048-1.14.144-2.052l.072-.72c.096-1.008.192-1.764.288-2.268.144-.984.42-1.728.828-2.232.216-.24.444-.36.684-.36.312 0 .552.192.72.576.144.384.216.792.216 1.224l.072 6.444c0 .192.024.48.072.864.024.12.096.216.216.288a.456.456 0 00.396-.036c.408-.336.696-.612.864-.828.648-.744 1.32-1.74 2.016-2.988l.648-1.116a47.583 47.583 0 001.656-2.916c.456-.84.84-1.716 1.152-2.628l.108-.288c.168-.312.444-.504.828-.576.168-.024.336.048.504.216.192.144.324.312.396.504.072.216.108.456.108.72v1.188c0 .552-.012.96-.036 1.224l-.144 2.52c-.192 3.408-.3 5.964-.324 7.668 0 .072-.012.156-.036.252 0 .096.012.216.036.36.024.144.036.336.036.576.024.216.06.396.108.54.072.144.204.24.396.288.192.048.348.012.468-.108.12-.12.228-.264.324-.432a2.96 2.96 0 01.252-.432 21.99 21.99 0 002.484-3.924c.576-1.128 1.344-2.412 2.304-3.852l.648-.864c.168-.216.336-.276.504-.18.144.072.216.168.216.288 0 .024-.036.144-.108.36-.84 1.32-1.344 2.136-1.512 2.448l-2.268 4.212-.576 1.08c-.456.888-1.104 1.896-1.944 3.024z"/></svg>