<svg width="132" height="181" viewBox="0 0 132 181" fill="none" xmlns="http://www.w3.org/2000/svg">
<path d="M64.5455 129.154C64.5268 129.144 64.5068 129.133 64.4855 129.124C64.4908 129.126 64.4961 129.128 64.5041 129.136C64.5188 129.138 64.5321 129.146 64.5455 129.154Z" fill="#7D7C82"/>
<path d="M64.3801 129.058C64.4095 129.08 64.4401 129.094 64.4695 129.113C64.4761 129.118 64.4815 129.121 64.4855 129.124C64.4535 129.1 64.4135 129.085 64.3801 129.058Z" fill="#7D7C82"/>
<path d="M57.1471 129.686C57.1631 129.672 57.1831 129.658 57.1991 129.642C57.1964 129.642 57.1911 129.65 57.1818 129.652C57.1724 129.662 57.1618 129.672 57.1471 129.686Z" fill="#7D7C82"/>
<path d="M61.2564 123.868C61.251 123.868 61.2444 123.879 61.2417 123.879H61.2444C61.2497 123.873 61.2524 123.873 61.2564 123.868Z" fill="#7D7C82"/>
<path d="M128.719 20.6714C127.891 18.4034 126.855 16.2127 125.575 14.1661C124.256 12.0781 122.723 10.1194 120.991 8.35941C119.009 6.34073 116.771 4.5434 114.315 3.13274C112.857 2.29941 111.325 1.5954 109.723 1.07274C105.847 -0.200592 101.6 -0.401932 97.6787 0.802063C95.6441 1.42874 93.7041 2.37672 91.9681 3.61673C90.0121 5.00739 88.2707 6.6714 86.7841 8.55139C86.4521 8.97139 86.1321 9.3954 85.8227 9.83006C85.6427 9.85674 85.4401 9.93407 85.3334 10.0674C84.8667 10.6661 84.3347 11.1981 83.7401 11.6687C83.1294 12.1167 82.4747 12.4941 81.7801 12.7967C81.1267 13.0541 80.4467 13.2447 79.7534 13.3567C79.1321 13.4314 78.5121 13.4447 77.8921 13.3794C77.3734 13.3047 76.8667 13.1767 76.3814 12.9914C75.9641 12.8114 75.5721 12.5861 75.2014 12.3194C74.8374 12.0261 74.5094 11.6954 74.2187 11.3274C73.9067 10.8981 73.6454 10.4341 73.4334 9.93939C73.1774 9.28073 73.0001 8.5954 72.8947 7.89807C72.8467 7.46074 72.8254 7.02339 72.8681 6.58606C72.9054 6.33806 72.9614 6.09273 73.0467 5.86473C73.1147 5.70473 73.2014 5.55406 73.2974 5.41673C73.3854 5.3114 73.4854 5.21274 73.5921 5.12207C73.7067 5.04607 73.8267 4.97406 73.9587 4.91673C74.1227 4.85674 74.2854 4.81139 74.4574 4.78339C74.6827 4.75673 74.9067 4.75673 75.1307 4.77806C75.4067 4.8194 75.6721 4.88739 75.9334 4.98605C76.1481 5.07806 76.3521 5.19539 76.5427 5.33006C76.6721 5.43939 76.7947 5.55939 76.9041 5.68739C76.9641 5.77272 77.0174 5.86606 77.0641 5.96072C77.0841 6.03273 77.1067 6.10873 77.1214 6.18207C77.1254 6.25406 77.1281 6.32474 77.1254 6.39807C77.1041 6.49406 77.0827 6.58606 77.0507 6.67673C76.9854 6.81673 76.9067 6.95006 76.8147 7.07806C76.8014 7.09273 76.7921 7.10873 76.7774 7.12207C76.6241 7.3074 76.5241 7.49139 76.5241 7.7394C76.5241 7.96339 76.6187 8.17673 76.7734 8.33539C76.9361 8.49672 77.1587 8.59273 77.3921 8.59006C77.5921 8.5874 77.8521 8.50473 77.9854 8.34073C78.1907 8.09807 78.4014 7.83539 78.5361 7.54073C78.6454 7.30206 78.7574 7.04607 78.7961 6.78073C78.8347 6.53139 78.8587 6.29407 78.8267 6.0434C78.7854 5.7314 78.7161 5.47141 78.5867 5.1794C78.3001 4.53273 77.7654 4.03807 77.1507 3.68474C76.8907 3.54074 76.6187 3.41408 76.3454 3.31407C75.4267 2.98074 74.3334 2.92873 73.4201 3.29138C72.9014 3.49405 72.3987 3.79941 72.0467 4.24741C71.8614 4.47673 71.6867 4.71005 71.5627 4.9834C71.4307 5.28073 71.3134 5.58339 71.2481 5.9034C71.0854 6.71007 71.1121 7.51807 71.2347 8.32739C71.3934 9.35674 71.6947 10.3821 72.1881 11.3074C72.6281 12.1447 73.2321 12.9447 73.9854 13.5327C74.3721 13.8327 74.7654 14.1221 75.2107 14.3381C75.6147 14.5327 76.0401 14.7047 76.4694 14.8301C77.3334 15.0781 78.2587 15.1874 79.1534 15.1327C80.0881 15.0754 81.0174 14.9034 81.8974 14.5807C82.4961 14.3621 83.0801 14.1007 83.6374 13.7807C83.5134 14.0701 83.4001 14.3594 83.2921 14.6474C82.4814 16.8274 82.0054 19.1221 81.8307 21.4367C81.4827 26.0861 82.3294 30.8954 84.4481 35.0674C85.4747 37.0927 86.8147 38.9967 88.4601 40.5754C89.2934 41.3741 90.1987 42.1087 91.1681 42.7394C92.1641 43.3874 93.216 43.9261 94.3161 44.3661C95.4427 44.8167 96.6134 45.1554 97.804 45.3661C98.8987 45.5594 100.012 45.6981 101.124 45.6247C103.087 45.4994 105.003 44.9087 106.692 43.9007C110.14 41.8434 112.652 38.4114 113.977 34.6501C114.625 32.8047 114.999 30.8274 114.977 28.8647C114.965 27.9007 114.867 26.9314 114.664 25.9834C114.465 25.0807 114.161 24.2154 113.784 23.3741C113.035 21.7287 112.009 20.1874 110.801 18.8407C110.207 18.1767 109.563 17.5434 108.853 16.9941C108.156 16.4447 107.423 15.9367 106.615 15.5674C106.199 15.3794 105.771 15.1994 105.327 15.0754C104.931 14.9607 104.531 14.8874 104.123 14.8407C103.336 14.7527 102.508 14.8101 101.755 15.0514C100.876 15.3407 100.088 15.7967 99.3987 16.4007C99.0214 16.7394 98.6654 17.1087 98.356 17.5181C97.9947 17.9807 97.6401 18.4527 97.3721 18.9767C96.8014 20.0927 96.4601 21.3301 96.4414 22.5887C96.4227 23.7941 96.6587 24.9967 97.1867 26.0834C97.6974 27.1407 98.4867 28.0807 99.4827 28.7181C100.016 29.0621 100.611 29.3354 101.225 29.4994C101.848 29.6607 102.492 29.7421 103.135 29.7474C103.604 29.7554 103.992 29.3461 103.987 28.8821C103.984 28.4114 103.592 28.0381 103.123 28.0327C102.887 28.0287 102.653 28.0181 102.419 27.9941C101.989 27.9261 101.572 27.8221 101.161 27.6714C100.787 27.5074 100.439 27.3047 100.104 27.0674C99.7854 26.8047 99.5067 26.5181 99.2494 26.1981C98.9947 25.8407 98.7841 25.4687 98.6067 25.0701C98.4174 24.5927 98.2921 24.1034 98.2094 23.6007C98.1467 23.0567 98.1441 22.5154 98.1987 21.9687C98.2814 21.4194 98.4147 20.8874 98.6121 20.3621C98.8601 19.7861 99.1827 19.2527 99.5574 18.7421C99.9401 18.2594 100.365 17.8114 100.852 17.4261C101.176 17.1927 101.519 16.9887 101.884 16.8247C102.212 16.7021 102.547 16.6087 102.895 16.5487C103.268 16.5127 103.649 16.5074 104.025 16.5487C104.528 16.6221 105.016 16.7567 105.489 16.9367C106.244 17.2621 106.94 17.6821 107.593 18.1741C108.631 18.9861 109.544 19.9394 110.351 20.9767C111.167 22.0674 111.868 23.2394 112.407 24.4914C112.765 25.3741 113.008 26.2967 113.151 27.2474C113.296 28.4007 113.291 29.5674 113.159 30.7234C112.967 32.1741 112.581 33.5887 112.041 34.9394C111.447 36.3434 110.692 37.6634 109.775 38.8767C108.972 39.8927 108.069 40.8101 107.048 41.6007C106.231 42.2101 105.353 42.7287 104.42 43.1301C103.579 43.4687 102.709 43.7047 101.817 43.8407C100.928 43.9447 100.043 43.9447 99.1561 43.8487C97.6787 43.6501 96.232 43.2861 94.8454 42.7447C93.5054 42.1847 92.2414 41.4607 91.0827 40.5861C89.8881 39.6447 88.8214 38.5594 87.8907 37.3594C86.8387 35.9581 85.9814 34.4341 85.2947 32.8221C84.5254 30.9287 84.0041 28.9527 83.7067 26.9341C83.4201 24.7621 83.4001 22.5754 83.6454 20.4034C83.9121 18.4087 84.4014 16.4474 85.1481 14.5807C85.4854 13.7781 85.8641 12.9914 86.3027 12.2447C86.7467 11.4741 87.2494 10.7394 87.7921 10.0287C89.1001 8.35406 90.5841 6.81673 92.2694 5.51273C93.5961 4.51273 95.0294 3.66873 96.5574 3.01807C97.9227 2.46873 99.3414 2.08072 100.789 1.86606C102.287 1.67139 103.791 1.66341 105.292 1.82207C107.105 2.05141 108.875 2.52605 110.571 3.19939C112.667 4.07539 114.629 5.23138 116.436 6.59805C118.697 8.34605 120.713 10.3927 122.452 12.6554C124.116 14.8647 125.489 17.2701 126.563 19.8221C127.733 22.6927 128.513 25.6994 128.944 28.7647C129.432 32.4994 129.409 36.2807 128.963 40.0154C128.393 44.4914 127.227 48.8821 125.541 53.0674C124.963 54.4781 124.335 55.8621 123.636 57.2127C122.335 59.7367 120.853 62.1741 119.369 64.5901C117.749 67.2234 116.097 69.8327 114.497 72.4661C111.3 77.7287 108.245 83.1501 106.212 88.9834C105.721 90.4007 105.283 91.8381 104.935 93.3007C104.637 94.5501 104.403 95.8101 104.205 97.0847C103.836 99.4461 103.561 101.839 103.499 104.23C103.487 104.738 103.485 105.246 103.492 105.755C102.123 103.35 100.136 101.313 97.7547 99.8861C97.4401 99.6967 97.1134 99.5327 96.7881 99.3661L95.1227 98.5941C94.0134 98.1461 92.8681 97.7954 91.6894 97.5527C90.5187 97.3154 89.3321 97.2461 88.1414 97.2901C87.0201 97.3261 85.9307 97.5447 84.8587 97.8674C82.7987 98.4847 80.9214 99.7087 79.4254 101.243C78.6054 102.079 77.8881 102.998 77.2681 103.99C76.6214 105.03 76.0854 106.131 75.6414 107.269C75.1974 108.394 74.8681 109.563 74.6227 110.743C74.3867 111.873 74.2787 113.03 74.3014 114.189C74.3094 114.779 74.3467 115.361 74.4267 115.946C74.5147 116.566 74.6707 117.17 74.8494 117.771C75.1787 118.897 75.7414 119.949 76.4281 120.889C76.7934 121.381 77.2161 121.815 77.6521 122.241C78.0521 122.626 78.4947 122.97 78.9614 123.269C79.8814 123.861 80.8774 124.263 81.9374 124.514C83.8721 124.977 85.9134 124.81 87.7654 124.115C88.6614 123.785 89.5147 123.277 90.2347 122.657C91.0014 121.998 91.6134 121.181 92.0254 120.254C92.4454 119.318 92.5574 118.293 92.5041 117.279C92.4694 116.722 92.3414 116.178 92.1801 115.649C91.9974 115.039 91.7427 114.467 91.4414 113.91C91.3081 113.673 91.1521 113.482 90.8907 113.378C90.6361 113.271 90.3494 113.282 90.0987 113.394C89.6254 113.599 89.3094 114.246 89.5787 114.733C89.8601 115.251 90.0947 115.779 90.2761 116.342C90.3947 116.785 90.4681 117.23 90.4947 117.691C90.4921 118.087 90.4481 118.47 90.3667 118.855C90.2641 119.197 90.1321 119.527 89.9667 119.847C89.7561 120.189 89.5187 120.503 89.2467 120.801C88.8934 121.146 88.5067 121.443 88.0894 121.709C87.5654 122.006 87.0134 122.251 86.4334 122.425C85.7427 122.615 85.0334 122.722 84.3161 122.749C83.6187 122.746 82.9241 122.665 82.2427 122.509C81.6174 122.337 81.0134 122.099 80.4401 121.793C79.8814 121.465 79.3694 121.071 78.9001 120.634C78.4134 120.142 77.9894 119.607 77.6201 119.033C77.2454 118.383 76.9481 117.703 76.7227 116.993C76.4827 116.102 76.3574 115.191 76.3201 114.269C76.3107 112.935 76.4841 111.613 76.7934 110.318C77.2187 108.678 77.8401 107.097 78.6601 105.615C79.2787 104.555 80.0027 103.563 80.8521 102.675C81.548 101.979 82.3201 101.363 83.1561 100.845C83.9481 100.381 84.7841 100.011 85.6561 99.7407C86.6041 99.4754 87.5774 99.3394 88.5587 99.2981C89.7361 99.2901 90.9001 99.4381 92.048 99.7087C92.856 99.9181 93.6441 100.189 94.4174 100.506C94.5267 100.605 94.6561 100.691 94.8054 100.722C94.8334 100.733 94.868 100.725 94.8987 100.73C95.3841 100.943 95.8734 101.146 96.3401 101.405C97.4094 102.019 98.4041 102.754 99.3 103.605C100.151 104.451 100.9 105.386 101.527 106.407C102.168 107.495 102.669 108.654 103.035 109.863C103.435 111.266 103.645 112.719 103.695 114.181C103.716 115.902 103.513 117.615 103.101 119.287C102.64 121.022 101.967 122.686 101.096 124.254C100.252 125.703 99.2481 127.042 98.0921 128.251C96.9641 129.394 95.7081 130.394 94.3441 131.241C92.9787 132.042 91.5294 132.665 90.0187 133.129C87.9507 133.719 85.8107 133.99 83.6654 134.047C80.1587 134.079 76.6747 133.539 73.2801 132.691C71.7827 132.309 70.3067 131.863 68.8747 131.282C67.3907 130.678 65.9681 129.946 64.5721 129.173C64.5827 129.178 64.5961 129.183 64.6107 129.189C64.5934 129.183 64.5774 129.173 64.5601 129.162C64.5587 129.162 64.5574 129.162 64.5547 129.159C64.5387 129.149 64.5214 129.142 64.5041 129.137C64.4921 129.123 64.4814 129.121 64.4694 129.113C63.1987 128.389 61.9454 127.639 60.6907 126.894C62.1454 125.755 63.5867 124.605 64.9494 123.347C65.3561 122.97 65.2894 122.269 64.9081 121.905C64.7067 121.722 64.4347 121.621 64.1654 121.634C63.8867 121.643 63.6641 121.766 63.4641 121.946C62.7467 122.61 62.0121 123.249 61.2561 123.867C61.2641 123.861 61.2787 123.853 61.2947 123.845C61.2774 123.855 61.2641 123.866 61.2454 123.878C61.2454 123.878 61.2427 123.883 61.2374 123.886C61.2374 123.878 61.2401 123.878 61.2427 123.878C61.2427 123.878 61.2347 123.881 61.2347 123.886C61.2107 123.902 61.1867 123.925 61.1641 123.941C60.3841 124.577 59.5881 125.186 58.7961 125.803C57.8094 125.246 56.8174 124.701 55.8001 124.206C55.3001 123.962 54.6694 124.282 54.4747 124.766C54.3734 125.025 54.3774 125.313 54.4881 125.558C54.6014 125.815 54.7961 125.977 55.0387 126.097C55.7321 126.433 56.4107 126.798 57.0854 127.167C56.2134 127.855 55.3374 128.539 54.4961 129.271C53.4014 130.225 52.3547 131.235 51.3881 132.318C50.4507 133.367 49.6241 134.514 48.8041 135.659C47.2787 137.795 45.9174 140.053 44.7974 142.43C43.672 144.818 42.8041 147.355 42.3641 149.962C42.1427 151.269 42.0361 152.599 42.0534 153.925C42.0601 154.459 42.0947 154.99 42.1454 155.519C42.0214 155.602 41.912 155.717 41.8574 155.853C41.3507 157.159 40.9427 158.493 40.5627 159.837C40.2161 161.063 39.8787 162.29 39.4547 163.49C39.0227 164.637 38.4947 165.738 37.8041 166.751C37.2361 167.525 36.5854 168.214 35.8574 168.837C34.9134 169.585 33.8854 170.201 32.7974 170.709C31.4667 171.293 30.0747 171.711 28.6441 171.973C27.1614 172.217 25.6561 172.293 24.1561 172.175C22.9561 172.053 21.7774 171.809 20.6414 171.407C19.7387 171.061 18.8827 170.618 18.0841 170.069C17.4361 169.582 16.8481 169.037 16.3241 168.418C15.8414 167.79 15.4254 167.123 15.0881 166.413C14.7667 165.665 14.5307 164.894 14.3787 164.099C14.2454 163.225 14.2107 162.339 14.2787 161.457C14.3814 160.487 14.5961 159.533 14.9161 158.607C15.2894 157.646 15.7667 156.738 16.3534 155.891C16.9134 155.123 17.5587 154.435 18.2841 153.821C18.9307 153.309 19.6227 152.873 20.3614 152.522C21.0401 152.225 21.736 152.009 22.4627 151.867C23.272 151.741 24.084 151.709 24.9094 151.769C25.7307 151.855 26.5387 152.027 27.3227 152.301C27.8961 152.527 28.4427 152.803 28.9561 153.146C29.3187 153.415 29.6467 153.714 29.9414 154.053C30.1401 154.315 30.3107 154.591 30.4561 154.881C30.5601 155.139 30.6454 155.402 30.7041 155.675C30.7467 155.99 30.7547 156.306 30.7374 156.621C30.6894 157.039 30.5907 157.446 30.4561 157.842C30.3427 158.131 30.2081 158.415 30.0694 158.691C29.8081 159.183 29.9947 159.809 30.4867 160.069C30.9774 160.329 31.6067 160.139 31.8627 159.642C32.1307 159.137 32.3427 158.613 32.5147 158.069C32.6801 157.547 32.748 157.011 32.78 156.47C32.8387 155.527 32.5801 154.602 32.1654 153.758C31.9721 153.363 31.7027 153.003 31.4187 152.662C31.1374 152.329 30.8254 152.033 30.484 151.758C29.6907 151.137 28.8027 150.683 27.8494 150.345C26.9041 150.003 25.9214 149.818 24.9201 149.741C23.8627 149.659 22.8254 149.733 21.7867 149.933C19.6987 150.334 17.796 151.454 16.2614 152.899C15.4894 153.631 14.8361 154.482 14.2574 155.373C13.6841 156.277 13.2467 157.261 12.8987 158.274C12.1854 160.29 12.0307 162.493 12.4094 164.594C12.816 166.845 13.916 168.921 15.5187 170.545C16.3134 171.358 17.248 172.025 18.2627 172.558C19.2614 173.087 20.3347 173.487 21.4294 173.771C22.5587 174.061 23.7267 174.197 24.8934 174.249C26.0387 174.306 27.1881 174.235 28.3241 174.077C30.6374 173.746 32.8814 173.033 34.9334 171.907C36.0401 171.298 37.0641 170.534 37.9761 169.662C39.0547 168.629 39.916 167.361 40.5787 166.027C41.2267 164.73 41.6707 163.334 42.0787 161.946C42.3387 161.047 42.588 160.149 42.852 159.249C43.264 160.675 43.8427 162.05 44.5307 163.363C46.2827 166.678 48.9427 169.467 52.0801 171.501C52.5654 171.813 53.0681 172.107 53.5787 172.378C56.2281 173.782 59.1907 174.589 62.1907 174.649C65.8214 174.719 69.4134 173.498 72.2801 171.285C74.0081 169.949 75.4774 168.321 76.6654 166.487C77.3134 165.485 77.8081 164.405 78.2041 163.279C78.5801 162.225 78.7721 161.129 78.8654 160.014C79.0441 157.867 78.5867 155.678 77.7067 153.722C77.2267 152.651 76.6347 151.651 75.9334 150.711C75.2014 149.733 74.3721 148.829 73.4747 148.001C72.5894 147.181 71.6254 146.449 70.6147 145.785C69.6427 145.154 68.6081 144.629 67.5267 144.227C66.9694 144.019 66.4147 143.845 65.8401 143.703C65.2294 143.558 64.6081 143.485 63.9841 143.43C62.8187 143.326 61.6361 143.467 60.5067 143.763C59.9147 143.922 59.3561 144.159 58.8027 144.41C58.3001 144.642 57.8147 144.927 57.3667 145.254C56.4814 145.894 55.7401 146.673 55.1227 147.571C53.9854 149.201 53.3934 151.165 53.368 153.143C53.3454 154.094 53.5107 155.077 53.8227 155.973C54.1574 156.927 54.6974 157.795 55.4081 158.519C56.1254 159.249 57.0387 159.727 58.0027 160.047C58.5334 160.222 59.0854 160.295 59.6414 160.342C60.2734 160.391 60.8987 160.367 61.5294 160.287C61.8001 160.254 62.0267 160.175 62.2241 159.967C62.4134 159.771 62.5121 159.498 62.5001 159.227C62.4787 158.711 61.9881 158.183 61.4427 158.254C60.8561 158.326 60.2774 158.355 59.6881 158.315C59.2347 158.261 58.7894 158.17 58.3521 158.025C57.9867 157.878 57.6427 157.699 57.3147 157.485C57.0334 157.263 56.7761 157.017 56.5401 156.749C56.2987 156.427 56.0867 156.091 55.9094 155.73C55.7187 155.277 55.5814 154.809 55.4867 154.321C55.4001 153.722 55.3774 153.121 55.4254 152.517C55.5001 151.809 55.6601 151.105 55.8987 150.427C56.1587 149.779 56.4827 149.165 56.8734 148.587C57.2654 148.063 57.7094 147.589 58.2027 147.167C58.7134 146.769 59.2601 146.438 59.8441 146.157C60.4761 145.886 61.1321 145.683 61.8027 145.553C62.5441 145.438 63.2814 145.41 64.0254 145.459C64.9427 145.561 65.8387 145.774 66.7107 146.079C67.9561 146.553 69.1214 147.201 70.2161 147.962C71.5854 148.957 72.8361 150.113 73.9147 151.415C74.6747 152.375 75.3307 153.413 75.8521 154.53C76.2454 155.433 76.5374 156.373 76.7147 157.342C76.8574 158.251 76.8961 159.159 76.8307 160.074C76.7294 161.053 76.5067 162.006 76.1854 162.935C75.7601 164.034 75.1974 165.066 74.5281 166.033C73.6201 167.287 72.5721 168.422 71.3827 169.413C70.4174 170.183 69.3747 170.839 68.2534 171.366C67.1534 171.847 66.0094 172.201 64.8294 172.415C63.5867 172.615 62.3254 172.659 61.0627 172.558C59.6107 172.421 58.1827 172.085 56.8014 171.597C55.1907 170.987 53.6707 170.173 52.2627 169.181C50.8187 168.118 49.5147 166.883 48.3747 165.498C47.3321 164.189 46.4494 162.766 45.7467 161.249C45.0947 159.782 44.6227 158.246 44.3347 156.667C44.0827 155.102 44.0307 153.527 44.1534 151.949C44.3587 149.81 44.8841 147.719 45.6161 145.699C46.8641 142.425 48.6361 139.373 50.6654 136.525C51.5734 135.271 52.5227 134.061 53.5854 132.941C54.6907 131.777 55.8934 130.722 57.1241 129.701C57.1121 129.711 57.1027 129.722 57.0881 129.733C57.1041 129.717 57.1214 129.706 57.1347 129.697C57.1374 129.691 57.1401 129.689 57.1467 129.686C57.1441 129.686 57.1401 129.689 57.1401 129.689C57.1534 129.678 57.1694 129.665 57.1827 129.651C57.2014 129.637 57.2214 129.623 57.2401 129.607C57.8094 129.143 58.3907 128.691 58.9707 128.235C61.0161 129.435 63.0321 130.675 65.1281 131.774C66.4161 132.449 67.7401 133.053 69.1001 133.555C70.4214 134.047 71.7894 134.399 73.1534 134.743C75.6987 135.383 78.2974 135.829 80.9187 136.003C83.5534 136.181 86.2321 136.063 88.8201 135.519C90.1174 135.246 91.3934 134.863 92.6227 134.363C93.1174 134.159 93.5974 133.935 94.0721 133.697C94.1974 133.779 94.3467 133.839 94.4867 133.839C95.8894 133.837 97.2814 133.73 98.6747 133.594C99.944 133.47 101.208 133.334 102.48 133.29C103.704 133.277 104.916 133.367 106.113 133.637C107.043 133.883 107.925 134.241 108.772 134.691C109.811 135.295 110.757 136.03 111.628 136.855C112.655 137.883 113.553 139.025 114.321 140.261C115.088 141.55 115.708 142.925 116.147 144.367C116.468 145.527 116.671 146.711 116.713 147.918C116.72 148.883 116.621 149.845 116.4 150.79C116.185 151.569 115.888 152.313 115.501 153.027C115.1 153.709 114.629 154.334 114.092 154.913C113.513 155.482 112.883 155.985 112.195 156.415C111.431 156.861 110.62 157.211 109.773 157.473C108.831 157.73 107.867 157.875 106.887 157.915C105.856 157.925 104.836 157.81 103.833 157.574C102.915 157.331 102.035 156.982 101.197 156.533C100.488 156.115 99.8294 155.631 99.2321 155.069C98.7094 154.545 98.2521 153.979 97.8574 153.355C97.4427 152.646 97.1174 151.897 96.8721 151.115C96.6521 150.313 96.5214 149.501 96.4881 148.667C96.4881 148.058 96.5467 147.446 96.6787 146.842C96.7987 146.407 96.9561 145.987 97.1641 145.591C97.3334 145.313 97.5281 145.053 97.7454 144.81C97.9481 144.618 98.1614 144.443 98.3974 144.29C98.6721 144.137 98.9614 144.011 99.2614 143.913C99.6707 143.81 100.083 143.751 100.501 143.73C100.812 143.733 101.125 143.754 101.435 143.782C101.987 143.842 102.5 143.443 102.564 142.889C102.627 142.337 102.219 141.818 101.665 141.763C101.099 141.701 100.529 141.691 99.9614 141.733C99.4161 141.766 98.8934 141.899 98.3774 142.069C97.4774 142.361 96.7081 142.935 96.076 143.626C95.7774 143.957 95.5427 144.337 95.3294 144.727C95.1201 145.11 94.9574 145.506 94.8294 145.922C94.5361 146.894 94.4387 147.881 94.4694 148.894C94.5001 149.899 94.6881 150.878 94.9774 151.839C95.2867 152.858 95.7361 153.793 96.3014 154.689C97.4374 156.485 99.1747 157.853 101.081 158.749C102.044 159.203 103.076 159.498 104.116 159.709C105.169 159.921 106.241 159.967 107.312 159.922C109.448 159.845 111.559 159.186 113.373 158.069C115.319 156.867 116.852 155.089 117.779 153.006C118.244 151.965 118.525 150.85 118.652 149.717C118.784 148.589 118.76 147.446 118.627 146.323C118.485 145.162 118.185 144.03 117.809 142.922C117.441 141.837 116.956 140.79 116.396 139.793C115.244 137.758 113.759 135.933 111.963 134.43C110.992 133.623 109.909 132.949 108.764 132.413C107.408 131.785 105.913 131.446 104.431 131.318C102.987 131.191 101.524 131.287 100.084 131.413C99.1521 131.498 98.2241 131.594 97.2894 131.678C98.4667 130.769 99.5374 129.733 100.507 128.61C102.955 125.771 104.58 122.274 105.328 118.613C105.443 118.047 105.533 117.475 105.597 116.902C105.832 114.85 105.725 112.771 105.312 110.755C104.919 107.43 105.195 102.754 105.584 99.5141C105.829 97.5767 106.135 95.6287 106.596 93.7274C107.153 91.4447 107.897 89.2181 108.775 87.0407C112.308 78.4194 117.724 70.7807 122.453 62.8074C123.792 60.5541 125.089 58.2781 126.179 55.8901C127.183 53.6874 128.057 51.4167 128.763 49.0901C130.175 44.4581 130.989 39.6087 131.024 34.7647C131.061 29.9887 130.368 25.1607 128.719 20.6714Z" fill="#7D7C82"/>
<path d="M57.2968 129.563C57.2768 129.579 57.2568 129.594 57.2395 129.607C57.2248 129.618 57.2115 129.629 57.1995 129.642C57.2341 129.615 57.2635 129.587 57.2968 129.563Z" fill="#7D7C82"/>
<path d="M31.095 119.524C31.095 119.524 31.099 119.527 31.1003 119.532C31.103 119.532 31.1016 119.532 31.107 119.535C31.099 119.527 31.099 119.527 31.095 119.524Z" fill="#C8CFB0"/>
<path d="M9.83337 173.371C9.87604 173.337 9.92004 173.305 9.96404 173.275C9.55737 173.86 9.19337 174.461 8.84404 175.076C8.64004 175.428 8.43204 175.788 8.26137 176.157C8.12004 176.464 8.01337 176.785 7.93871 177.111C7.89604 177.103 7.85337 177.095 7.80804 177.095C7.77071 177.095 7.72937 177.1 7.68937 177.108C7.63204 177.116 7.57471 177.133 7.52804 177.16C7.42937 177.212 7.33337 177.277 7.26804 177.368C7.21337 177.441 7.17204 177.521 7.14404 177.608C7.08271 177.803 7.11737 178.001 7.21604 178.177C7.32137 178.363 7.51471 178.513 7.73737 178.556C7.91204 178.589 8.09337 178.548 8.24004 178.452C8.40404 178.343 8.51604 178.177 8.56537 177.999C8.58937 177.907 8.60271 177.808 8.59071 177.715C8.58137 177.616 8.55071 177.524 8.51071 177.433C8.48671 177.381 8.44671 177.349 8.39604 177.327C8.41071 177.243 8.42671 177.163 8.44804 177.079C8.59204 176.565 8.83337 176.095 9.09204 175.628C9.45871 174.985 9.82404 174.344 10.2427 173.731C10.524 173.311 10.8347 172.912 11.1574 172.519C10.9627 172.939 10.808 173.376 10.6947 173.819C10.3027 175.357 10.2534 176.949 10.3547 178.521C10.3494 178.519 10.3467 178.519 10.344 178.519C10.3387 178.519 10.3334 178.519 10.328 178.521C10.184 178.548 10.0667 178.625 9.97337 178.732C9.84537 178.871 9.76271 179.053 9.71737 179.235C9.68671 179.379 9.69071 179.535 9.75337 179.671C9.81204 179.795 9.91337 179.899 10.0387 179.967C10.072 179.983 10.1014 179.999 10.1374 180.009C10.1667 180.032 10.2 180.051 10.2387 180.064C10.3294 180.1 10.4374 180.121 10.54 180.125C10.6987 180.123 10.8587 180.097 10.9907 180.004C11.0774 179.944 11.136 179.863 11.176 179.772C11.1947 179.748 11.208 179.731 11.22 179.707C11.276 179.625 11.3107 179.548 11.3347 179.455C11.352 179.373 11.3574 179.297 11.352 179.22C11.3427 179.027 11.272 178.843 11.176 178.673C11.1187 178.564 10.9827 178.513 10.8614 178.561C10.8414 178.305 10.8254 178.056 10.82 177.8C10.7827 176.532 10.856 175.245 11.1614 174.001C11.3094 173.425 11.5134 172.86 11.804 172.327C11.9774 172.027 12.1827 171.743 12.4187 171.483C12.4374 171.475 12.4534 171.464 12.4734 171.459C12.5534 171.436 12.636 171.42 12.7147 171.407C12.5387 171.673 12.3054 171.904 12.084 172.144C11.968 172.275 11.8414 172.409 11.7414 172.559C11.652 172.68 11.58 172.808 11.5174 172.944C11.4734 173.043 11.5174 173.163 11.6067 173.223C11.6827 173.275 11.7707 173.272 11.8587 173.24C12.2667 173.105 12.6387 172.868 12.9827 172.623C13.3227 172.379 13.6534 172.12 13.988 171.871C14.7067 171.324 15.4254 170.772 16.088 170.165C16.4334 169.849 16.772 169.519 17.084 169.173C17.3534 168.873 17.5934 168.551 17.8187 168.217C17.824 168.212 17.8267 168.207 17.8294 168.201C17.8467 168.185 17.8614 168.168 17.8734 168.149C18.1454 167.837 18.4107 167.507 18.6014 167.144C18.64 167.068 18.676 166.991 18.708 166.909C18.8627 166.701 19.032 166.501 19.2147 166.305C19.2427 166.277 19.268 166.253 19.296 166.228C19.344 166.18 19.3774 166.133 19.3854 166.065C19.3947 166.001 19.372 165.936 19.3307 165.889C19.248 165.795 19.0734 165.769 18.9747 165.863C18.9014 165.939 18.8254 166.011 18.7534 166.089C18.7 165.952 18.6094 165.835 18.4947 165.737C18.3534 165.619 18.1694 165.529 17.9867 165.48C17.6894 165.397 17.3694 165.407 17.0614 165.459C16.888 165.491 16.716 165.535 16.5547 165.579C16.0334 165.737 15.528 165.939 15.044 166.18C14.8254 166.287 14.6094 166.401 14.4054 166.529C14.292 166.605 14.1814 166.688 14.0734 166.775C13.8 166.871 13.5387 167.024 13.3067 167.188C12.9694 167.436 12.6614 167.728 12.3667 168.027C12.064 168.343 11.78 168.673 11.5107 169.011C11.1174 169.501 10.7507 170.004 10.3867 170.511C10.3747 170.521 10.3614 170.535 10.3494 170.545C8.93337 171.857 7.61337 173.287 6.64137 174.931C6.60804 174.991 6.58804 175.043 6.59871 175.111C6.60537 175.155 6.62671 175.191 6.65071 175.223C6.72137 175.297 6.85737 175.335 6.95204 175.285C7.96937 174.725 8.90804 174.059 9.83337 173.371Z" fill="#F1E6B1"/>
<path d="M13.2917 167.829C13.3663 167.914 13.4877 167.936 13.593 167.892C14.041 167.704 14.4797 167.504 14.9263 167.305C15.301 167.141 15.681 166.985 16.077 166.862C16.4143 166.766 16.757 166.704 17.1063 166.684C17.3757 166.678 17.6383 166.696 17.8997 166.738C17.8997 166.738 17.8997 166.75 17.901 166.758C17.9037 166.79 17.9157 166.842 17.9303 166.862C17.9583 166.91 17.9823 166.944 18.0237 166.974C18.0543 167.001 18.0917 167.017 18.1263 167.032C18.1717 167.048 18.233 167.053 18.2797 167.053C18.349 167.056 18.4237 167.045 18.4903 167.032C18.577 167.014 18.665 166.99 18.741 166.949C18.909 166.86 19.0517 166.741 19.1717 166.594C19.3063 166.433 19.4157 166.256 19.5077 166.074C19.7157 165.657 19.8517 165.22 19.9517 164.774C20.0183 164.485 20.081 164.193 20.097 163.897C21.1477 162.472 22.1557 161.022 23.2063 159.597C24.429 157.944 25.7103 156.324 27.149 154.826C29.1557 152.761 31.4317 150.928 33.9157 149.397C34.4757 149.056 35.0383 148.73 35.6157 148.42C35.7157 148.365 35.7783 148.272 35.7637 148.162C35.7437 148.064 35.6477 147.968 35.5383 147.965C35.321 147.969 35.113 147.985 34.901 148.022C34.8117 148.037 34.721 148.056 34.633 148.077C34.329 148.16 34.0357 148.264 33.753 148.402C33.1703 148.678 32.633 149.034 32.1237 149.42C31.5943 149.821 31.0863 150.248 30.565 150.662C30.0463 151.077 29.4917 151.454 28.9637 151.857C27.773 152.761 26.6397 153.736 25.5797 154.78C24.5063 155.84 23.5077 156.962 22.5703 158.129C21.1357 159.92 19.8357 161.802 18.5023 163.665C18.281 163.736 18.0623 163.818 17.849 163.914C17.2223 164.189 16.633 164.534 16.0797 164.922C15.5157 165.316 14.9863 165.745 14.4943 166.214C14.0583 166.632 13.649 167.069 13.281 167.54C13.213 167.626 13.2183 167.753 13.2917 167.829Z" fill="#95A975"/>
<path d="M5.88933 159.582C5.88933 159.582 2.37867 161.462 0 157.454C0 157.454 4.24667 157.18 5.88933 159.582Z" fill="#95A975"/>
<path d="M10.7864 158.668C10.7864 158.668 7.27844 160.545 4.89844 156.537C4.89844 156.537 9.14377 156.266 10.7864 158.668Z" fill="#95A975"/>
<path d="M17.8998 156.584C17.8998 156.584 14.3892 158.459 12.0105 154.454C12.0105 154.454 16.2585 154.183 17.8998 156.584Z" fill="#95A975"/>
<path d="M10.4192 152.292C10.4192 152.292 6.66057 150.986 7.98857 146.522C7.98857 146.522 11.0686 149.454 10.4192 152.292Z" fill="#95A975"/>
<path d="M32.1731 149.884C32.1731 149.884 27.5824 153.657 22.9291 148.485C22.9291 148.485 29.0677 146.848 32.1731 149.884Z" fill="#95A975"/>
<path d="M33.7096 158.167C33.7096 158.167 29.5122 153.965 34.2069 148.829C34.2069 148.829 36.4322 154.782 33.7096 158.167Z" fill="#95A975"/>
<path d="M40.5416 154.1C40.5416 154.1 36.3429 149.895 41.0376 144.764C41.0376 144.764 43.2602 150.717 40.5416 154.1Z" fill="#95A975"/>
<path d="M38.1979 146.293C38.1979 146.293 33.6072 150.066 28.9539 144.897C28.9539 144.897 35.0952 143.257 38.1979 146.293Z" fill="#95A975"/>
<path d="M16.996 153.485C16.996 153.485 13.0173 153.587 12.6907 148.939C12.6907 148.939 16.608 150.605 16.996 153.485Z" fill="#95A975"/>
<path d="M10.5937 159.313C10.5937 159.313 11.3283 163.225 6.79102 164.287C6.79102 164.287 7.80968 160.157 10.5937 159.313Z" fill="#95A975"/>
<path d="M17.2265 157.105C17.2265 157.105 17.9598 161.02 13.4211 162.081C13.4211 162.081 14.4425 157.949 17.2265 157.105Z" fill="#95A975"/>
<path d="M54.9934 124.235C55.4347 123.751 55.8094 123.208 56.0907 122.62C56.3321 122.11 56.4907 121.574 56.5801 121.016C56.6041 120.959 56.6147 120.894 56.6121 120.831C56.6094 120.82 56.6134 120.808 56.6121 120.792C56.6187 120.746 56.6214 120.702 56.6281 120.656C56.6347 120.582 56.6241 120.506 56.6001 120.438C56.5907 120.276 56.5801 120.115 56.5627 119.954C56.6187 120.019 56.6654 120.076 56.7134 120.144C56.8054 120.259 56.9801 120.323 57.1201 120.323C57.2001 120.326 57.2734 120.314 57.3454 120.29C57.3547 120.298 57.3734 120.303 57.3814 120.308C58.0054 120.576 58.7067 120.582 59.3667 120.675C60.3614 120.842 61.3201 121.164 62.3134 121.326C62.7521 121.396 63.1881 121.44 63.6294 121.407C64.1467 121.36 64.6187 121.227 65.0907 121.014C65.5881 120.792 66.0361 120.44 66.4494 120.09C66.8387 119.759 67.1867 119.38 67.5041 118.983C68.0494 118.282 68.4641 117.506 68.7427 116.664C69.0014 115.858 69.1107 114.984 69.1281 114.139C69.1374 113.256 69.0347 112.368 68.8841 111.498C68.8014 111.024 68.7027 110.558 68.5894 110.09C68.3094 108.938 67.9547 107.811 67.6214 106.672C67.4027 105.93 67.1641 105.196 66.8601 104.487C66.5934 103.839 66.2414 103.202 65.7481 102.704C65.5187 102.475 65.2441 102.29 64.9401 102.159C64.6214 102.03 64.2761 102.003 63.9307 102.042C63.5921 102.09 63.2694 102.227 62.9627 102.375C62.5654 102.571 62.2081 102.834 61.8547 103.099C61.0987 103.662 60.4187 104.331 59.7654 105.006C59.1561 105.62 58.5801 106.263 57.9881 106.888C57.6867 107.214 57.3734 107.54 57.0827 107.878C56.7574 108.266 56.4454 108.67 56.1561 109.09C55.6401 109.828 55.2214 110.634 54.9081 111.472C54.6534 112.136 54.5041 112.842 54.4281 113.547C54.3587 114.224 54.4014 114.918 54.5121 115.587C54.1281 115.246 53.6961 114.956 53.2427 114.716C52.6281 114.388 51.9654 114.154 51.2867 114.014C50.5494 113.855 49.7921 113.834 49.0427 113.883C47.5614 113.978 46.1121 114.355 44.6387 114.516C44.0507 114.571 43.4481 114.602 42.8587 114.519C42.1614 114.38 41.4987 114.131 40.7907 114.03C40.4481 113.978 40.1241 113.98 39.7827 114.035C39.3987 114.092 39.0574 114.303 38.7707 114.552C38.5321 114.763 38.3547 115.058 38.2374 115.347C38.1214 115.656 38.0681 115.99 38.0467 116.311C38.0321 116.662 38.0747 117.019 38.1121 117.366C38.1467 117.686 38.1987 118.008 38.2387 118.32C38.2654 118.667 38.2654 118.998 38.2147 119.344C38.1427 119.816 38.0614 120.279 38.0027 120.748C37.9574 121.102 37.9507 121.443 37.9907 121.8C38.0307 122.162 38.1481 122.503 38.3001 122.842C38.4814 123.232 38.7281 123.595 38.9814 123.94C39.2987 124.388 39.6374 124.828 40.0174 125.246C40.5921 125.891 41.2734 126.464 42.0134 126.918C43.4774 127.803 45.2054 128.082 46.8921 127.904C48.5947 127.732 50.2641 127.211 51.8094 126.486C52.9854 125.932 54.1067 125.186 54.9934 124.235Z" fill="#F1E6B1"/>
<path d="M54.8919 140.998C55.5185 140.191 55.9852 139.269 56.3852 138.329C56.7799 137.391 57.0732 136.413 57.3092 135.427C57.7332 133.711 57.9932 131.917 57.9332 130.149C57.9145 129.599 57.8572 128.987 57.7145 128.405C57.4332 127.243 56.8305 126.181 55.5919 125.875C55.2719 125.801 54.9465 125.959 54.8519 126.277C54.8399 126.315 54.8319 126.345 54.8305 126.378C53.5665 126.451 52.3172 126.746 51.1305 127.17C50.3612 127.446 49.6025 127.779 48.8799 128.167C48.1439 128.558 47.4545 129.011 46.7892 129.509C45.5212 130.451 44.4012 131.621 43.6052 132.99C43.2239 133.649 42.9239 134.362 42.7385 135.105C42.5332 135.878 42.4785 136.683 42.5332 137.49C42.6079 138.581 42.8332 139.662 43.1852 140.701C43.4785 141.577 43.8745 142.479 44.5052 143.175C44.7279 143.417 45.0065 143.607 45.3159 143.738C45.6199 143.859 45.9479 143.907 46.2705 143.915C46.6319 143.933 46.9959 143.905 47.3599 143.886C47.9479 143.85 48.5412 143.831 49.1292 143.793C49.6732 143.761 50.2225 143.701 50.7585 143.607C51.3332 143.511 51.8879 143.329 52.4199 143.089C53.4252 142.646 54.2185 141.853 54.8919 140.998Z" fill="#F1E6B1"/>
<path d="M70.7891 145.889C71.0971 145.605 71.3585 145.264 71.6145 144.933C71.8625 144.597 72.0905 144.244 72.3171 143.892C72.8171 143.082 73.2358 142.222 73.5038 141.305C73.7931 140.342 73.8865 139.318 73.8011 138.31C73.7678 137.886 73.6958 137.468 73.5958 137.058C73.4465 136.441 73.2291 135.842 72.9638 135.261C72.5438 134.365 71.9238 133.569 71.2451 132.853C70.5238 132.086 69.6771 131.417 68.7985 130.84C67.9758 130.296 67.0918 129.848 66.1865 129.465C65.4131 129.138 64.6078 128.886 63.7825 128.73C63.6891 128.637 63.5211 128.542 63.3785 128.553C62.5811 128.626 61.7771 128.753 61.0718 129.138C60.7985 129.288 60.5505 129.49 60.3491 129.722C60.0985 130.001 59.9318 130.31 59.7945 130.652C59.6505 130.985 59.5945 131.345 59.5385 131.694C59.4665 132.141 59.4505 132.582 59.4451 133.025C59.4305 133.936 59.4531 134.845 59.4971 135.75C59.5505 136.785 59.6505 137.821 59.8105 138.845C59.9625 139.798 60.1798 140.746 60.5345 141.652C60.8585 142.52 61.3158 143.342 62.0091 143.974C62.6425 144.537 63.4291 144.856 64.2598 145.025C64.9118 145.162 65.5838 145.225 66.2385 145.316C66.4385 145.358 66.6318 145.43 66.8251 145.509C67.5211 145.834 68.1771 146.244 68.8985 146.52C69.1891 146.624 69.4918 146.637 69.7811 146.548C70.1678 146.425 70.4971 146.162 70.7891 145.889Z" fill="#F1E6B1"/>
<path d="M69.2929 118.592C68.9209 118.847 68.5609 119.116 68.2076 119.392C67.5036 119.944 66.8489 120.545 66.2489 121.204C65.6583 121.855 65.1289 122.576 64.7423 123.368C64.3836 124.113 64.1569 124.925 64.1916 125.761C64.2183 126.501 64.4089 127.24 64.7689 127.892C65.4263 129.081 66.6596 129.775 67.9409 130.119C69.3263 130.488 70.8103 130.496 72.2396 130.379C72.9556 130.319 73.6689 130.223 74.3743 130.097C75.0983 129.967 75.8183 129.819 76.5236 129.6C77.0623 129.436 77.5903 129.223 78.0943 128.956C78.5756 128.699 79.0236 128.368 79.4356 128.007C79.8569 127.644 80.2303 127.223 80.5823 126.792C80.7889 126.545 80.9849 126.285 81.1796 126.027C81.3463 125.821 81.4903 125.597 81.6529 125.384C82.0583 124.907 82.4996 124.461 82.8916 123.967C83.2649 123.501 83.6329 122.944 83.6236 122.308C83.6209 122.269 83.6143 122.215 83.6023 122.171C83.5409 121.912 83.3316 121.707 83.0463 121.701C82.8263 121.691 82.6063 121.827 82.5009 122.019C82.3903 121.944 82.2783 121.865 82.1743 121.783C81.4356 121.173 80.8303 120.417 80.2209 119.683C79.5903 118.92 78.9209 118.193 78.0916 117.636C77.3343 117.136 76.4449 116.912 75.5476 116.829C74.6129 116.74 73.6529 116.844 72.7383 117.051C71.8623 117.245 70.9943 117.561 70.2143 117.999C69.8956 118.177 69.5889 118.384 69.2929 118.592Z" fill="#F1E6B1"/>
<path d="M60.8646 126.686C60.7486 126.431 60.4353 126.347 60.1779 126.418C60.3766 126.271 60.5379 126.087 60.6833 125.891C60.7113 125.855 60.7273 125.816 60.7499 125.782C60.8326 126.04 60.9379 126.295 61.0699 126.53C60.9953 126.579 60.9313 126.652 60.8819 126.732C60.8726 126.716 60.8739 126.699 60.8646 126.686ZM58.8246 125.847C58.7539 125.814 58.6739 125.798 58.5966 125.803C58.4686 125.811 58.3393 125.831 58.2153 125.855C58.2393 125.748 58.2433 125.644 58.2126 125.55C58.2113 125.472 58.2019 125.391 58.1913 125.316C58.1673 125.248 58.1406 125.183 58.1139 125.11C58.0699 125.05 58.0246 124.995 57.9779 124.931C57.9659 124.918 57.9486 124.91 57.9366 124.896C58.0753 124.811 58.1966 124.67 58.2633 124.54C58.2593 124.595 58.2646 124.655 58.2806 124.714C58.3246 124.839 58.3633 124.948 58.4553 125.047C58.5793 125.172 58.7273 125.243 58.8953 125.3C58.9446 125.316 59.0046 125.324 59.0593 125.336C58.9726 125.498 58.9033 125.664 58.8566 125.844C58.8486 125.844 58.8366 125.844 58.8246 125.847ZM58.3993 124.008C58.3953 123.948 58.3886 123.888 58.3753 123.828C58.4059 123.834 58.4393 123.842 58.4699 123.836C58.5553 123.831 58.6286 123.819 58.7046 123.787C58.6606 123.831 58.6086 123.866 58.5646 123.904C58.4979 123.967 58.4393 124.05 58.3846 124.134C58.3886 124.095 58.4006 124.055 58.3993 124.008ZM60.4153 122.822C60.4353 122.858 60.4579 122.891 60.4819 122.92C60.4406 123 60.3966 123.076 60.3646 123.162C60.3099 123.282 60.2699 123.399 60.2379 123.527C60.2206 123.516 60.1966 123.498 60.1753 123.488C60.1819 123.464 60.2006 123.456 60.2086 123.431C60.2646 123.262 60.3179 123.092 60.3606 122.923C60.3833 122.894 60.3953 122.858 60.4153 122.822ZM62.3806 124.566C62.2219 124.667 62.0953 124.795 61.9979 124.954C61.8993 124.876 61.8019 124.806 61.6939 124.743C61.7913 124.532 61.8793 124.314 61.9579 124.087C61.9619 124.076 61.9633 124.063 61.9673 124.047C61.9686 124.084 61.9659 124.12 61.9739 124.155C62.0246 124.36 62.1899 124.508 62.3806 124.566ZM61.4406 128.694C61.5899 128.888 61.7713 129.071 61.9846 129.196C62.2646 129.36 62.6073 129.374 62.8859 129.21C63.0299 129.123 63.1259 129.006 63.2179 128.871C63.3059 128.735 63.3326 128.568 63.3473 128.41C63.3593 128.331 63.3486 128.24 63.3286 128.158C63.3553 128.055 63.3673 127.948 63.3566 127.863C63.3499 127.779 63.3406 127.716 63.3246 127.652C63.3099 127.59 63.2886 127.53 63.2566 127.448C63.2126 127.35 63.1579 127.256 63.0939 127.167C63.0139 127.05 62.9113 126.959 62.8153 126.86C62.8153 126.86 62.8153 126.85 62.8206 126.847C63.0579 126.883 63.3099 126.86 63.5233 126.754C63.9233 126.795 64.3326 126.754 64.7179 126.642C64.9579 126.579 65.1939 126.355 65.1739 126.087C65.1673 125.992 65.1606 125.902 65.1406 125.816C65.1379 125.808 65.1353 125.792 65.1326 125.784C65.1139 125.702 65.0766 125.62 65.0446 125.552C64.9846 125.396 64.8673 125.267 64.7606 125.147C64.5233 124.876 64.1846 124.678 63.8553 124.543C63.7259 124.492 63.5953 124.454 63.4566 124.426C63.7339 124.35 64.0033 124.267 64.2686 124.155C64.5246 124.038 64.7859 123.836 64.9086 123.582C64.9739 123.438 65.0246 123.298 65.0073 123.136C65.0006 123.055 64.9926 122.983 64.9739 122.907C64.9459 122.792 64.9006 122.691 64.8406 122.582C64.4953 122.003 63.7526 121.935 63.1593 122.084C63.0473 122.11 62.9353 122.158 62.8206 122.204C63.0433 121.847 63.2153 121.426 63.1166 121.022C63.1019 120.956 63.0766 120.891 63.0473 120.828C62.9166 120.56 62.6513 120.391 62.3619 120.336C62.1779 120.303 62.0153 120.306 61.8299 120.342C61.7326 120.366 61.6446 120.407 61.5593 120.454C61.4339 120.495 61.3206 120.571 61.2446 120.683C61.1313 120.784 61.0299 120.918 60.9446 121.035C60.8259 121.188 60.7339 121.371 60.6553 121.546C60.6313 121.592 60.6179 121.636 60.5966 121.678C60.5846 121.579 60.5726 121.48 60.5499 121.383C60.5446 121.17 60.5139 120.954 60.4633 120.746C60.4006 120.486 60.3019 120.235 60.1499 120.014C60.1073 119.92 60.0313 119.852 59.9433 119.798C59.8246 119.719 59.6313 119.675 59.4926 119.722C59.3286 119.787 59.1993 119.842 59.0633 119.959C58.9553 120.038 58.8766 120.155 58.7913 120.264C58.7019 120.383 58.6513 120.53 58.5913 120.667C58.5433 120.774 58.5286 120.883 58.5033 121C58.4273 120.931 58.3566 120.855 58.2753 120.808C57.9979 120.639 57.6286 120.727 57.4593 121.006C57.4539 121.006 57.4539 121.008 57.4499 121.016C57.4273 121.032 57.4046 121.05 57.3819 121.074C57.2646 121.183 57.2166 121.322 57.2019 121.48C57.1726 121.688 57.2113 121.904 57.2419 122.107C57.2859 122.347 57.3619 122.574 57.4446 122.8C57.2566 122.691 57.0526 122.598 56.8459 122.519C56.7286 122.456 56.6099 122.41 56.4899 122.358C56.3486 122.298 56.1566 122.339 56.0273 122.407C55.8366 122.514 55.7486 122.699 55.7259 122.907C55.6979 123.159 55.7739 123.399 55.8766 123.626C55.9873 123.888 56.1486 124.12 56.3339 124.342C56.3446 124.352 56.3579 124.368 56.3753 124.383C56.2979 124.363 56.2179 124.339 56.1339 124.336C55.8699 124.322 55.6099 124.47 55.4246 124.639C55.2299 124.811 55.1646 125.066 55.1326 125.306C55.1233 125.418 55.1486 125.54 55.1699 125.65C55.1806 125.699 55.2006 125.754 55.2246 125.798C55.2233 125.951 55.2833 126.1 55.3846 126.21C55.4366 126.262 55.5006 126.306 55.5659 126.336C55.6379 126.412 55.7179 126.478 55.7979 126.53C56.0046 126.686 56.2393 126.774 56.4913 126.811C56.5619 126.819 56.6246 126.814 56.6939 126.814C56.6086 126.975 56.5593 127.158 56.5553 127.342C56.5446 127.688 56.7366 128.071 57.0033 128.29C57.2539 128.498 57.5739 128.607 57.9006 128.532C58.1659 128.475 58.3926 128.334 58.5979 128.162C58.5406 128.54 58.5259 128.931 58.6206 129.3C58.7046 129.618 59.0179 129.808 59.3419 129.738C59.5873 129.683 59.7873 129.579 59.9499 129.436C59.9833 129.436 60.0126 129.436 60.0499 129.434C60.7526 129.371 61.0499 128.836 61.1153 128.216C61.1166 128.222 61.1233 128.232 61.1259 128.235C61.2193 128.394 61.3286 128.547 61.4406 128.694Z" fill="#B4AB83"/>
</svg>
