<svg width="95" height="89" viewBox="0 0 95 89" fill="none" xmlns="http://www.w3.org/2000/svg">
<path d="M56.2882 88.986C56.2951 88.8896 55.906 87.6776 55.4235 86.2927C53.449 80.6261 48.8732 72.4756 45.2556 68.1816C41.9896 64.305 35.2476 58.3193 28.0234 52.8824C23.1398 49.207 19.1161 45.3702 17.1892 42.5514C14.1523 38.1088 12.6403 33.7075 12.396 28.5988C12.1416 23.2809 13.1294 20.4079 16.2909 17.2699C18.4267 15.1498 20.3999 14.1015 23.4551 13.4636C25.9898 12.9344 27.3976 12.9294 30.0872 13.4402C32.781 13.9518 35.2162 14.9357 37.3524 16.3756C39.2255 17.6382 42.2045 20.666 43.3639 22.4857C44.3738 24.0706 45.9572 28.01 46.3215 29.8438C46.9402 32.9588 46.8569 32.94 47.8553 30.1911C50.8185 22.0333 55.3197 16.9343 61.7278 14.4763C67.8722 12.1194 74.5067 13.203 78.5591 17.2253C80.4398 19.0921 81.193 20.3885 81.8428 22.8778C83.3991 28.8392 80.6055 35.7363 71.8757 47.4853C62.6241 59.9367 59.7775 64.3153 57.994 68.8379C56.7934 71.8822 56.1156 75.2689 56.9338 74.1354C57.1589 73.8235 57.8242 72.7029 58.4122 71.6451C60.6357 67.6456 65.6568 62.1939 74.0099 54.71C83.2158 46.462 87.5315 41.9781 90.3551 37.7279C92.4837 34.5236 93.3607 32.7928 94.3538 29.836C94.8966 28.2199 94.9968 27.3072 95 23.9539C95.0042 19.4176 94.5549 17.5219 92.5171 13.478C89.783 8.05241 86.5413 4.83182 81.3632 2.3968C77.6756 0.662733 75.2887 0.173144 70.4395 0.156241C65.1877 0.137927 62.8163 0.678733 58.1574 2.95712C54.6187 4.68767 52.118 6.60773 49.5398 9.57359L47.7818 11.596L46.5715 10.0389C44.3341 7.1603 40.9154 4.42327 37.3064 2.62122C25.8272 -3.11057 11.2654 0.854455 4.25363 11.6212C-1.06877 19.7938 -1.41418 30.0473 3.3177 39.4053C5.98526 44.6807 10.1214 48.8947 18.312 54.6817C19.0189 55.1811 22.7464 57.6744 26.5952 60.2222C38.8594 68.3408 44.2959 72.9209 50.1766 80.0891C51.5688 81.7861 54.4515 85.9909 55.6455 88.0664C55.992 88.6686 56.2812 89.0825 56.2882 88.986ZM81.7855 42.0277C82.979 40.7732 86.0278 36.032 87.046 33.847C88.7561 30.1775 89.2197 27.9023 89.084 23.8455C88.9593 20.118 88.6777 18.9314 87.2039 15.9238C86.2938 14.0666 83.0465 10.7077 80.6466 9.14117C75.0813 5.50839 67.1923 4.91712 60.5997 7.63865C59.4294 8.12176 58.2726 8.67875 58.029 8.87641C57.7854 9.07406 57.2481 9.40311 56.835 9.60762C56.4218 9.81214 55.2007 10.7535 54.1215 11.6995L52.1592 13.4196L54.4442 11.0859C59.5367 5.88488 65.5482 3.45531 72.5693 3.76044C76.2943 3.92232 78.3906 4.41299 81.0374 5.74248C85.0877 7.77698 87.4181 10.0741 89.3787 13.9646C93.543 22.228 91.9871 30.9473 84.8903 39.1181C82.5879 41.7688 81.6157 42.7658 81.3114 42.7879C81.1642 42.7986 81.3775 42.4565 81.7855 42.0277ZM51.6158 71.0167C50.724 69.3015 49.1348 66.6861 48.0842 65.2048C45.4625 61.5083 38.7425 54.928 32.4496 49.8952C23.4873 42.7276 20.0338 39.0088 17.5641 33.866C16.8873 32.4567 16.0617 30.224 15.7294 28.9045C14.6849 24.7566 14.6389 24.6602 14.788 26.9308C15.4342 36.777 19.6592 43.5968 30.1656 51.7521C44.6616 63.0044 47.5671 65.7163 51.3572 71.5319C53.347 74.585 53.408 74.4635 51.6158 71.0167Z" fill="white"/>
</svg>
