<svg width="132" height="181" viewBox="0 0 132 181" fill="none" xmlns="http://www.w3.org/2000/svg">
<path d="M64.5454 129.154C64.5267 129.144 64.5067 129.133 64.4854 129.124C64.4907 129.126 64.496 129.128 64.504 129.136C64.5187 129.138 64.532 129.146 64.5454 129.154Z" fill="#7D7C82"/>
<path d="M64.3801 129.058C64.4095 129.08 64.4401 129.094 64.4695 129.113C64.4761 129.118 64.4815 129.121 64.4855 129.124C64.4535 129.1 64.4135 129.085 64.3801 129.058Z" fill="#7D7C82"/>
<path d="M57.147 129.686C57.163 129.672 57.183 129.658 57.199 129.642C57.1963 129.642 57.191 129.65 57.1816 129.652C57.1723 129.662 57.1616 129.672 57.147 129.686Z" fill="#7D7C82"/>
<path d="M61.2564 123.868C61.251 123.868 61.2444 123.879 61.2417 123.879H61.2444C61.2497 123.873 61.2524 123.873 61.2564 123.868Z" fill="#7D7C82"/>
<path d="M128.719 20.6714C127.891 18.4034 126.855 16.2127 125.575 14.1661C124.256 12.0781 122.723 10.1194 120.991 8.35941C119.01 6.34073 116.771 4.5434 114.315 3.13274C112.858 2.29941 111.326 1.5954 109.723 1.07274C105.847 -0.200592 101.6 -0.401932 97.6788 0.802063C95.6442 1.42874 93.7042 2.37672 91.9682 3.61673C90.0122 5.00739 88.2708 6.6714 86.7842 8.55139C86.4522 8.97139 86.1322 9.3954 85.8228 9.83006C85.6428 9.85674 85.4402 9.93407 85.3335 10.0674C84.8668 10.6661 84.3348 11.1981 83.7402 11.6687C83.1295 12.1167 82.4748 12.4941 81.7802 12.7967C81.1268 13.0541 80.4468 13.2447 79.7535 13.3567C79.1322 13.4314 78.5122 13.4447 77.8922 13.3794C77.3735 13.3047 76.8668 13.1767 76.3815 12.9914C75.9642 12.8114 75.5722 12.5861 75.2015 12.3194C74.8375 12.0261 74.5095 11.6954 74.2188 11.3274C73.9068 10.8981 73.6455 10.4341 73.4335 9.93939C73.1775 9.28073 73.0002 8.5954 72.8948 7.89807C72.8468 7.46074 72.8255 7.02339 72.8682 6.58606C72.9055 6.33806 72.9615 6.09273 73.0468 5.86473C73.1148 5.70473 73.2015 5.55406 73.2975 5.41673C73.3855 5.3114 73.4855 5.21274 73.5922 5.12207C73.7068 5.04607 73.8268 4.97406 73.9588 4.91673C74.1228 4.85674 74.2855 4.81139 74.4575 4.78339C74.6828 4.75673 74.9068 4.75673 75.1308 4.77806C75.4068 4.8194 75.6722 4.88739 75.9335 4.98605C76.1482 5.07806 76.3522 5.19539 76.5428 5.33006C76.6722 5.43939 76.7948 5.55939 76.9042 5.68739C76.9642 5.77272 77.0175 5.86606 77.0642 5.96072C77.0842 6.03273 77.1068 6.10873 77.1215 6.18207C77.1255 6.25406 77.1282 6.32474 77.1255 6.39807C77.1042 6.49406 77.0828 6.58606 77.0508 6.67673C76.9855 6.81673 76.9068 6.95006 76.8148 7.07806C76.8015 7.09273 76.7922 7.10873 76.7775 7.12207C76.6242 7.3074 76.5242 7.49139 76.5242 7.7394C76.5242 7.96339 76.6188 8.17673 76.7735 8.33539C76.9362 8.49672 77.1588 8.59273 77.3922 8.59006C77.5922 8.5874 77.8522 8.50473 77.9855 8.34073C78.1908 8.09807 78.4015 7.83539 78.5362 7.54073C78.6455 7.30206 78.7575 7.04607 78.7962 6.78073C78.8348 6.53139 78.8588 6.29407 78.8268 6.0434C78.7855 5.7314 78.7162 5.47141 78.5868 5.1794C78.3002 4.53273 77.7655 4.03807 77.1508 3.68474C76.8908 3.54074 76.6188 3.41408 76.3455 3.31407C75.4268 2.98074 74.3335 2.92873 73.4202 3.29138C72.9015 3.49405 72.3988 3.79941 72.0468 4.24741C71.8615 4.47673 71.6868 4.71005 71.5628 4.9834C71.4308 5.28073 71.3135 5.58339 71.2482 5.9034C71.0855 6.71007 71.1122 7.51807 71.2348 8.32739C71.3935 9.35674 71.6948 10.3821 72.1882 11.3074C72.6282 12.1447 73.2322 12.9447 73.9855 13.5327C74.3722 13.8327 74.7655 14.1221 75.2108 14.3381C75.6148 14.5327 76.0402 14.7047 76.4695 14.8301C77.3335 15.0781 78.2588 15.1874 79.1535 15.1327C80.0882 15.0754 81.0175 14.9034 81.8975 14.5807C82.4962 14.3621 83.0802 14.1007 83.6375 13.7807C83.5135 14.0701 83.4002 14.3594 83.2922 14.6474C82.4815 16.8274 82.0055 19.1221 81.8308 21.4367C81.4828 26.0861 82.3295 30.8954 84.4482 35.0674C85.4748 37.0927 86.8148 38.9967 88.4602 40.5754C89.2935 41.3741 90.1988 42.1087 91.1682 42.7394C92.1642 43.3874 93.2162 43.9261 94.3162 44.3661C95.4428 44.8167 96.6135 45.1554 97.8042 45.3661C98.8988 45.5594 100.012 45.6981 101.124 45.6247C103.087 45.4994 105.003 44.9087 106.692 43.9007C110.14 41.8434 112.652 38.4114 113.978 34.6501C114.626 32.8047 114.999 30.8274 114.978 28.8647C114.966 27.9007 114.867 26.9314 114.664 25.9834C114.466 25.0807 114.162 24.2154 113.784 23.3741C113.035 21.7287 112.01 20.1874 110.802 18.8407C110.207 18.1767 109.563 17.5434 108.854 16.9941C108.156 16.4447 107.423 15.9367 106.615 15.5674C106.199 15.3794 105.771 15.1994 105.327 15.0754C104.931 14.9607 104.531 14.8874 104.123 14.8407C103.336 14.7527 102.508 14.8101 101.755 15.0514C100.876 15.3407 100.088 15.7967 99.3988 16.4007C99.0215 16.7394 98.6655 17.1087 98.3562 17.5181C97.9948 17.9807 97.6402 18.4527 97.3722 18.9767C96.8015 20.0927 96.4602 21.3301 96.4415 22.5887C96.4228 23.7941 96.6588 24.9967 97.1868 26.0834C97.6975 27.1407 98.4868 28.0807 99.4828 28.7181C100.016 29.0621 100.611 29.3354 101.226 29.4994C101.848 29.6607 102.492 29.7421 103.135 29.7474C103.604 29.7554 103.992 29.3461 103.987 28.8821C103.984 28.4114 103.592 28.0381 103.123 28.0327C102.887 28.0287 102.654 28.0181 102.419 27.9941C101.99 27.9261 101.572 27.8221 101.162 27.6714C100.787 27.5074 100.439 27.3047 100.104 27.0674C99.7855 26.8047 99.5069 26.5181 99.2495 26.1981C98.9949 25.8407 98.7842 25.4687 98.6068 25.0701C98.4175 24.5927 98.2922 24.1034 98.2095 23.6007C98.1468 23.0567 98.1442 22.5154 98.1988 21.9687C98.2815 21.4194 98.4148 20.8874 98.6122 20.3621C98.8602 19.7861 99.1828 19.2527 99.5575 18.7421C99.9402 18.2594 100.366 17.8114 100.852 17.4261C101.176 17.1927 101.519 16.9887 101.884 16.8247C102.212 16.7021 102.547 16.6087 102.895 16.5487C103.268 16.5127 103.65 16.5074 104.026 16.5487C104.528 16.6221 105.016 16.7567 105.49 16.9367C106.244 17.2621 106.94 17.6821 107.594 18.1741C108.631 18.9861 109.544 19.9394 110.351 20.9767C111.167 22.0674 111.868 23.2394 112.407 24.4914C112.766 25.3741 113.008 26.2967 113.151 27.2474C113.296 28.4007 113.291 29.5674 113.159 30.7234C112.967 32.1741 112.582 33.5887 112.042 34.9394C111.447 36.3434 110.692 37.6634 109.775 38.8767C108.972 39.8927 108.07 40.8101 107.048 41.6007C106.231 42.2101 105.354 42.7287 104.42 43.1301C103.579 43.4687 102.71 43.7047 101.818 43.8407C100.928 43.9447 100.043 43.9447 99.1562 43.8487C97.6788 43.6501 96.2322 43.2861 94.8455 42.7447C93.5055 42.1847 92.2415 41.4607 91.0828 40.5861C89.8882 39.6447 88.8215 38.5594 87.8908 37.3594C86.8388 35.9581 85.9815 34.4341 85.2948 32.8221C84.5255 30.9287 84.0042 28.9527 83.7068 26.9341C83.4202 24.7621 83.4002 22.5754 83.6455 20.4034C83.9122 18.4087 84.4015 16.4474 85.1482 14.5807C85.4855 13.7781 85.8642 12.9914 86.3028 12.2447C86.7468 11.4741 87.2495 10.7394 87.7922 10.0287C89.1002 8.35406 90.5842 6.81673 92.2695 5.51273C93.5962 4.51273 95.0295 3.66873 96.5575 3.01807C97.9228 2.46873 99.3415 2.08072 100.79 1.86606C102.287 1.67139 103.791 1.66341 105.292 1.82207C107.106 2.05141 108.875 2.52605 110.571 3.19939C112.667 4.07539 114.63 5.23138 116.436 6.59805C118.698 8.34605 120.714 10.3927 122.452 12.6554C124.116 14.8647 125.49 17.2701 126.563 19.8221C127.734 22.6927 128.514 25.6994 128.944 28.7647C129.432 32.4994 129.41 36.2807 128.963 40.0154C128.394 44.4914 127.227 48.8821 125.542 53.0674C124.963 54.4781 124.335 55.8621 123.636 57.2127C122.335 59.7367 120.854 62.1741 119.37 64.5901C117.75 67.2234 116.098 69.8327 114.498 72.4661C111.3 77.7287 108.246 83.1501 106.212 88.9834C105.722 90.4007 105.283 91.8381 104.935 93.3007C104.638 94.5501 104.403 95.8101 104.206 97.0847C103.836 99.4461 103.562 101.839 103.499 104.23C103.487 104.738 103.486 105.246 103.492 105.755C102.123 103.35 100.136 101.313 97.7548 99.8861C97.4402 99.6967 97.1135 99.5327 96.7882 99.3661L95.1228 98.5941C94.0135 98.1461 92.8682 97.7954 91.6895 97.5527C90.5188 97.3154 89.3322 97.2461 88.1415 97.2901C87.0202 97.3261 85.9308 97.5447 84.8588 97.8674C82.7988 98.4847 80.9215 99.7087 79.4255 101.243C78.6055 102.079 77.8882 102.998 77.2682 103.99C76.6215 105.03 76.0855 106.131 75.6415 107.269C75.1975 108.394 74.8682 109.563 74.6228 110.743C74.3868 111.873 74.2788 113.03 74.3015 114.189C74.3095 114.779 74.3468 115.361 74.4268 115.946C74.5148 116.566 74.6708 117.17 74.8495 117.771C75.1788 118.897 75.7415 119.949 76.4282 120.889C76.7935 121.381 77.2162 121.815 77.6522 122.241C78.0522 122.626 78.4948 122.97 78.9615 123.269C79.8815 123.861 80.8775 124.263 81.9375 124.514C83.8722 124.977 85.9135 124.81 87.7655 124.115C88.6615 123.785 89.5148 123.277 90.2348 122.657C91.0015 121.998 91.6135 121.181 92.0255 120.254C92.4455 119.318 92.5575 118.293 92.5042 117.279C92.4695 116.722 92.3415 116.178 92.1802 115.649C91.9975 115.039 91.7428 114.467 91.4415 113.91C91.3082 113.673 91.1522 113.482 90.8908 113.378C90.6362 113.271 90.3495 113.282 90.0988 113.394C89.6255 113.599 89.3095 114.246 89.5788 114.733C89.8602 115.251 90.0948 115.779 90.2762 116.342C90.3948 116.785 90.4682 117.23 90.4948 117.691C90.4922 118.087 90.4482 118.47 90.3668 118.855C90.2642 119.197 90.1322 119.527 89.9668 119.847C89.7562 120.189 89.5188 120.503 89.2468 120.801C88.8935 121.146 88.5068 121.443 88.0895 121.709C87.5655 122.006 87.0135 122.251 86.4335 122.425C85.7428 122.615 85.0335 122.722 84.3162 122.749C83.6188 122.746 82.9242 122.665 82.2428 122.509C81.6175 122.337 81.0135 122.099 80.4402 121.793C79.8815 121.465 79.3695 121.071 78.9002 120.634C78.4135 120.142 77.9895 119.607 77.6202 119.033C77.2455 118.383 76.9482 117.703 76.7228 116.993C76.4828 116.102 76.3575 115.191 76.3202 114.269C76.3108 112.935 76.4842 111.613 76.7935 110.318C77.2188 108.678 77.8402 107.097 78.6602 105.615C79.2788 104.555 80.0028 103.563 80.8522 102.675C81.5482 101.979 82.3202 101.363 83.1562 100.845C83.9482 100.381 84.7842 100.011 85.6562 99.7407C86.6042 99.4754 87.5775 99.3394 88.5588 99.2981C89.7362 99.2901 90.9002 99.4381 92.0482 99.7087C92.8562 99.9181 93.6442 100.189 94.4175 100.506C94.5268 100.605 94.6562 100.691 94.8055 100.722C94.8335 100.733 94.8682 100.725 94.8988 100.73C95.3842 100.943 95.8735 101.146 96.3402 101.405C97.4095 102.019 98.4042 102.754 99.3002 103.605C100.151 104.451 100.9 105.386 101.527 106.407C102.168 107.495 102.67 108.654 103.035 109.863C103.435 111.266 103.646 112.719 103.695 114.181C103.716 115.902 103.514 117.615 103.102 119.287C102.64 121.022 101.967 122.686 101.096 124.254C100.252 125.703 99.2482 127.042 98.0922 128.251C96.9642 129.394 95.7082 130.394 94.3442 131.241C92.9788 132.042 91.5295 132.665 90.0188 133.129C87.9508 133.719 85.8108 133.99 83.6655 134.047C80.1588 134.079 76.6748 133.539 73.2802 132.691C71.7828 132.309 70.3068 131.863 68.8748 131.282C67.3908 130.678 65.9682 129.946 64.5722 129.173C64.5828 129.178 64.5962 129.183 64.6108 129.189C64.5935 129.183 64.5775 129.173 64.5602 129.162C64.5588 129.162 64.5575 129.162 64.5548 129.159C64.5388 129.149 64.5215 129.142 64.5042 129.137C64.4922 129.123 64.4815 129.121 64.4695 129.113C63.1988 128.389 61.9455 127.639 60.6908 126.894C62.1455 125.755 63.5868 124.605 64.9495 123.347C65.3562 122.97 65.2895 122.269 64.9082 121.905C64.7068 121.722 64.4348 121.621 64.1655 121.634C63.8868 121.643 63.6642 121.766 63.4642 121.946C62.7468 122.61 62.0122 123.249 61.2562 123.867C61.2642 123.861 61.2788 123.853 61.2948 123.845C61.2775 123.855 61.2642 123.866 61.2455 123.878C61.2455 123.878 61.2428 123.883 61.2375 123.886C61.2375 123.878 61.2402 123.878 61.2428 123.878C61.2428 123.878 61.2348 123.881 61.2348 123.886C61.2108 123.902 61.1868 123.925 61.1642 123.941C60.3842 124.577 59.5882 125.186 58.7962 125.803C57.8095 125.246 56.8175 124.701 55.8002 124.206C55.3002 123.962 54.6695 124.282 54.4748 124.766C54.3735 125.025 54.3775 125.313 54.4882 125.558C54.6015 125.815 54.7962 125.977 55.0388 126.097C55.7322 126.433 56.4108 126.798 57.0855 127.167C56.2135 127.855 55.3375 128.539 54.4962 129.271C53.4015 130.225 52.3548 131.235 51.3882 132.318C50.4508 133.367 49.6242 134.514 48.8042 135.659C47.2788 137.795 45.9175 140.053 44.7975 142.43C43.6722 144.818 42.8042 147.355 42.3642 149.962C42.1428 151.269 42.0362 152.599 42.0535 153.925C42.0602 154.459 42.0948 154.99 42.1455 155.519C42.0215 155.602 41.9122 155.717 41.8575 155.853C41.3508 157.159 40.9428 158.493 40.5628 159.837C40.2162 161.063 39.8788 162.29 39.4548 163.49C39.0228 164.637 38.4948 165.738 37.8042 166.751C37.2362 167.525 36.5855 168.214 35.8575 168.837C34.9135 169.585 33.8855 170.201 32.7975 170.709C31.4668 171.293 30.0748 171.711 28.6442 171.973C27.1615 172.217 25.6562 172.293 24.1562 172.175C22.9562 172.053 21.7775 171.809 20.6415 171.407C19.7388 171.061 18.8828 170.618 18.0842 170.069C17.4362 169.582 16.8482 169.037 16.3242 168.418C15.8415 167.79 15.4255 167.123 15.0882 166.413C14.7668 165.665 14.5308 164.894 14.3788 164.099C14.2455 163.225 14.2108 162.339 14.2788 161.457C14.3815 160.487 14.5962 159.533 14.9162 158.607C15.2895 157.646 15.7668 156.738 16.3535 155.891C16.9135 155.123 17.5588 154.435 18.2842 153.821C18.9308 153.309 19.6228 152.873 20.3615 152.522C21.0402 152.225 21.7362 152.009 22.4628 151.867C23.2722 151.741 24.0842 151.709 24.9095 151.769C25.7308 151.855 26.5388 152.027 27.3228 152.301C27.8962 152.527 28.4428 152.803 28.9562 153.146C29.3188 153.415 29.6468 153.714 29.9415 154.053C30.1402 154.315 30.3108 154.591 30.4562 154.881C30.5602 155.139 30.6455 155.402 30.7042 155.675C30.7468 155.99 30.7548 156.306 30.7375 156.621C30.6895 157.039 30.5908 157.446 30.4562 157.842C30.3428 158.131 30.2082 158.415 30.0695 158.691C29.8082 159.183 29.9948 159.809 30.4868 160.069C30.9775 160.329 31.6068 160.139 31.8628 159.642C32.1308 159.137 32.3428 158.613 32.5148 158.069C32.6802 157.547 32.7482 157.011 32.7802 156.47C32.8388 155.527 32.5802 154.602 32.1655 153.758C31.9722 153.363 31.7028 153.003 31.4188 152.662C31.1375 152.329 30.8255 152.033 30.4842 151.758C29.6908 151.137 28.8028 150.683 27.8495 150.345C26.9042 150.003 25.9215 149.818 24.9202 149.741C23.8628 149.659 22.8255 149.733 21.7868 149.933C19.6988 150.334 17.7962 151.454 16.2615 152.899C15.4895 153.631 14.8362 154.482 14.2575 155.373C13.6842 156.277 13.2468 157.261 12.8988 158.274C12.1855 160.29 12.0308 162.493 12.4095 164.594C12.8162 166.845 13.9162 168.921 15.5188 170.545C16.3135 171.358 17.2482 172.025 18.2628 172.558C19.2615 173.087 20.3348 173.487 21.4295 173.771C22.5588 174.061 23.7268 174.197 24.8935 174.249C26.0388 174.306 27.1882 174.235 28.3242 174.077C30.6375 173.746 32.8815 173.033 34.9335 171.907C36.0402 171.298 37.0642 170.534 37.9762 169.662C39.0548 168.629 39.9162 167.361 40.5788 166.027C41.2268 164.73 41.6708 163.334 42.0788 161.946C42.3388 161.047 42.5882 160.149 42.8522 159.249C43.2642 160.675 43.8428 162.05 44.5308 163.363C46.2828 166.678 48.9428 169.467 52.0802 171.501C52.5655 171.813 53.0682 172.107 53.5788 172.378C56.2282 173.782 59.1908 174.589 62.1908 174.649C65.8215 174.719 69.4135 173.498 72.2802 171.285C74.0082 169.949 75.4775 168.321 76.6655 166.487C77.3135 165.485 77.8082 164.405 78.2042 163.279C78.5802 162.225 78.7722 161.129 78.8655 160.014C79.0442 157.867 78.5868 155.678 77.7068 153.722C77.2268 152.651 76.6348 151.651 75.9335 150.711C75.2015 149.733 74.3722 148.829 73.4748 148.001C72.5895 147.181 71.6255 146.449 70.6148 145.785C69.6428 145.154 68.6082 144.629 67.5268 144.227C66.9695 144.019 66.4148 143.845 65.8402 143.703C65.2295 143.558 64.6082 143.485 63.9842 143.43C62.8188 143.326 61.6362 143.467 60.5068 143.763C59.9148 143.922 59.3562 144.159 58.8028 144.41C58.3002 144.642 57.8148 144.927 57.3668 145.254C56.4815 145.894 55.7402 146.673 55.1228 147.571C53.9855 149.201 53.3935 151.165 53.3682 153.143C53.3455 154.094 53.5108 155.077 53.8228 155.973C54.1575 156.927 54.6975 157.795 55.4082 158.519C56.1255 159.249 57.0388 159.727 58.0028 160.047C58.5335 160.222 59.0855 160.295 59.6415 160.342C60.2735 160.391 60.8988 160.367 61.5295 160.287C61.8002 160.254 62.0268 160.175 62.2242 159.967C62.4135 159.771 62.5122 159.498 62.5002 159.227C62.4788 158.711 61.9882 158.183 61.4428 158.254C60.8562 158.326 60.2775 158.355 59.6882 158.315C59.2348 158.261 58.7895 158.17 58.3522 158.025C57.9868 157.878 57.6428 157.699 57.3148 157.485C57.0335 157.263 56.7762 157.017 56.5402 156.749C56.2988 156.427 56.0868 156.091 55.9095 155.73C55.7188 155.277 55.5815 154.809 55.4868 154.321C55.4002 153.722 55.3775 153.121 55.4255 152.517C55.5002 151.809 55.6602 151.105 55.8988 150.427C56.1588 149.779 56.4828 149.165 56.8735 148.587C57.2655 148.063 57.7095 147.589 58.2028 147.167C58.7135 146.769 59.2602 146.438 59.8442 146.157C60.4762 145.886 61.1322 145.683 61.8028 145.553C62.5442 145.438 63.2815 145.41 64.0255 145.459C64.9428 145.561 65.8388 145.774 66.7108 146.079C67.9562 146.553 69.1215 147.201 70.2162 147.962C71.5855 148.957 72.8362 150.113 73.9148 151.415C74.6748 152.375 75.3308 153.413 75.8522 154.53C76.2455 155.433 76.5375 156.373 76.7148 157.342C76.8575 158.251 76.8962 159.159 76.8308 160.074C76.7295 161.053 76.5068 162.006 76.1855 162.935C75.7602 164.034 75.1975 165.066 74.5282 166.033C73.6202 167.287 72.5722 168.422 71.3828 169.413C70.4175 170.183 69.3748 170.839 68.2535 171.366C67.1535 171.847 66.0095 172.201 64.8295 172.415C63.5868 172.615 62.3255 172.659 61.0628 172.558C59.6108 172.421 58.1828 172.085 56.8015 171.597C55.1908 170.987 53.6708 170.173 52.2628 169.181C50.8188 168.118 49.5148 166.883 48.3748 165.498C47.3322 164.189 46.4495 162.766 45.7468 161.249C45.0948 159.782 44.6228 158.246 44.3348 156.667C44.0828 155.102 44.0308 153.527 44.1535 151.949C44.3588 149.81 44.8842 147.719 45.6162 145.699C46.8642 142.425 48.6362 139.373 50.6655 136.525C51.5735 135.271 52.5228 134.061 53.5855 132.941C54.6908 131.777 55.8935 130.722 57.1242 129.701C57.1122 129.711 57.1028 129.722 57.0882 129.733C57.1042 129.717 57.1215 129.706 57.1348 129.697C57.1375 129.691 57.1402 129.689 57.1468 129.686C57.1442 129.686 57.1402 129.689 57.1402 129.689C57.1535 129.678 57.1695 129.665 57.1828 129.651C57.2015 129.637 57.2215 129.623 57.2402 129.607C57.8095 129.143 58.3908 128.691 58.9708 128.235C61.0162 129.435 63.0322 130.675 65.1282 131.774C66.4162 132.449 67.7402 133.053 69.1002 133.555C70.4215 134.047 71.7895 134.399 73.1535 134.743C75.6988 135.383 78.2975 135.829 80.9188 136.003C83.5535 136.181 86.2322 136.063 88.8202 135.519C90.1175 135.246 91.3935 134.863 92.6228 134.363C93.1175 134.159 93.5975 133.935 94.0722 133.697C94.1975 133.779 94.3468 133.839 94.4868 133.839C95.8895 133.837 97.2815 133.73 98.6748 133.594C99.9442 133.47 101.208 133.334 102.48 133.29C103.704 133.277 104.916 133.367 106.114 133.637C107.043 133.883 107.926 134.241 108.772 134.691C109.811 135.295 110.758 136.03 111.628 136.855C112.655 137.883 113.554 139.025 114.322 140.261C115.088 141.55 115.708 142.925 116.147 144.367C116.468 145.527 116.671 146.711 116.714 147.918C116.72 148.883 116.622 149.845 116.4 150.79C116.186 151.569 115.888 152.313 115.502 153.027C115.1 153.709 114.63 154.334 114.092 154.913C113.514 155.482 112.883 155.985 112.195 156.415C111.431 156.861 110.62 157.211 109.774 157.473C108.831 157.73 107.867 157.875 106.887 157.915C105.856 157.925 104.836 157.81 103.834 157.574C102.915 157.331 102.035 156.982 101.198 156.533C100.488 156.115 99.8295 155.631 99.2322 155.069C98.7095 154.545 98.2522 153.979 97.8575 153.355C97.4428 152.646 97.1175 151.897 96.8722 151.115C96.6522 150.313 96.5215 149.501 96.4882 148.667C96.4882 148.058 96.5468 147.446 96.6788 146.842C96.7988 146.407 96.9562 145.987 97.1642 145.591C97.3335 145.313 97.5282 145.053 97.7455 144.81C97.9482 144.618 98.1615 144.443 98.3975 144.29C98.6722 144.137 98.9615 144.011 99.2615 143.913C99.6708 143.81 100.083 143.751 100.502 143.73C100.812 143.733 101.126 143.754 101.435 143.782C101.987 143.842 102.5 143.443 102.564 142.889C102.627 142.337 102.219 141.818 101.666 141.763C101.099 141.701 100.53 141.691 99.9615 141.733C99.4162 141.766 98.8935 141.899 98.3775 142.069C97.4775 142.361 96.7082 142.935 96.0762 143.626C95.7775 143.957 95.5428 144.337 95.3295 144.727C95.1202 145.11 94.9575 145.506 94.8295 145.922C94.5362 146.894 94.4388 147.881 94.4695 148.894C94.5002 149.899 94.6882 150.878 94.9775 151.839C95.2868 152.858 95.7362 153.793 96.3015 154.689C97.4375 156.485 99.1748 157.853 101.082 158.749C102.044 159.203 103.076 159.498 104.116 159.709C105.17 159.921 106.242 159.967 107.312 159.922C109.448 159.845 111.559 159.186 113.374 158.069C115.319 156.867 116.852 155.089 117.779 153.006C118.244 151.965 118.526 150.85 118.652 149.717C118.784 148.589 118.76 147.446 118.627 146.323C118.486 145.162 118.186 144.03 117.81 142.922C117.442 141.837 116.956 140.79 116.396 139.793C115.244 137.758 113.759 135.933 111.963 134.43C110.992 133.623 109.91 132.949 108.764 132.413C107.408 131.785 105.914 131.446 104.431 131.318C102.987 131.191 101.524 131.287 100.084 131.413C99.1522 131.498 98.2242 131.594 97.2895 131.678C98.4668 130.769 99.5375 129.733 100.507 128.61C102.955 125.771 104.58 122.274 105.328 118.613C105.443 118.047 105.534 117.475 105.598 116.902C105.832 114.85 105.726 112.771 105.312 110.755C104.919 107.43 105.195 102.754 105.584 99.5141C105.83 97.5767 106.135 95.6287 106.596 93.7274C107.154 91.4447 107.898 89.2181 108.775 87.0407C112.308 78.4194 117.724 70.7807 122.454 62.8074C123.792 60.5541 125.09 58.2781 126.179 55.8901C127.183 53.6874 128.058 51.4167 128.763 49.0901C130.175 44.4581 130.99 39.6087 131.024 34.7647C131.062 29.9887 130.368 25.1607 128.719 20.6714Z" fill="#7D7C82"/>
<path d="M57.2968 129.563C57.2768 129.579 57.2568 129.594 57.2395 129.607C57.2248 129.618 57.2115 129.629 57.1995 129.642C57.2341 129.615 57.2635 129.587 57.2968 129.563Z" fill="#7D7C82"/>
<path d="M31.095 119.524C31.095 119.524 31.099 119.527 31.1003 119.532C31.103 119.532 31.1016 119.532 31.107 119.535C31.099 119.527 31.099 119.527 31.095 119.524Z" fill="#C8CFB0"/>
<path d="M9.83325 173.371C9.87592 173.337 9.91992 173.305 9.96392 173.275C9.55725 173.86 9.19325 174.461 8.84392 175.076C8.63992 175.428 8.43192 175.788 8.26125 176.157C8.11992 176.464 8.01325 176.785 7.93858 177.111C7.89592 177.103 7.85325 177.095 7.80792 177.095C7.77058 177.095 7.72925 177.1 7.68925 177.108C7.63192 177.116 7.57458 177.133 7.52792 177.16C7.42925 177.212 7.33325 177.277 7.26792 177.368C7.21325 177.441 7.17192 177.521 7.14392 177.608C7.08258 177.803 7.11725 178.001 7.21592 178.177C7.32125 178.363 7.51458 178.513 7.73725 178.556C7.91192 178.589 8.09325 178.548 8.23992 178.452C8.40392 178.343 8.51592 178.177 8.56525 177.999C8.58925 177.907 8.60258 177.808 8.59058 177.715C8.58125 177.616 8.55058 177.524 8.51058 177.433C8.48658 177.381 8.44658 177.349 8.39592 177.327C8.41058 177.243 8.42658 177.163 8.44792 177.079C8.59192 176.565 8.83325 176.095 9.09192 175.628C9.45858 174.985 9.82392 174.344 10.2426 173.731C10.5239 173.311 10.8346 172.912 11.1573 172.519C10.9626 172.939 10.8079 173.376 10.6946 173.819C10.3026 175.357 10.2533 176.949 10.3546 178.521C10.3493 178.519 10.3466 178.519 10.3439 178.519C10.3386 178.519 10.3333 178.519 10.3279 178.521C10.1839 178.548 10.0666 178.625 9.97325 178.732C9.84525 178.871 9.76258 179.053 9.71725 179.235C9.68658 179.379 9.69058 179.535 9.75325 179.671C9.81192 179.795 9.91325 179.899 10.0386 179.967C10.0719 179.983 10.1013 179.999 10.1373 180.009C10.1666 180.032 10.1999 180.051 10.2386 180.064C10.3293 180.1 10.4373 180.121 10.5399 180.125C10.6986 180.123 10.8586 180.097 10.9906 180.004C11.0773 179.944 11.1359 179.863 11.1759 179.772C11.1946 179.748 11.2079 179.731 11.2199 179.707C11.2759 179.625 11.3106 179.548 11.3346 179.455C11.3519 179.373 11.3573 179.297 11.3519 179.22C11.3426 179.027 11.2719 178.843 11.1759 178.673C11.1186 178.564 10.9826 178.513 10.8613 178.561C10.8413 178.305 10.8253 178.056 10.8199 177.8C10.7826 176.532 10.8559 175.245 11.1613 174.001C11.3093 173.425 11.5133 172.86 11.8039 172.327C11.9773 172.027 12.1826 171.743 12.4186 171.483C12.4373 171.475 12.4533 171.464 12.4733 171.459C12.5533 171.436 12.6359 171.42 12.7146 171.407C12.5386 171.673 12.3053 171.904 12.0839 172.144C11.9679 172.275 11.8413 172.409 11.7413 172.559C11.6519 172.68 11.5799 172.808 11.5173 172.944C11.4733 173.043 11.5173 173.163 11.6066 173.223C11.6826 173.275 11.7706 173.272 11.8586 173.24C12.2666 173.105 12.6386 172.868 12.9826 172.623C13.3226 172.379 13.6533 172.12 13.9879 171.871C14.7066 171.324 15.4253 170.772 16.0879 170.165C16.4333 169.849 16.7719 169.519 17.0839 169.173C17.3533 168.873 17.5933 168.551 17.8186 168.217C17.8239 168.212 17.8266 168.207 17.8293 168.201C17.8466 168.185 17.8613 168.168 17.8733 168.149C18.1453 167.837 18.4106 167.507 18.6013 167.144C18.6399 167.068 18.6759 166.991 18.7079 166.909C18.8626 166.701 19.0319 166.501 19.2146 166.305C19.2426 166.277 19.2679 166.253 19.2959 166.228C19.3439 166.18 19.3773 166.133 19.3853 166.065C19.3946 166.001 19.3719 165.936 19.3306 165.889C19.2479 165.795 19.0733 165.769 18.9746 165.863C18.9013 165.939 18.8253 166.011 18.7533 166.089C18.6999 165.952 18.6093 165.835 18.4946 165.737C18.3533 165.619 18.1693 165.529 17.9866 165.48C17.6893 165.397 17.3693 165.407 17.0613 165.459C16.8879 165.491 16.7159 165.535 16.5546 165.579C16.0333 165.737 15.5279 165.939 15.0439 166.18C14.8253 166.287 14.6093 166.401 14.4053 166.529C14.2919 166.605 14.1813 166.688 14.0733 166.775C13.7999 166.871 13.5386 167.024 13.3066 167.188C12.9693 167.436 12.6613 167.728 12.3666 168.027C12.0639 168.343 11.7799 168.673 11.5106 169.011C11.1173 169.501 10.7506 170.004 10.3866 170.511C10.3746 170.521 10.3613 170.535 10.3493 170.545C8.93325 171.857 7.61325 173.287 6.64125 174.931C6.60792 174.991 6.58792 175.043 6.59858 175.111C6.60525 175.155 6.62658 175.191 6.65058 175.223C6.72125 175.297 6.85725 175.335 6.95192 175.285C7.96925 174.725 8.90792 174.059 9.83325 173.371Z" fill="#F1E6B1"/>
<path d="M13.2917 167.829C13.3663 167.914 13.4877 167.936 13.593 167.892C14.041 167.704 14.4797 167.504 14.9263 167.305C15.301 167.141 15.681 166.985 16.077 166.862C16.4143 166.766 16.757 166.704 17.1063 166.684C17.3757 166.678 17.6383 166.696 17.8997 166.738C17.8997 166.738 17.8997 166.75 17.901 166.758C17.9037 166.79 17.9157 166.842 17.9303 166.862C17.9583 166.91 17.9823 166.944 18.0237 166.974C18.0543 167.001 18.0917 167.017 18.1263 167.032C18.1717 167.048 18.233 167.053 18.2797 167.053C18.349 167.056 18.4237 167.045 18.4903 167.032C18.577 167.014 18.665 166.99 18.741 166.949C18.909 166.86 19.0517 166.741 19.1717 166.594C19.3063 166.433 19.4157 166.256 19.5077 166.074C19.7157 165.657 19.8517 165.22 19.9517 164.774C20.0183 164.485 20.081 164.193 20.097 163.897C21.1477 162.472 22.1557 161.022 23.2063 159.597C24.429 157.944 25.7103 156.324 27.149 154.826C29.1557 152.761 31.4317 150.928 33.9157 149.397C34.4757 149.056 35.0383 148.73 35.6157 148.42C35.7157 148.365 35.7783 148.272 35.7637 148.162C35.7437 148.064 35.6477 147.968 35.5383 147.965C35.321 147.969 35.113 147.985 34.901 148.022C34.8117 148.037 34.721 148.056 34.633 148.077C34.329 148.16 34.0357 148.264 33.753 148.402C33.1703 148.678 32.633 149.034 32.1237 149.42C31.5943 149.821 31.0863 150.248 30.565 150.662C30.0463 151.077 29.4917 151.454 28.9637 151.857C27.773 152.761 26.6397 153.736 25.5797 154.78C24.5063 155.84 23.5077 156.962 22.5703 158.129C21.1357 159.92 19.8357 161.802 18.5023 163.665C18.281 163.736 18.0623 163.818 17.849 163.914C17.2223 164.189 16.633 164.534 16.0797 164.922C15.5157 165.316 14.9863 165.745 14.4943 166.214C14.0583 166.632 13.649 167.069 13.281 167.54C13.213 167.626 13.2183 167.753 13.2917 167.829Z" fill="#95A975"/>
<path d="M5.88933 159.582C5.88933 159.582 2.37867 161.462 0 157.454C0 157.454 4.24667 157.18 5.88933 159.582Z" fill="#95A975"/>
<path d="M10.7864 158.668C10.7864 158.668 7.27844 160.545 4.89844 156.537C4.89844 156.537 9.14377 156.266 10.7864 158.668Z" fill="#95A975"/>
<path d="M17.8998 156.584C17.8998 156.584 14.3892 158.459 12.0105 154.454C12.0105 154.454 16.2585 154.183 17.8998 156.584Z" fill="#95A975"/>
<path d="M10.4194 152.292C10.4194 152.292 6.66069 150.986 7.98869 146.522C7.98869 146.522 11.0687 149.454 10.4194 152.292Z" fill="#95A975"/>
<path d="M32.1732 149.884C32.1732 149.884 27.5825 153.657 22.9292 148.485C22.9292 148.485 29.0679 146.848 32.1732 149.884Z" fill="#95A975"/>
<path d="M33.7096 158.167C33.7096 158.167 29.5122 153.965 34.2069 148.829C34.2069 148.829 36.4322 154.782 33.7096 158.167Z" fill="#95A975"/>
<path d="M40.5416 154.1C40.5416 154.1 36.3429 149.895 41.0376 144.764C41.0376 144.764 43.2602 150.717 40.5416 154.1Z" fill="#95A975"/>
<path d="M38.1979 146.293C38.1979 146.293 33.6072 150.066 28.9539 144.897C28.9539 144.897 35.0952 143.257 38.1979 146.293Z" fill="#95A975"/>
<path d="M16.996 153.485C16.996 153.485 13.0173 153.587 12.6907 148.939C12.6907 148.939 16.608 150.605 16.996 153.485Z" fill="#95A975"/>
<path d="M10.5937 159.313C10.5937 159.313 11.3283 163.225 6.79102 164.287C6.79102 164.287 7.80968 160.157 10.5937 159.313Z" fill="#95A975"/>
<path d="M17.2265 157.105C17.2265 157.105 17.9598 161.02 13.4211 162.081C13.4211 162.081 14.4425 157.949 17.2265 157.105Z" fill="#95A975"/>
<path d="M54.9934 124.235C55.4347 123.751 55.8094 123.208 56.0907 122.62C56.3321 122.11 56.4907 121.574 56.5801 121.016C56.6041 120.959 56.6147 120.894 56.6121 120.831C56.6094 120.82 56.6134 120.808 56.6121 120.792C56.6187 120.746 56.6214 120.702 56.6281 120.656C56.6347 120.582 56.6241 120.506 56.6001 120.438C56.5907 120.276 56.5801 120.115 56.5627 119.954C56.6187 120.019 56.6654 120.076 56.7134 120.144C56.8054 120.259 56.9801 120.323 57.1201 120.323C57.2001 120.326 57.2734 120.314 57.3454 120.29C57.3547 120.298 57.3734 120.303 57.3814 120.308C58.0054 120.576 58.7067 120.582 59.3667 120.675C60.3614 120.842 61.3201 121.164 62.3134 121.326C62.7521 121.396 63.1881 121.44 63.6294 121.407C64.1467 121.36 64.6187 121.227 65.0907 121.014C65.5881 120.792 66.0361 120.44 66.4494 120.09C66.8387 119.759 67.1867 119.38 67.5041 118.983C68.0494 118.282 68.4641 117.506 68.7427 116.664C69.0014 115.858 69.1107 114.984 69.1281 114.139C69.1374 113.256 69.0347 112.368 68.8841 111.498C68.8014 111.024 68.7027 110.558 68.5894 110.09C68.3094 108.938 67.9547 107.811 67.6214 106.672C67.4027 105.93 67.1641 105.196 66.8601 104.487C66.5934 103.839 66.2414 103.202 65.7481 102.704C65.5187 102.475 65.2441 102.29 64.9401 102.159C64.6214 102.03 64.2761 102.003 63.9307 102.042C63.5921 102.09 63.2694 102.227 62.9627 102.375C62.5654 102.571 62.2081 102.834 61.8547 103.099C61.0987 103.662 60.4187 104.331 59.7654 105.006C59.1561 105.62 58.5801 106.263 57.9881 106.888C57.6867 107.214 57.3734 107.54 57.0827 107.878C56.7574 108.266 56.4454 108.67 56.1561 109.09C55.6401 109.828 55.2214 110.634 54.9081 111.472C54.6534 112.136 54.5041 112.842 54.4281 113.547C54.3587 114.224 54.4014 114.918 54.5121 115.587C54.1281 115.246 53.6961 114.956 53.2427 114.716C52.6281 114.388 51.9654 114.154 51.2867 114.014C50.5494 113.855 49.7921 113.834 49.0427 113.883C47.5614 113.978 46.1121 114.355 44.6387 114.516C44.0507 114.571 43.4481 114.602 42.8587 114.519C42.1614 114.38 41.4987 114.131 40.7907 114.03C40.4481 113.978 40.1241 113.98 39.7827 114.035C39.3987 114.092 39.0574 114.303 38.7707 114.552C38.5321 114.763 38.3547 115.058 38.2374 115.347C38.1214 115.656 38.0681 115.99 38.0467 116.311C38.0321 116.662 38.0747 117.019 38.1121 117.366C38.1467 117.686 38.1987 118.008 38.2387 118.32C38.2654 118.667 38.2654 118.998 38.2147 119.344C38.1427 119.816 38.0614 120.279 38.0027 120.748C37.9574 121.102 37.9507 121.443 37.9907 121.8C38.0307 122.162 38.1481 122.503 38.3001 122.842C38.4814 123.232 38.7281 123.595 38.9814 123.94C39.2987 124.388 39.6374 124.828 40.0174 125.246C40.5921 125.891 41.2734 126.464 42.0134 126.918C43.4774 127.803 45.2054 128.082 46.8921 127.904C48.5947 127.732 50.2641 127.211 51.8094 126.486C52.9854 125.932 54.1067 125.186 54.9934 124.235Z" fill="#F1E6B1"/>
<path d="M54.8917 140.998C55.5184 140.191 55.9851 139.269 56.3851 138.329C56.7797 137.391 57.0731 136.413 57.3091 135.427C57.7331 133.711 57.9931 131.917 57.9331 130.149C57.9144 129.599 57.8571 128.987 57.7144 128.405C57.4331 127.243 56.8304 126.181 55.5917 125.875C55.2717 125.801 54.9464 125.959 54.8517 126.277C54.8397 126.315 54.8317 126.345 54.8304 126.378C53.5664 126.451 52.3171 126.746 51.1304 127.17C50.3611 127.446 49.6024 127.779 48.8797 128.167C48.1437 128.558 47.4544 129.011 46.7891 129.509C45.5211 130.451 44.4011 131.621 43.6051 132.99C43.2237 133.649 42.9237 134.362 42.7384 135.105C42.5331 135.878 42.4784 136.683 42.5331 137.49C42.6077 138.581 42.8331 139.662 43.1851 140.701C43.4784 141.577 43.8744 142.479 44.5051 143.175C44.7277 143.417 45.0064 143.607 45.3157 143.738C45.6197 143.859 45.9477 143.907 46.2704 143.915C46.6317 143.933 46.9957 143.905 47.3597 143.886C47.9477 143.85 48.5411 143.831 49.1291 143.793C49.6731 143.761 50.2224 143.701 50.7584 143.607C51.3331 143.511 51.8877 143.329 52.4197 143.089C53.4251 142.646 54.2184 141.853 54.8917 140.998Z" fill="#F1E6B1"/>
<path d="M70.7891 145.889C71.0971 145.605 71.3585 145.264 71.6145 144.933C71.8625 144.597 72.0905 144.244 72.3171 143.892C72.8171 143.082 73.2358 142.222 73.5038 141.305C73.7931 140.342 73.8865 139.318 73.8011 138.31C73.7678 137.886 73.6958 137.468 73.5958 137.058C73.4465 136.441 73.2291 135.842 72.9638 135.261C72.5438 134.365 71.9238 133.569 71.2451 132.853C70.5238 132.086 69.6771 131.417 68.7985 130.84C67.9758 130.296 67.0918 129.848 66.1865 129.465C65.4131 129.138 64.6078 128.886 63.7825 128.73C63.6891 128.637 63.5211 128.542 63.3785 128.553C62.5811 128.626 61.7771 128.753 61.0718 129.138C60.7985 129.288 60.5505 129.49 60.3491 129.722C60.0985 130.001 59.9318 130.31 59.7945 130.652C59.6505 130.985 59.5945 131.345 59.5385 131.694C59.4665 132.141 59.4505 132.582 59.4451 133.025C59.4305 133.936 59.4531 134.845 59.4971 135.75C59.5505 136.785 59.6505 137.821 59.8105 138.845C59.9625 139.798 60.1798 140.746 60.5345 141.652C60.8585 142.52 61.3158 143.342 62.0091 143.974C62.6425 144.537 63.4291 144.856 64.2598 145.025C64.9118 145.162 65.5838 145.225 66.2385 145.316C66.4385 145.358 66.6318 145.43 66.8251 145.509C67.5211 145.834 68.1771 146.244 68.8985 146.52C69.1891 146.624 69.4918 146.637 69.7811 146.548C70.1678 146.425 70.4971 146.162 70.7891 145.889Z" fill="#F1E6B1"/>
<path d="M69.2928 118.592C68.9208 118.847 68.5608 119.116 68.2075 119.392C67.5035 119.944 66.8488 120.545 66.2488 121.204C65.6581 121.855 65.1288 122.576 64.7421 123.368C64.3835 124.113 64.1568 124.925 64.1915 125.761C64.2181 126.501 64.4088 127.24 64.7688 127.892C65.4261 129.081 66.6595 129.775 67.9408 130.119C69.3261 130.488 70.8101 130.496 72.2395 130.379C72.9555 130.319 73.6688 130.223 74.3741 130.097C75.0981 129.967 75.8181 129.819 76.5235 129.6C77.0621 129.436 77.5901 129.223 78.0941 128.956C78.5755 128.699 79.0235 128.368 79.4355 128.007C79.8568 127.644 80.2301 127.223 80.5821 126.792C80.7888 126.545 80.9848 126.285 81.1795 126.027C81.3461 125.821 81.4901 125.597 81.6528 125.384C82.0581 124.907 82.4995 124.461 82.8915 123.967C83.2648 123.501 83.6328 122.944 83.6235 122.308C83.6208 122.269 83.6141 122.215 83.6021 122.171C83.5408 121.912 83.3315 121.707 83.0461 121.701C82.8261 121.691 82.6061 121.827 82.5008 122.019C82.3901 121.944 82.2781 121.865 82.1741 121.783C81.4355 121.173 80.8301 120.417 80.2208 119.683C79.5901 118.92 78.9208 118.193 78.0915 117.636C77.3341 117.136 76.4448 116.912 75.5475 116.829C74.6128 116.74 73.6528 116.844 72.7381 117.051C71.8621 117.245 70.9941 117.561 70.2141 117.999C69.8955 118.177 69.5888 118.384 69.2928 118.592Z" fill="#F1E6B1"/>
<path d="M60.8646 126.686C60.7486 126.431 60.4353 126.347 60.1779 126.418C60.3766 126.271 60.5379 126.087 60.6833 125.891C60.7113 125.855 60.7273 125.816 60.7499 125.782C60.8326 126.04 60.9379 126.295 61.0699 126.53C60.9953 126.579 60.9313 126.652 60.8819 126.732C60.8726 126.716 60.8739 126.699 60.8646 126.686ZM58.8246 125.847C58.7539 125.814 58.6739 125.798 58.5966 125.803C58.4686 125.811 58.3393 125.831 58.2153 125.855C58.2393 125.748 58.2433 125.644 58.2126 125.55C58.2113 125.472 58.2019 125.391 58.1913 125.316C58.1673 125.248 58.1406 125.183 58.1139 125.11C58.0699 125.05 58.0246 124.995 57.9779 124.931C57.9659 124.918 57.9486 124.91 57.9366 124.896C58.0753 124.811 58.1966 124.67 58.2633 124.54C58.2593 124.595 58.2646 124.655 58.2806 124.714C58.3246 124.839 58.3633 124.948 58.4553 125.047C58.5793 125.172 58.7273 125.243 58.8953 125.3C58.9446 125.316 59.0046 125.324 59.0593 125.336C58.9726 125.498 58.9033 125.664 58.8566 125.844C58.8486 125.844 58.8366 125.844 58.8246 125.847ZM58.3993 124.008C58.3953 123.948 58.3886 123.888 58.3753 123.828C58.4059 123.834 58.4393 123.842 58.4699 123.836C58.5553 123.831 58.6286 123.819 58.7046 123.787C58.6606 123.831 58.6086 123.866 58.5646 123.904C58.4979 123.967 58.4393 124.05 58.3846 124.134C58.3886 124.095 58.4006 124.055 58.3993 124.008ZM60.4153 122.822C60.4353 122.858 60.4579 122.891 60.4819 122.92C60.4406 123 60.3966 123.076 60.3646 123.162C60.3099 123.282 60.2699 123.399 60.2379 123.527C60.2206 123.516 60.1966 123.498 60.1753 123.488C60.1819 123.464 60.2006 123.456 60.2086 123.431C60.2646 123.262 60.3179 123.092 60.3606 122.923C60.3833 122.894 60.3953 122.858 60.4153 122.822ZM62.3806 124.566C62.2219 124.667 62.0953 124.795 61.9979 124.954C61.8993 124.876 61.8019 124.806 61.6939 124.743C61.7913 124.532 61.8793 124.314 61.9579 124.087C61.9619 124.076 61.9633 124.063 61.9673 124.047C61.9686 124.084 61.9659 124.12 61.9739 124.155C62.0246 124.36 62.1899 124.508 62.3806 124.566ZM61.4406 128.694C61.5899 128.888 61.7713 129.071 61.9846 129.196C62.2646 129.36 62.6073 129.374 62.8859 129.21C63.0299 129.123 63.1259 129.006 63.2179 128.871C63.3059 128.735 63.3326 128.568 63.3473 128.41C63.3593 128.331 63.3486 128.24 63.3286 128.158C63.3553 128.055 63.3673 127.948 63.3566 127.863C63.3499 127.779 63.3406 127.716 63.3246 127.652C63.3099 127.59 63.2886 127.53 63.2566 127.448C63.2126 127.35 63.1579 127.256 63.0939 127.167C63.0139 127.05 62.9113 126.959 62.8153 126.86C62.8153 126.86 62.8153 126.85 62.8206 126.847C63.0579 126.883 63.3099 126.86 63.5233 126.754C63.9233 126.795 64.3326 126.754 64.7179 126.642C64.9579 126.579 65.1939 126.355 65.1739 126.087C65.1673 125.992 65.1606 125.902 65.1406 125.816C65.1379 125.808 65.1353 125.792 65.1326 125.784C65.1139 125.702 65.0766 125.62 65.0446 125.552C64.9846 125.396 64.8673 125.267 64.7606 125.147C64.5233 124.876 64.1846 124.678 63.8553 124.543C63.7259 124.492 63.5953 124.454 63.4566 124.426C63.7339 124.35 64.0033 124.267 64.2686 124.155C64.5246 124.038 64.7859 123.836 64.9086 123.582C64.9739 123.438 65.0246 123.298 65.0073 123.136C65.0006 123.055 64.9926 122.983 64.9739 122.907C64.9459 122.792 64.9006 122.691 64.8406 122.582C64.4953 122.003 63.7526 121.935 63.1593 122.084C63.0473 122.11 62.9353 122.158 62.8206 122.204C63.0433 121.847 63.2153 121.426 63.1166 121.022C63.1019 120.956 63.0766 120.891 63.0473 120.828C62.9166 120.56 62.6513 120.391 62.3619 120.336C62.1779 120.303 62.0153 120.306 61.8299 120.342C61.7326 120.366 61.6446 120.407 61.5593 120.454C61.4339 120.495 61.3206 120.571 61.2446 120.683C61.1313 120.784 61.0299 120.918 60.9446 121.035C60.8259 121.188 60.7339 121.371 60.6553 121.546C60.6313 121.592 60.6179 121.636 60.5966 121.678C60.5846 121.579 60.5726 121.48 60.5499 121.383C60.5446 121.17 60.5139 120.954 60.4633 120.746C60.4006 120.486 60.3019 120.235 60.1499 120.014C60.1073 119.92 60.0313 119.852 59.9433 119.798C59.8246 119.719 59.6313 119.675 59.4926 119.722C59.3286 119.787 59.1993 119.842 59.0633 119.959C58.9553 120.038 58.8766 120.155 58.7913 120.264C58.7019 120.383 58.6513 120.53 58.5913 120.667C58.5433 120.774 58.5286 120.883 58.5033 121C58.4273 120.931 58.3566 120.855 58.2753 120.808C57.9979 120.639 57.6286 120.727 57.4593 121.006C57.4539 121.006 57.4539 121.008 57.4499 121.016C57.4273 121.032 57.4046 121.05 57.3819 121.074C57.2646 121.183 57.2166 121.322 57.2019 121.48C57.1726 121.688 57.2113 121.904 57.2419 122.107C57.2859 122.347 57.3619 122.574 57.4446 122.8C57.2566 122.691 57.0526 122.598 56.8459 122.519C56.7286 122.456 56.6099 122.41 56.4899 122.358C56.3486 122.298 56.1566 122.339 56.0273 122.407C55.8366 122.514 55.7486 122.699 55.7259 122.907C55.6979 123.159 55.7739 123.399 55.8766 123.626C55.9873 123.888 56.1486 124.12 56.3339 124.342C56.3446 124.352 56.3579 124.368 56.3753 124.383C56.2979 124.363 56.2179 124.339 56.1339 124.336C55.8699 124.322 55.6099 124.47 55.4246 124.639C55.2299 124.811 55.1646 125.066 55.1326 125.306C55.1233 125.418 55.1486 125.54 55.1699 125.65C55.1806 125.699 55.2006 125.754 55.2246 125.798C55.2233 125.951 55.2833 126.1 55.3846 126.21C55.4366 126.262 55.5006 126.306 55.5659 126.336C55.6379 126.412 55.7179 126.478 55.7979 126.53C56.0046 126.686 56.2393 126.774 56.4913 126.811C56.5619 126.819 56.6246 126.814 56.6939 126.814C56.6086 126.975 56.5593 127.158 56.5553 127.342C56.5446 127.688 56.7366 128.071 57.0033 128.29C57.2539 128.498 57.5739 128.607 57.9006 128.532C58.1659 128.475 58.3926 128.334 58.5979 128.162C58.5406 128.54 58.5259 128.931 58.6206 129.3C58.7046 129.618 59.0179 129.808 59.3419 129.738C59.5873 129.683 59.7873 129.579 59.9499 129.436C59.9833 129.436 60.0126 129.436 60.0499 129.434C60.7526 129.371 61.0499 128.836 61.1153 128.216C61.1166 128.222 61.1233 128.232 61.1259 128.235C61.2193 128.394 61.3286 128.547 61.4406 128.694Z" fill="#B4AB83"/>
</svg>
