<svg width="154" height="78" viewBox="0 0 154 78" fill="none" xmlns="http://www.w3.org/2000/svg">
<path d="M47.183 66.7442C47.8244 65.8429 49.231 65.7522 50.3297 66.5362C51.423 67.3176 51.7897 68.6789 51.1484 69.5802C50.507 70.4762 49.099 70.5696 48.003 69.7856C46.911 69.0016 46.5417 67.6429 47.183 66.7442Z" fill="#D6CB9B"/>
<path d="M0.393843 47.2285C0.347176 47.2565 0.309843 47.2805 0.273843 47.3098C0.24851 47.3325 0.223176 47.3592 0.199176 47.3845L0.17651 47.4112C0.089843 47.5018 0.0325096 47.6378 0.00584295 47.7965C-0.00215705 47.8592 -0.00215703 47.9258 0.0071763 47.9965C0.021843 48.0898 0.0551763 48.1792 0.10051 48.2525C0.12851 48.3018 0.15651 48.3432 0.191176 48.3845C0.22451 48.4218 0.259176 48.4552 0.299176 48.4885L0.309843 48.4992C0.383176 48.5672 0.477843 48.6138 0.567176 48.6578C0.671176 48.7098 0.781843 48.7445 0.865843 48.7645C0.975176 48.7885 1.08051 48.8098 1.18451 48.8245C1.18318 48.8458 1.18584 48.8645 1.18584 48.8845C1.18718 48.9058 1.18851 48.9232 1.19118 48.9445C1.20851 49.0538 1.25918 49.1712 1.34051 49.2938C1.40984 49.4005 1.50851 49.4992 1.63784 49.5898C1.85118 49.7338 2.11384 49.8325 2.48451 49.9032C2.74184 49.9552 3.01651 49.9658 3.30318 49.9472C3.31784 49.9418 3.34184 49.9445 3.36184 49.9418C3.36851 49.9685 3.38184 50.0045 3.39918 50.0405C3.43251 50.0978 3.46451 50.1458 3.49918 50.1872C3.55518 50.2565 3.63518 50.3272 3.72851 50.3925C3.95118 50.5405 4.20584 50.6245 4.38184 50.6792C4.67118 50.7645 4.98984 50.8298 5.36184 50.8792C5.35918 50.8845 5.36051 50.8872 5.35784 50.8898C5.35118 50.9472 5.35118 51.0125 5.36184 51.0805L5.36318 51.0978C5.37784 51.1978 5.41651 51.2965 5.44984 51.3765C5.49251 51.4738 5.55118 51.5725 5.62851 51.6712C5.74984 51.8298 5.93384 51.9632 6.15784 52.0592C6.33118 52.1352 6.54718 52.1818 6.79784 52.1978C7.02851 52.2072 7.28051 52.1952 7.56851 52.1498C7.87784 52.1032 8.20051 52.0285 8.56051 51.9112C8.56051 51.9192 8.56051 51.9258 8.55918 51.9312C8.55918 51.9712 8.56051 52.0152 8.56184 52.0538C8.56318 52.0885 8.56584 52.1165 8.57118 52.1498C8.57918 52.2045 8.58984 52.2552 8.60584 52.3045C8.63918 52.4258 8.67251 52.5378 8.72318 52.6378C8.76984 52.7232 8.82184 52.7992 8.87918 52.8565C8.96318 52.9338 9.04851 53.0018 9.16451 53.0618C9.30851 53.1405 9.48184 53.1898 9.71251 53.2232C9.94584 53.2552 10.1858 53.2498 10.4098 53.2338C10.8978 53.2045 11.3778 53.1058 11.7805 53.0125C11.8885 52.9858 11.9952 52.9632 12.1018 52.9338L12.1045 52.9365C12.0992 52.9525 12.0965 52.9658 12.0938 52.9805C12.0912 53.0378 12.0938 53.0925 12.1018 53.1498C12.1338 53.3458 12.2405 53.5152 12.4072 53.6325C12.6258 53.7885 12.9085 53.8298 13.1018 53.8512C13.3832 53.8792 13.6685 53.8645 13.9112 53.8432C14.1232 53.8245 14.3458 53.7965 14.5738 53.7525C14.9072 53.6872 15.2445 53.6112 15.5712 53.5405C15.7085 53.5098 15.8472 53.4792 15.9845 53.4498C16.6525 53.3072 17.3685 53.1632 18.0952 53.0698C18.0658 53.0832 18.0392 53.0925 18.0112 53.1085C17.9165 53.1552 17.8165 53.2045 17.7192 53.2592C17.5098 53.3712 17.2898 53.5018 17.0405 53.6578C16.8605 53.7418 16.6978 53.8218 16.5432 53.9112C16.2805 54.0565 15.9458 54.2645 15.6898 54.5618C15.5045 54.7778 15.4138 55.0485 15.4498 55.2832C15.4538 55.3045 15.4605 55.3325 15.4672 55.3592C15.4872 55.4258 15.5098 55.5018 15.5512 55.5725C15.5898 55.6378 15.6405 55.7125 15.7072 55.7832C15.8325 55.9112 15.9778 56.0232 16.1565 56.1218C16.3445 56.2285 16.5192 56.3098 16.6898 56.3672C16.9152 56.4418 17.1498 56.4832 17.3858 56.4858C17.8005 56.4938 18.2365 56.3845 18.6792 56.1605C19.1378 55.9285 19.5512 55.6112 19.9512 55.3018C20.3285 55.1192 20.7138 54.8898 21.0872 54.6245C21.2018 54.5432 21.3152 54.4605 21.4218 54.3685C21.5992 54.2965 21.7885 54.2285 21.9792 54.1712C22.3952 54.0538 22.8098 53.9738 23.2685 53.8898C23.3738 53.9005 23.4818 53.9138 23.5872 53.9218C23.6352 53.9338 23.6818 53.9525 23.7325 53.9658L23.7978 53.9885C23.8418 54.0285 23.8832 54.0672 23.9272 54.1058C23.9205 54.1085 23.9098 54.1058 23.9045 54.1085H23.9018C23.8152 53.9938 23.6512 53.9445 23.5138 54.0072C23.2752 54.1192 23.0325 54.2312 22.7978 54.3565C22.6032 54.4192 22.4218 54.4912 22.2592 54.5752C22.1512 54.6005 22.0538 54.6325 21.9605 54.6632C21.8698 54.6952 21.7858 54.7312 21.7085 54.7752C21.6525 54.8072 21.6032 54.8378 21.5578 54.8685C21.5165 54.9032 21.4778 54.9418 21.4405 54.9805L21.4245 54.9992C21.3965 55.0338 21.3725 55.0672 21.3525 55.1058C21.5138 55.0885 21.6765 55.0858 21.8392 55.0898C22.1765 55.0952 22.5165 55.1298 22.8525 55.1792C23.2085 55.2392 23.5725 55.3098 23.9112 55.4338C24.0578 55.4858 24.2072 55.5538 24.3352 55.6432C24.4778 55.7392 24.6178 55.8618 24.7152 56.0018C24.8178 56.1552 24.9058 56.3192 24.9352 56.5045C25.0058 56.4658 25.1045 56.4712 25.1778 56.5018C25.2538 56.5312 25.3152 56.5925 25.3498 56.6658C25.3858 56.7445 25.3858 56.8352 25.3552 56.9138C25.3245 56.9938 25.2658 57.0432 25.1912 57.0858C25.0365 57.1738 24.8832 57.2592 24.7298 57.3378C24.7018 57.3738 24.6738 57.4112 24.6432 57.4418C24.5765 57.5125 24.5098 57.5805 24.4285 57.6352C24.3485 57.6898 24.2685 57.7392 24.1845 57.7832C24.2685 57.7992 24.3578 57.8045 24.4565 57.8045C24.5685 57.8045 24.6992 57.7992 24.8338 57.7645C25.1085 57.6898 25.3458 57.5378 25.5685 57.3765C26.0058 57.2592 26.4325 57.1218 26.8472 56.9445C27.1365 56.8138 27.4192 56.6605 27.6805 56.4832C27.6992 56.4712 27.7192 56.4552 27.7405 56.4392C27.9618 56.3685 28.1938 56.2912 28.4365 56.2072C29.0605 55.9912 29.7178 55.7418 30.5085 55.4165C31.3232 55.5432 32.1485 55.6818 32.9512 55.8138C33.3472 55.8792 33.7458 55.9445 34.1405 56.0125C34.1378 56.0152 34.1378 56.0125 34.1352 56.0152C34.1205 56.0205 34.1058 56.0258 34.0912 56.0352L34.0765 56.0432C33.5325 56.1498 32.9952 56.3138 32.5365 56.4632C32.1672 56.5805 31.8058 56.7072 31.4978 56.8165C30.8645 56.9032 30.3418 57.0098 29.8538 57.1552C29.2338 57.3458 28.7218 57.6165 28.3365 57.9685C28.0885 58.1978 27.8832 58.4765 27.7192 58.7992C27.7058 58.8272 27.6965 58.8645 27.6965 58.9032C27.8498 58.8685 28.0045 58.8298 28.1565 58.7858C28.3472 58.7258 28.5325 58.6578 28.7192 58.5898C29.0992 58.4605 29.4792 58.3432 29.8672 58.2418C30.2898 58.1245 30.7232 58.0232 31.1618 57.9912C31.3538 57.9765 31.5538 57.9685 31.7472 58.0045C31.8378 58.0205 31.9312 58.0432 32.0138 58.0805C32.1125 58.1298 32.1858 58.1765 32.2605 58.2525C32.3952 58.3872 32.4432 58.5885 32.4285 58.7725C32.4098 59.0018 32.3032 59.2098 32.1898 59.4085C32.1858 59.4112 32.1845 59.4138 32.1832 59.4192C32.1285 59.5698 32.0658 59.7205 31.9872 59.8672C31.9045 60.0178 31.8125 60.1632 31.7178 60.3098C31.7512 60.3245 31.7832 60.3352 31.8152 60.3352C32.0898 60.3432 32.3432 60.3138 32.5885 60.2498C32.8605 60.1765 33.1218 60.0698 33.3885 59.9218C33.8685 59.6578 34.3365 59.3018 34.8552 58.7965C35.6098 58.0592 36.2512 57.2258 36.8445 56.4312C37.6418 56.5538 38.3672 56.6472 39.0685 56.7312C40.7325 56.9218 42.2712 57.0232 43.7778 57.0352C44.1112 57.0378 44.4778 57.0352 44.9325 57.0232C44.9218 57.0338 44.9152 57.0458 44.9045 57.0592C44.8578 57.1112 44.8112 57.1658 44.7645 57.2178C44.3952 57.4792 44.0218 57.7752 43.6232 58.1325C43.3205 58.2885 43.0125 58.4192 42.6712 58.5565C42.1858 58.7552 41.7512 58.9418 41.3445 59.2005C41.2805 59.2392 41.2218 59.2778 41.1592 59.3192C40.7552 59.4165 40.4098 59.5512 40.1098 59.7392C39.9085 59.8645 39.7192 60.0045 39.5352 60.1685C39.3152 60.3592 39.1072 60.5805 38.9405 60.7565C38.6818 61.0285 38.3978 61.2858 38.1258 61.5338C37.9138 61.7258 37.6938 61.9258 37.4898 62.1325C37.1832 62.4365 36.9632 62.6845 36.7738 62.9338C36.7325 62.9885 36.6952 63.0405 36.6592 63.0978C36.7458 63.0178 36.8325 62.9392 36.9205 62.8618C37.2485 62.5698 37.5885 62.2965 37.9578 62.0618C38.2738 61.8565 38.6032 61.6685 38.9392 61.5045C39.2685 61.3378 39.6138 61.1925 39.9778 61.1245C40.1592 61.0858 40.3485 61.0672 40.5352 61.0832C40.6992 61.0925 40.8712 61.1272 41.0232 61.1952C41.2098 61.2805 41.3778 61.3978 41.5192 61.5485C41.6592 61.7018 41.7858 61.8872 41.8498 62.0885C41.8885 62.2125 41.9205 62.3352 41.9338 62.4605C42.0072 62.4765 42.0738 62.5152 42.1218 62.5725C42.1792 62.6432 42.1912 62.7205 42.1912 62.8098C42.1912 63.9805 41.8192 65.0925 41.2818 66.1218C42.4058 65.5178 43.4325 64.5618 44.4232 63.2005C44.8352 62.6325 45.2432 61.9885 45.6645 61.2285C46.0178 60.5978 46.3672 59.9138 46.7378 59.1298C47.0738 58.4165 47.3978 57.6792 47.7072 56.9712L47.7258 56.9258C48.0138 56.9218 48.2992 56.9138 48.5885 56.9058L48.5538 56.9085L48.5498 56.9058L48.5485 56.9085C48.5485 56.9085 48.5458 56.9058 48.5472 56.9085H48.5432C49.3672 56.8898 50.1965 56.8765 51.0218 56.8712C54.5525 56.8378 58.1045 56.8872 61.5632 56.9365L61.6445 56.9392C61.6272 56.9525 61.6085 56.9685 61.5885 56.9805C61.5245 57.0312 61.4618 57.0832 61.4018 57.1325C60.9712 57.4885 60.5832 57.9032 60.2525 58.2592C60.1112 58.4192 59.9712 58.5752 59.8272 58.7365C59.6338 58.9525 59.4312 59.1765 59.2285 59.3952C59.0765 59.5512 58.9552 59.6685 58.8312 59.7778C58.6952 59.8952 58.5338 60.0125 58.3432 60.1352C57.6912 60.5285 56.9592 60.7592 56.2672 60.9658L56.3058 60.9552H56.3098H56.3112H56.3085H56.3058H56.3045L56.2605 60.9658C56.0592 61.0285 55.8525 61.0885 55.6445 61.1378C55.4578 61.1845 55.2712 61.2232 55.0818 61.2618L55.0352 61.2698L54.9858 61.2805C54.5112 61.3792 54.0258 61.4792 53.5472 61.6112C53.0778 61.7365 52.5805 61.8898 52.1272 62.1472C51.6538 62.4112 51.3685 62.7098 51.2458 63.0672C51.2272 63.1218 51.2218 63.1765 51.2312 63.2338L51.2298 63.2365C51.2645 63.2338 51.2992 63.2312 51.3338 63.2285C51.3658 63.2258 51.4032 63.2285 51.4378 63.2285H51.4405C51.4432 63.2258 51.4432 63.2285 51.4485 63.2258C51.4525 63.2285 51.4512 63.2258 51.4525 63.2258L51.4552 63.2285C51.4578 63.2285 51.4578 63.2285 51.4605 63.2258V63.2285C51.4645 63.2285 51.4685 63.2285 51.4725 63.2258C51.4778 63.2285 51.4845 63.2258 51.4885 63.2285C51.5032 63.2285 51.5152 63.2258 51.5285 63.2285C52.1312 62.9578 52.7338 62.6925 53.3418 62.4392C54.4418 61.9805 55.5632 61.5752 56.7085 61.2525C56.7778 61.1818 56.8752 61.1432 56.9778 61.1498C57.0045 61.1525 57.0298 61.1552 57.0525 61.1578C57.3618 61.0778 57.6698 61.0045 57.9805 60.9365C58.1485 60.9032 58.3178 61.0378 58.3418 61.2018C58.3618 61.3245 58.3112 61.4285 58.2258 61.4992C58.2325 61.5018 58.2405 61.5072 58.2445 61.5072C58.3952 61.6218 58.5272 61.7672 58.6072 61.9392C58.6912 62.1165 58.7338 62.3165 58.7405 62.5125C58.7472 62.7805 58.7258 63.0405 58.6765 63.3072C58.6232 63.5952 58.5538 63.8845 58.4578 64.1605C58.3618 64.4418 58.2458 64.7178 58.1098 64.9805C58.1618 65.0205 58.2178 65.0512 58.2685 65.0805C58.3272 65.1165 58.3952 65.1272 58.4592 65.1405C58.5072 65.1498 58.5605 65.1552 58.6178 65.1578C58.7632 65.1605 58.8845 65.1432 59.0245 65.0952C59.1205 65.0618 59.2085 65.0045 59.2898 64.9445C59.3898 64.8765 59.4712 64.7938 59.5538 64.7018C59.7298 64.5125 59.8658 64.2912 59.9632 64.1245C60.2845 63.5778 60.5245 62.9858 60.7218 62.4712C60.8205 62.2205 60.9125 61.9765 61.0072 61.7258C61.0765 61.5458 61.1418 61.3672 61.2112 61.1872L61.2205 61.1658C61.3392 60.8565 61.4632 60.5338 61.6205 60.2418C61.6618 60.1632 61.7098 60.0898 61.7658 60.0178C61.9085 59.8325 62.0685 59.6325 62.2565 59.4085C62.6258 58.9712 63.0085 58.5592 63.3312 58.2178L63.3192 58.2312C63.3578 58.1898 63.3952 58.1472 63.4352 58.1058C63.6378 57.8978 63.8418 57.6898 64.0418 57.4792C64.2045 57.3125 64.3659 57.1472 64.5285 56.9765C65.3645 56.9858 66.2045 56.9992 67.0445 57.0018C68.7045 57.0152 70.2205 57.0178 71.6832 57.0045C73.1445 56.9938 74.6965 56.9792 76.2165 56.9058C78.9298 56.7805 81.8458 56.4472 85.4018 55.8538C87.8885 55.4365 90.4045 54.9338 92.8352 54.4472C93.3885 54.3378 93.9405 54.2285 94.4912 54.1192C95.0312 54.0125 95.5725 53.9085 96.1098 53.8045C97.0365 53.6218 97.9925 53.4338 98.9298 53.2445C100.395 52.9418 101.861 52.6245 103.287 52.2885C109.749 50.7885 115.267 49.0232 120.154 46.8845C120.707 46.6445 121.266 46.3925 121.818 46.1298L121.842 46.1085L121.839 46.1058C121.845 46.1058 121.846 46.1032 121.847 46.0978H121.85C121.85 46.0952 121.853 46.0952 121.854 46.0925L121.889 46.0592C122.241 45.6818 122.537 45.2778 122.771 44.8672C122.959 44.5098 123.106 44.1378 123.21 43.7552C123.262 43.5338 123.301 43.3018 123.322 43.0725C123.295 43.0352 123.265 42.9992 123.233 42.9685C123.157 42.8952 123.085 42.8405 122.982 42.7858C122.879 42.7312 122.775 42.7005 122.678 42.6765C122.467 42.6272 122.246 42.6272 122.058 42.6325C121.777 42.6432 121.506 42.6978 121.251 42.7525C120.577 42.9005 119.913 43.1445 119.353 43.3618C117.973 43.8978 116.645 44.5565 115.405 45.1872C115.242 45.2672 115.082 45.3512 114.922 45.4338C114.63 45.5832 114.339 45.7312 114.046 45.8738C113.846 45.9738 113.639 46.0698 113.437 46.1578L113.254 46.2392C112.655 46.5098 112.058 46.7832 111.463 47.0565L111.077 47.2338C109.761 47.8352 108.229 48.5285 106.703 49.1605C105.131 49.8072 103.669 50.3325 102.238 50.7565C100.717 51.2018 99.1618 51.5485 97.8458 51.8298C96.4485 52.1272 94.9672 52.4032 93.3205 52.6738C90.5552 53.1325 87.6205 53.5098 84.0885 53.8618C80.0112 54.2698 75.8538 54.5592 71.8325 54.8352C70.2872 54.9445 68.6885 55.0565 67.1178 55.1712C67.1045 55.1712 67.0992 55.1712 67.0952 55.1738H67.0818C66.5872 55.2098 66.0965 55.2472 65.6032 55.2885C65.5018 55.2965 65.3992 55.3018 65.2952 55.3125C65.0458 55.2858 64.7818 55.2498 64.5125 55.1978C63.8698 54.8952 63.1752 54.6925 62.5058 54.4938L62.3005 54.4365L62.2205 54.4138C61.7325 54.1925 61.2138 53.9285 60.5872 53.5832L60.6018 53.5925C60.6032 53.5925 60.6045 53.5952 60.6045 53.5952C60.5992 53.5925 60.5912 53.5885 60.5872 53.5858C60.5872 53.5885 60.5885 53.5885 60.5912 53.5885C60.5272 53.5512 60.4645 53.5178 60.3965 53.4792C60.0365 53.2778 59.6818 53.0698 59.3312 52.8685C58.6392 52.4685 57.9192 52.0512 57.1912 51.6818C57.0885 51.6325 56.9872 51.5832 56.8832 51.5312C56.7272 51.4552 56.5712 51.3792 56.4165 51.2965C56.3272 51.2525 56.2392 51.2005 56.1512 51.1552C55.9352 51.0378 55.7125 50.9218 55.4912 50.8098C54.9165 50.5232 54.2352 50.2445 53.5392 50.3138C53.4672 50.3192 53.3952 50.3645 53.3418 50.4285C53.2165 50.3765 53.0885 50.3298 52.9578 50.2832C52.3938 50.0858 51.8952 49.9685 51.4378 49.9258C50.8885 49.8765 50.4218 49.9498 50.0472 50.1432C49.8338 50.2552 49.6445 50.4138 49.4818 50.6138C49.3352 50.8018 49.2192 51.0378 49.1432 51.3165C49.1232 51.3898 49.1192 51.4392 49.1272 51.4912C49.1312 51.5152 49.1405 51.5405 49.1485 51.5645C49.1832 51.6432 49.2458 51.7018 49.3245 51.7312C49.4045 51.7618 49.4925 51.7618 49.5725 51.7232C49.6378 51.6978 49.7178 51.6298 49.7392 51.5512C49.7792 51.4032 49.8285 51.2698 49.8912 51.1472C49.9392 51.0672 49.9965 50.9912 50.0592 50.9192C50.1218 50.8565 50.1898 50.8018 50.2632 50.7498C50.3578 50.7005 50.4525 50.6552 50.5592 50.6245C50.7152 50.5805 50.8805 50.5538 51.0658 50.5458C51.3712 50.5485 51.7018 50.5925 52.0792 50.6818C52.4805 50.7832 52.8965 50.9285 53.3485 51.1192C53.4125 51.2858 53.5138 51.4472 53.6472 51.6005C53.9658 51.9632 54.3858 52.2285 54.7165 52.4192C55.1498 52.6685 55.6392 52.9032 56.2458 53.1525C56.7485 53.3592 57.2858 53.5592 57.9365 53.7752C58.7898 54.0618 59.6645 54.3165 60.5125 54.5645L60.6072 54.6085L60.6392 54.6218C61.4058 54.9858 62.0445 55.2552 62.6512 55.4712C61.7685 55.5098 60.8445 55.5432 59.9072 55.5645H59.9378C59.9378 55.5645 59.9418 55.5672 59.9445 55.5645L59.9418 55.5672C59.9445 55.5645 59.9445 55.5645 59.9498 55.5645H59.9512C59.9472 55.5645 59.9445 55.5645 59.9418 55.5672C59.9325 55.5645 59.9272 55.5645 59.9218 55.5645C58.9432 55.5858 57.9632 55.5925 56.9832 55.5925C54.8685 55.5885 52.7618 55.5405 50.7112 55.4658C50.6512 55.4312 50.5925 55.4032 50.5325 55.3738C50.4325 55.3245 50.3285 55.2778 50.2232 55.2365C50.1152 55.1352 50.0005 55.0338 49.8805 54.9418C49.6832 54.7938 49.4752 54.6658 49.2578 54.5458C49.0978 54.4552 48.9392 54.3738 48.7765 54.2912C48.4218 54.0258 48.0352 53.7992 47.6445 53.5858C47.3938 53.4498 47.1405 53.3245 46.8832 53.2018C46.8045 53.1472 46.7258 53.0978 46.6472 53.0432C46.3658 52.8352 46.0845 52.6298 45.7978 52.4258C45.3965 52.1458 44.9912 51.8712 44.5698 51.6192C44.2272 51.4112 43.8738 51.2098 43.4992 51.0698C43.2965 50.9938 43.0712 50.9312 42.8538 50.9445C42.7858 50.9232 42.7152 50.9085 42.6445 50.8898C42.5205 50.8645 42.3938 50.8645 42.2645 50.8712C42.2125 50.8738 42.1592 50.9032 42.1165 50.9392C41.7245 50.8685 41.3232 50.8352 40.9245 50.8645C40.5378 50.8925 40.1592 51.0125 39.7992 51.1472C39.4872 51.2672 39.1832 51.4032 38.8658 51.5018C38.6912 51.5538 38.5112 51.5885 38.3245 51.5978C38.1898 51.5978 38.0605 51.5805 37.9272 51.5512C37.7912 51.5125 37.6618 51.4632 37.5325 51.4005C37.3778 51.3218 37.1818 51.4258 37.1218 51.5805C37.1018 51.6325 37.0965 51.6898 37.1058 51.7445C37.1098 51.7725 37.1165 51.8018 37.1298 51.8272C37.1632 51.9058 37.2258 51.9552 37.3032 51.9912C37.5578 52.1165 37.8325 52.1978 38.1125 52.2258C38.3832 52.2498 38.6538 52.2152 38.9112 52.1472C39.4258 52.0125 39.9018 51.7698 40.4058 51.6085C40.6458 51.5432 40.8938 51.4938 41.1458 51.4832C41.5298 51.4832 41.9085 51.5378 42.2805 51.6192C42.2912 51.7005 42.3125 51.7832 42.3418 51.8592C42.3778 51.9498 42.4352 52.0338 42.4872 52.1138C42.5445 52.1925 42.6112 52.2698 42.6805 52.3432C42.8565 52.5285 43.0525 52.6952 43.2538 52.8512C43.7018 53.2005 44.1898 53.4992 44.6778 53.7885C45.1178 54.0458 45.5672 54.2938 46.0218 54.5312C46.5152 54.7885 47.0152 55.0378 47.5165 55.2805C47.5512 55.2992 47.5885 55.3138 47.6232 55.3298C45.9738 55.2525 44.3752 55.1605 42.8512 55.0698C42.4685 55.0485 42.0858 55.0258 41.7032 55.0018C40.7872 54.9445 39.8392 54.8872 38.9085 54.8432C38.7072 54.8325 38.5032 54.8245 38.3018 54.8138L38.2298 54.7618L38.1938 54.7365C37.8685 54.5152 37.5552 54.2912 37.2378 54.0565C36.9698 53.8645 36.6992 53.6685 36.4325 53.4738C36.1645 53.2778 35.8938 53.0832 35.6272 52.8872C35.5112 52.7832 35.3938 52.6765 35.2752 52.5725C34.7192 52.0832 34.1445 51.6378 33.5645 51.2472C32.9418 50.8245 32.3765 50.5125 31.8352 50.2912L31.8138 50.2832H31.8178C31.5418 50.1165 31.2938 49.9792 31.0498 49.8512C30.8165 49.7312 30.5378 49.5978 30.2312 49.5338C30.1178 49.5045 30.0112 49.5045 29.9205 49.5258C29.8272 49.5432 29.7832 49.5672 29.7032 49.6192C29.6325 49.6632 29.5938 49.7338 29.5618 49.7992C29.5338 49.8458 29.5218 49.9058 29.5165 49.9805C29.5098 50.0432 29.5125 50.1005 29.5192 50.1552C29.5245 50.1898 29.5325 50.2205 29.5418 50.2565C29.5765 50.3672 29.6125 50.4578 29.6538 50.5405C29.7085 50.6525 29.7792 50.7618 29.8472 50.8618C29.9912 51.0832 30.1605 51.2832 30.3058 51.4525C30.4725 51.6458 30.6538 51.8378 30.8978 52.0805C31.2818 52.4685 31.7085 52.8645 32.1605 53.2552C32.3498 53.4192 32.5525 53.5898 32.7632 53.7498C32.8938 53.8458 33.0338 53.9338 33.1672 54.0178L33.2312 54.0565C33.4698 54.2045 33.7218 54.3565 34.0045 54.5098C34.0738 54.5458 34.1432 54.5832 34.2085 54.6218C34.0005 54.6058 33.7872 54.5925 33.5792 54.5778C32.7525 54.5178 31.9912 54.4445 31.2698 54.3592C30.8005 54.3045 30.3152 54.2365 29.8298 54.1552C29.2552 53.6765 28.6112 53.1925 27.8098 52.6352C27.2725 52.2618 26.7765 51.9418 26.2898 51.6552C25.6872 51.2992 25.2112 51.0538 24.7472 50.8645C24.5098 50.7645 24.2938 50.6952 24.0832 50.6405C23.8872 50.5898 23.6765 50.5485 23.4578 50.5485C23.2738 50.5512 23.1258 50.5752 22.9992 50.6165C22.7458 50.5178 22.5365 50.4472 22.3352 50.3952C22.2112 50.3672 22.0885 50.3565 21.9578 50.3618C21.8272 50.3672 21.7085 50.4112 21.5885 50.4938C21.5018 50.5512 21.4218 50.6712 21.3872 50.7965C21.3445 50.9445 21.3418 51.1032 21.3725 51.3018C21.4018 51.4805 21.4605 51.6552 21.5165 51.8192C21.5298 51.8565 21.5432 51.8925 21.5578 51.9312C21.5552 51.9312 21.5512 51.9258 21.5445 51.9232C21.5205 51.9112 21.4912 51.8952 21.4632 51.8818C21.1525 51.7072 20.8618 51.5045 20.5392 51.2805C20.5258 51.2152 20.5018 51.1525 20.4698 51.0952C20.4152 50.9965 20.3418 50.9085 20.2525 50.8245C20.2125 50.6498 20.1152 50.4712 19.9738 50.3072C19.8378 50.1432 19.6552 49.9912 19.4338 49.8618C19.2165 49.7285 18.9778 49.6138 18.7218 49.5205C18.1938 49.3298 17.6645 49.2498 17.1525 49.2805C16.6338 49.3138 16.2045 49.5338 16.0098 49.8645C15.9965 49.8872 15.9818 49.9112 15.9712 49.9365C15.8085 49.8218 15.6445 49.7125 15.4765 49.6058C14.8512 49.1978 14.3232 48.9085 13.8205 48.6898C13.2445 48.4418 12.7352 48.3352 12.2738 48.3672C11.9378 48.3872 11.6152 48.5312 11.3832 48.7552C11.2952 48.8378 11.2512 48.9498 11.2672 49.0512C11.2725 49.0778 11.2792 49.1058 11.2938 49.1325C11.4245 49.4032 11.5898 49.6552 11.7818 49.8818C11.9618 50.0925 12.1805 50.3018 12.4378 50.4992C12.6512 50.6632 12.8938 50.8138 13.2218 50.9858C13.2685 51.0098 13.3138 51.0312 13.3565 51.0512C13.3392 51.0485 13.3232 51.0458 13.3085 51.0405C13.2392 51.0285 13.1725 51.0125 13.1018 50.9992C13.0285 50.9832 12.9538 50.9712 12.8792 50.9578C12.8645 50.9445 12.8458 50.9338 12.8258 50.9258C12.7912 50.9085 12.7565 50.8898 12.7245 50.8685L12.7018 50.8618C12.6965 50.8618 12.6898 50.8565 12.6845 50.8512C12.6365 50.8245 12.5898 50.7992 12.5418 50.7698C12.3125 50.6405 12.0885 50.5045 11.8658 50.3738C11.7232 50.2885 11.5832 50.2045 11.4392 50.1218C10.9832 49.8538 10.3792 49.5072 9.75118 49.2018C9.11784 48.8898 8.57518 48.6872 8.05251 48.5618C7.48451 48.4232 7.00318 48.4392 6.62184 48.6085C6.49384 48.6685 6.37384 48.7498 6.27384 48.8485C6.22051 48.9005 6.16984 48.9632 6.15918 49.0592L6.15784 49.0725C6.10051 49.0485 6.04584 49.0205 5.98851 48.9965C5.66318 48.8485 5.35518 48.7392 5.06051 48.6685C4.95384 48.6405 4.85518 48.6218 4.75784 48.6112C4.63518 48.5925 4.50851 48.5925 4.39384 48.5952C4.27251 48.6005 4.15118 48.6245 4.03384 48.6685C3.97784 48.6192 3.91118 48.5698 3.83518 48.5125C3.60984 48.3565 3.34984 48.2098 3.06584 48.0885C2.77518 47.9632 2.50184 47.8898 2.24584 47.8685C2.03251 47.8538 1.83118 47.8872 1.66851 47.9605V47.9578L1.66451 47.9472C1.62584 47.8405 1.57251 47.7312 1.49251 47.6032C1.44451 47.5258 1.39118 47.4605 1.33384 47.4005C1.28584 47.3592 1.24984 47.3218 1.20584 47.2912C1.16984 47.2645 1.12851 47.2445 1.08851 47.2232L1.06851 47.2098C0.93651 47.1432 0.76051 47.1165 0.60451 47.1498C0.52051 47.1712 0.453843 47.1952 0.393843 47.2285Z" fill="#95A975"/>
<path d="M39.9772 61.1322C39.6172 61.2055 39.2692 61.3482 38.9426 61.5122C38.6052 61.6789 38.2759 61.8695 37.9572 62.0722C37.5919 62.3069 37.2492 62.5829 36.9226 62.8695C36.2732 63.4442 35.6826 64.0855 35.0332 64.6602C34.7586 64.9055 34.4759 65.1402 34.1666 65.3402C33.8986 65.5015 33.6146 65.6322 33.3132 65.7255C32.9439 65.8269 32.5652 65.8749 32.1879 65.8829C31.7359 65.8869 31.2879 65.8482 30.8386 65.7989C30.5479 65.7682 30.2586 65.7309 29.9626 65.7255C29.3412 65.7202 28.6986 65.7802 28.1252 66.0362C27.8519 66.1535 27.5972 66.3349 27.4239 66.5802C27.3412 66.6949 27.2826 66.8255 27.2452 66.9602C27.2252 67.0335 27.2012 67.1055 27.1759 67.1815C27.1492 67.2629 27.1399 67.3349 27.1532 67.4135C27.1572 67.4389 27.1626 67.4682 27.1732 67.4989C27.1986 67.5749 27.2586 67.6322 27.3172 67.6869C27.3719 67.7335 27.4226 67.7775 27.4892 67.8095C27.6039 67.8642 27.7359 67.8722 27.8612 67.8722C28.1666 67.8749 28.4746 67.8349 28.7772 67.7962C28.9386 67.7749 29.0999 67.7629 29.2652 67.7522C29.5706 67.7282 29.8746 67.6869 30.1746 67.6375C30.2386 67.6269 30.3026 67.6135 30.3639 67.6042C30.1172 67.7655 29.8772 67.9375 29.6479 68.1242C29.3172 68.3975 29.0106 68.7162 28.8026 69.0909C28.6879 69.2855 28.6026 69.4895 28.5452 69.7055C28.4826 69.9442 28.4519 70.1815 28.4546 70.4242C28.4572 70.5149 28.4666 70.5909 28.5266 70.6602C28.5599 70.7029 28.6052 70.7362 28.6559 70.7575C28.7119 70.7775 28.7652 70.7829 28.8212 70.7749C29.4866 70.7522 30.1226 70.5695 30.7426 70.3375C31.0626 70.2202 31.3772 70.0855 31.6959 69.9602C31.5799 70.0829 31.4679 70.2082 31.3639 70.3402C31.2199 70.5229 31.1026 70.7202 30.9999 70.9269C30.8932 71.1402 30.8106 71.3722 30.7359 71.5962C30.6252 71.9135 30.5412 72.2335 30.4826 72.5615C30.4599 72.7002 30.4466 72.8402 30.4426 72.9815C30.4426 73.0589 30.4439 73.1402 30.4492 73.2202C30.4599 73.3042 30.4812 73.3842 30.5066 73.4655C30.5372 73.5722 30.5932 73.6789 30.6719 73.7549C30.7012 73.7829 30.7266 73.8095 30.7559 73.8322C30.7879 73.8535 30.8239 73.8695 30.8572 73.8869C30.9172 73.9215 30.9906 73.9349 31.0532 73.9469C31.1572 73.9709 31.2626 73.9789 31.3666 73.9789C31.5266 73.9815 31.6839 73.9709 31.8426 73.9549C32.1359 73.9269 32.4252 73.8775 32.7146 73.8229C32.9052 73.7775 33.0932 73.7362 33.2826 73.6895C33.4439 73.6509 33.6026 73.6042 33.7572 73.5415C33.9266 73.4762 34.0892 73.3775 34.2386 73.2709C34.4919 73.0935 34.6919 72.8429 34.8719 72.5962C34.9292 72.5202 34.9852 72.4389 35.0399 72.3615C35.0572 72.5749 35.0732 72.7855 35.1066 72.9962C35.1412 73.2175 35.2039 73.4322 35.2759 73.6402C35.3492 73.8535 35.4452 74.0589 35.5506 74.2522C35.9759 75.0362 36.6159 75.6789 37.3186 76.2202C37.5439 76.3975 37.7879 76.5535 38.0412 76.6949C38.3412 76.8695 38.6572 77.0229 38.9919 77.1242C39.2812 77.2135 39.6159 77.2775 39.9146 77.1949C40.0586 77.1535 40.1959 77.0935 40.3079 76.9869C40.4252 76.8749 40.5119 76.7389 40.5746 76.5935C40.6532 76.4082 40.6812 76.2002 40.6879 76.0015C40.6999 75.7722 40.6786 75.5469 40.6466 75.3202C40.5772 74.8695 40.4439 74.4295 40.2879 74.0015C40.2319 73.8429 40.1679 73.6869 40.0972 73.5335C39.9519 73.2202 39.7626 72.9269 39.5599 72.6482C39.3732 72.3869 39.1692 72.1429 38.9599 71.9002C38.8172 71.7309 38.6532 71.5802 38.4919 71.4295C38.3412 71.2882 38.1932 71.1429 38.0786 70.9762C38.0639 70.9495 38.0506 70.9242 38.0412 70.9002C38.0386 70.8869 38.0386 70.8749 38.0359 70.8642C38.0372 70.8349 38.0412 70.8095 38.0466 70.7775C38.0652 70.7229 38.0866 70.6735 38.1106 70.6215C38.2692 70.3589 38.4906 70.1429 38.6799 69.9055C38.7946 69.7709 38.8959 69.6215 39.0039 69.4815C39.1172 69.3322 39.2306 69.1815 39.3479 69.0309C39.8186 68.4135 40.2826 67.7882 40.7026 67.1322C41.5306 65.8402 42.1946 64.3829 42.1919 62.8229C42.1919 62.7309 42.1799 62.6562 42.1226 62.5829C42.0759 62.5255 42.0079 62.4895 41.9359 62.4735C41.9199 62.3455 41.8906 62.2202 41.8519 62.0989C41.7866 61.8975 41.6626 61.7135 41.5199 61.5615C41.3799 61.4082 41.2119 61.2909 41.0239 61.2055C40.8746 61.1349 40.7012 61.1042 40.5386 61.0909C40.3519 61.0775 40.1612 61.0935 39.9772 61.1322Z" fill="#FCFAEF"/>
<path d="M29.8679 58.2495C29.4826 58.3508 29.0999 58.4708 28.7212 58.6015C28.5346 58.6668 28.3466 58.7362 28.1599 58.7962C27.8279 58.8895 27.4919 58.9575 27.1572 59.0282C26.7719 59.1068 26.3919 59.1922 26.0159 59.3095C25.6772 59.4162 25.3399 59.5522 25.0706 59.7855C24.8572 59.9682 24.6986 60.2055 24.5119 60.4135C24.4386 60.4895 24.3572 60.5562 24.2706 60.6215C24.1626 60.6815 24.0506 60.7228 23.9332 60.7628C23.5426 60.8722 23.1306 60.9215 22.7692 61.1108C22.5039 61.2495 22.2519 61.4188 22.0092 61.5935C21.7306 61.7962 21.4652 62.0175 21.2226 62.2602C20.9786 62.5068 20.7479 62.7682 20.5772 63.0695C20.4132 63.3535 20.3012 63.6642 20.3199 63.9975C20.3239 64.0308 20.3266 64.0642 20.3346 64.0988C20.3466 64.1975 20.3786 64.2935 20.4172 64.3855C20.4812 64.5228 20.5786 64.6428 20.6919 64.7468C20.8852 64.9242 21.1399 65.0308 21.3919 65.0962C21.6839 65.1682 21.9799 65.2028 22.2799 65.2055C22.6652 65.2135 23.0532 65.1842 23.4332 65.1242C23.9812 65.0362 24.4852 64.8015 25.0092 64.6375C25.1959 64.5882 25.3866 64.5522 25.5759 64.5388C25.6079 64.5388 25.6359 64.5442 25.6679 64.5495C25.7892 64.5828 25.9079 64.6295 26.0266 64.6762C26.1426 64.7228 26.2639 64.7775 26.3919 64.7935C26.4639 64.8068 26.5372 64.7802 26.6052 64.7628C26.6866 64.7362 26.7679 64.7135 26.8439 64.6788C27.0092 64.6095 27.1639 64.5122 27.3119 64.4162C27.6186 64.2162 27.8946 63.9655 28.1639 63.7215C28.4239 63.4788 28.6732 63.2255 28.9266 62.9788C29.4279 62.4895 29.9852 62.0642 30.5132 61.6095C30.8052 61.3535 31.0812 61.0908 31.3399 60.8015C31.5946 60.5202 31.8079 60.2108 31.9892 59.8748C32.0679 59.7282 32.1306 59.5802 32.1826 59.4295C32.1866 59.4242 32.1879 59.4215 32.1906 59.4162C32.3026 59.2215 32.4106 59.0122 32.4292 58.7802C32.4452 58.5988 32.3986 58.3975 32.2639 58.2628C32.1866 58.1868 32.1159 58.1402 32.0159 58.0935C31.9346 58.0522 31.8386 58.0308 31.7479 58.0148C31.5572 57.9788 31.3546 57.9868 31.1639 57.9988C30.7266 58.0335 30.2892 58.1348 29.8679 58.2495Z" fill="#FCFAEF"/>
<path d="M20.743 55.2832C20.407 55.4259 20.1377 55.6846 19.911 55.9686C19.687 56.2526 19.5137 56.5726 19.3337 56.8872C19.215 57.0886 19.095 57.2886 18.9857 57.4886C18.891 57.6632 18.819 57.8459 18.783 58.0406C18.771 58.1246 18.775 58.2126 18.7884 58.2966C18.8044 58.4086 18.8564 58.5019 18.9177 58.5899C18.9844 58.6819 19.091 58.7499 19.191 58.7992C19.3017 58.8566 19.423 58.8846 19.547 58.9086C19.771 58.9526 20.0097 58.9392 20.2337 58.9059C20.4817 58.8712 20.723 58.8046 20.963 58.7286C21.3977 58.5979 21.8204 58.4219 22.2564 58.2886C22.7537 58.1432 23.247 57.9886 23.731 57.7992C23.7644 57.7886 23.7964 57.7726 23.827 57.7619C23.9204 57.8379 24.051 57.8646 24.1604 57.8072C24.2537 57.7592 24.3417 57.7046 24.4297 57.6472C24.5084 57.5899 24.579 57.5232 24.6444 57.4526C24.6737 57.4192 24.7057 57.3846 24.7297 57.3486C24.8857 57.2699 25.0404 57.1846 25.1924 57.0952C25.2697 57.0539 25.327 57.0046 25.3564 56.9232C25.3884 56.8459 25.387 56.7526 25.351 56.6766C25.3177 56.6006 25.255 56.5406 25.1777 56.5126C25.1044 56.4806 25.0897 56.1792 25.0217 56.2152C24.991 56.0339 24.823 56.1659 24.7164 56.0152C24.6204 55.8712 24.4804 55.7499 24.3364 55.6526C24.2084 55.5646 24.059 55.4966 23.9124 55.4419C23.5737 55.3166 23.2097 55.2472 22.8524 55.1926C22.5177 55.1406 22.179 55.1086 21.839 55.0979C21.6724 55.0926 21.503 55.0979 21.3364 55.1166C21.1324 55.1406 20.9297 55.1992 20.743 55.2832Z" fill="#FCFAEF"/>
<path d="M15.127 54.8483C14.859 54.927 14.607 55.0483 14.4377 55.2803C14.359 55.395 14.3137 55.5283 14.2924 55.663C14.2737 55.7576 14.2737 55.8616 14.2884 55.9576C14.2924 55.9843 14.295 56.007 14.3004 56.031C14.331 56.1483 14.379 56.255 14.4604 56.351C14.5417 56.447 14.647 56.515 14.759 56.5696C14.855 56.6163 14.9644 56.6403 15.0697 56.6576C15.1777 56.6763 15.291 56.679 15.4017 56.679C15.667 56.671 15.9284 56.6403 16.187 56.5883C16.647 56.499 17.0924 56.359 17.5404 56.2256L17.563 56.2176C17.5657 56.2176 17.5697 56.2176 17.571 56.215C17.5697 56.2176 17.5657 56.215 17.5657 56.2176C17.6377 56.195 17.7004 56.163 17.7484 56.099C17.7964 56.0283 17.819 55.9443 17.8057 55.8616C17.7924 55.7776 17.7457 55.703 17.6777 55.6536C17.6217 55.6136 17.5324 55.5803 17.459 55.5936C17.479 55.499 17.4537 55.403 17.3937 55.3243C17.2537 55.1403 17.0244 55.0256 16.8097 54.947C16.5444 54.8483 16.259 54.7963 15.979 54.7803C15.695 54.7603 15.4004 54.7723 15.127 54.8483Z" fill="#FCFAEF"/>
<path d="M21.182 48.9029C21.074 48.9735 21.0007 49.1135 20.9487 49.2282C20.8913 49.3642 20.878 49.5282 20.902 49.6709C20.946 49.9629 21.154 50.1975 21.374 50.3722C21.4873 50.4655 21.614 50.5389 21.7433 50.6055C21.8713 50.6762 22.0047 50.7282 22.146 50.7722C22.4073 50.8562 22.6873 50.9082 22.962 50.8722C23.0127 50.8642 23.062 50.8509 23.11 50.8322C23.222 50.9295 23.3993 50.9269 23.5113 50.8349C23.65 50.7202 23.662 50.5255 23.5567 50.3842C23.2647 50.0042 22.926 49.6509 22.566 49.3295C22.366 49.1509 22.1487 48.9869 21.9033 48.8722C21.8073 48.8242 21.698 48.7935 21.5887 48.7882C21.5313 48.7829 21.4727 48.7829 21.4153 48.7989C21.3207 48.8189 21.2607 48.8509 21.182 48.9029Z" fill="#FCFAEF"/>
<path d="M57.0553 61.1713C57.0313 61.1659 57.0059 61.1633 56.9792 61.1633C56.8779 61.1499 56.7793 61.1926 56.7113 61.2619C55.5659 61.5833 54.4433 61.9939 53.3433 62.4526C52.7339 62.7019 52.1326 62.9686 51.5312 63.2393C51.5579 63.2393 51.5819 63.2393 51.6086 63.2446C51.6086 63.2393 51.6126 63.2419 51.6126 63.2419C51.6206 63.2446 51.6326 63.2446 51.6379 63.2446H51.6393C51.6419 63.2446 51.6459 63.2446 51.6513 63.2419C51.6806 63.2446 51.7126 63.2446 51.7406 63.2499C51.7513 63.2526 51.7646 63.2526 51.7753 63.2553C51.7926 63.2553 51.8086 63.2553 51.8273 63.2593H51.8286L51.8299 63.2566C51.8313 63.2566 51.8353 63.2593 51.8379 63.2593C51.8459 63.2593 51.8539 63.2619 51.8606 63.2619C51.8619 63.2619 51.8619 63.2619 51.8646 63.2646C51.8646 63.2619 51.8673 63.2619 51.8673 63.2619C51.8699 63.2646 51.8699 63.2646 51.8726 63.2646C51.8739 63.2646 51.8753 63.2646 51.8753 63.2673C51.8753 63.2673 51.8779 63.2646 51.8779 63.2673H51.8793C51.8833 63.2646 51.8873 63.2673 51.8913 63.2673C51.8966 63.2673 51.8979 63.2699 51.9019 63.2673H51.9059C51.9099 63.2699 51.9126 63.2699 51.9139 63.2726H51.9153C51.9166 63.2726 51.9179 63.2699 51.9193 63.2699C51.9259 63.2726 51.9313 63.2726 51.9339 63.2726C51.9379 63.2753 51.9406 63.2753 51.9433 63.2726C51.9459 63.2753 51.9459 63.2753 51.9473 63.2753H51.9486C51.9539 63.2753 51.9606 63.2779 51.9673 63.2779H51.9686C51.9686 63.2779 51.9713 63.2779 51.9713 63.2806V63.2779C51.9739 63.2806 51.9806 63.2806 51.9846 63.2806C51.9873 63.2833 51.9926 63.2833 52.0006 63.2833C52.0006 63.2859 52.0033 63.2833 52.0033 63.2833C52.0059 63.2859 52.0059 63.2859 52.0086 63.2859C52.0179 63.2886 52.0273 63.2913 52.0379 63.2913C52.0433 63.2913 52.0446 63.2913 52.0513 63.2939C52.0539 63.2939 52.0593 63.2966 52.0646 63.2966H52.0659H52.0673C52.0673 63.2966 52.0726 63.2993 52.0739 63.2966L52.0753 63.2993C52.0939 63.3046 52.1113 63.3099 52.1286 63.3113C52.1313 63.3113 52.1366 63.3113 52.1379 63.3139C52.1886 63.3246 52.2339 63.3353 52.2793 63.3513C52.2993 63.3566 52.3139 63.3619 52.3353 63.3659C52.3699 63.3793 52.4073 63.3899 52.4446 63.4059C52.5193 63.4339 52.5913 63.4686 52.6659 63.5019C52.6793 63.5099 52.6939 63.5153 52.7073 63.5206C52.7753 63.5593 52.8459 63.5953 52.9099 63.6379C52.9246 63.6446 52.9353 63.6553 52.9459 63.6606C53.0886 63.7566 53.2219 63.8646 53.3379 63.9886C53.5886 64.2593 53.7606 64.6006 53.8299 64.9606C53.8606 65.1193 53.8846 65.2806 53.9166 65.4419C53.9513 65.6086 53.9873 65.7753 54.0219 65.9473C54.0286 65.9833 54.0379 66.0233 54.0446 66.0593C54.0539 66.1113 54.0659 66.1659 54.0739 66.2179C54.0766 66.2259 54.0779 66.2313 54.0806 66.2393C54.0939 66.3246 54.1099 66.4113 54.1233 66.4939C54.1259 66.5099 54.1259 66.5233 54.1299 66.5353C54.1299 66.5379 54.1299 66.5433 54.1313 66.5513C54.1326 66.5566 54.1339 66.5646 54.1366 66.5726C54.1379 66.5926 54.1406 66.6113 54.1433 66.6299C54.1459 66.6446 54.1459 66.6633 54.1499 66.6846C54.1539 66.7019 54.1579 66.7259 54.1593 66.7473C54.1646 66.7806 54.1673 66.8193 54.1699 66.8566C54.1726 66.8593 54.1726 66.8619 54.1726 66.8619V66.8659C54.1726 66.8686 54.1739 66.8686 54.1739 66.8686C54.1753 66.8739 54.1739 66.8846 54.1766 66.8899C54.1739 66.8979 54.1766 66.9059 54.1753 66.9113C54.1753 66.9113 54.1753 66.9139 54.1779 66.9139C54.1779 66.9139 54.1779 66.9166 54.1793 66.9193C54.1779 66.9233 54.1793 66.9286 54.1779 66.9313C54.1779 66.9339 54.1779 66.9366 54.1793 66.9393C54.1793 66.9419 54.1806 66.9419 54.1806 66.9446C54.1793 66.9499 54.1793 66.9526 54.1806 66.9553C54.1793 66.9579 54.1806 66.9606 54.1819 66.9633C54.1819 66.9633 54.1793 66.9633 54.1806 66.9659V66.9686C54.1833 66.9766 54.1819 66.9833 54.1833 66.9886C54.1819 66.9939 54.1833 66.9993 54.1859 67.0019H54.1833C54.1846 67.0046 54.1846 67.0046 54.1859 67.0099C54.1846 67.0126 54.1859 67.0153 54.1859 67.0206L54.1873 67.0233L54.1886 67.0259L54.1859 67.0286C54.1886 67.0379 54.1886 67.0513 54.1886 67.0619C54.1966 67.2419 54.2059 67.4286 54.1819 67.6113C54.1619 67.7566 54.1299 67.9139 54.0579 68.0459C54.0153 68.1273 53.9713 68.2099 53.9073 68.2806C53.8526 68.3459 53.7966 68.4086 53.7313 68.4633C53.7299 68.4633 53.7286 68.4659 53.7273 68.4659C53.7259 68.4659 53.7246 68.4659 53.7273 68.4686C53.7179 68.4739 53.7113 68.4779 53.7046 68.4859L53.7006 68.4833L53.7019 68.4859H53.7033H53.7019C53.6992 68.4886 53.6993 68.4886 53.6979 68.4886C53.6953 68.4939 53.6913 68.4939 53.6913 68.4966C53.6899 68.4993 53.6886 68.4993 53.6873 68.4993C53.6846 68.5019 53.6806 68.5046 53.6793 68.5046C53.6766 68.5099 53.6739 68.5099 53.6713 68.5126C53.6659 68.5153 53.6606 68.5179 53.6553 68.5233C53.6539 68.5233 53.6513 68.5233 53.6513 68.5259C53.5806 68.5806 53.5033 68.6273 53.4219 68.6686H53.4193C53.4193 68.6686 53.4193 68.6713 53.4153 68.6739C53.4153 68.6739 53.4099 68.6739 53.4099 68.6766C53.4086 68.6766 53.4046 68.6793 53.4033 68.6793C53.4019 68.6793 53.4019 68.6793 53.4006 68.6819H53.3993C53.4299 68.7153 53.4633 68.7446 53.5006 68.7779C53.5046 68.7806 53.5113 68.7806 53.5126 68.7833C53.5273 68.7913 53.5433 68.7939 53.5606 68.8046L53.5619 68.8019C53.5726 68.8073 53.5793 68.8099 53.5886 68.8139C53.5913 68.8166 53.5939 68.8139 53.5953 68.8166H53.5966C53.5993 68.8166 53.6006 68.8193 53.6006 68.8193C53.6073 68.8246 53.6139 68.8246 53.6219 68.8299C53.6246 68.8299 53.6273 68.8299 53.6286 68.8326C53.6299 68.8353 53.6313 68.8326 53.6313 68.8353C53.6379 68.8379 53.6419 68.8379 53.6486 68.8433C53.6859 68.8593 53.7233 68.8739 53.7579 68.8926C53.7673 68.8953 53.7766 68.9006 53.7833 68.9033C53.7859 68.9059 53.7912 68.9059 53.7939 68.9086C53.7979 68.9113 53.8006 68.9113 53.8046 68.9166C53.8059 68.9193 53.8099 68.9166 53.8153 68.9219C53.8166 68.9219 53.8179 68.9219 53.8219 68.9233H53.8273C53.8299 68.9286 53.8339 68.9286 53.8379 68.9286L53.8459 68.9366C53.8486 68.9366 53.8499 68.9366 53.8526 68.9393C53.8739 68.9499 53.8966 68.9606 53.9139 68.9713C53.9473 68.9766 53.9779 68.9833 54.0126 68.9886C54.1126 69.0046 54.2153 68.9966 54.3126 68.9913C54.4073 68.9913 54.4979 68.9739 54.5913 68.9499C54.9579 68.8539 55.2739 68.6379 55.5526 68.3819C55.8499 68.1139 56.1006 67.8019 56.3419 67.4859C56.5539 67.2126 56.7513 66.9259 56.9713 66.6606C57.2366 66.3406 57.4886 66.0126 57.7153 65.6659C58.0233 65.1993 58.2806 64.6993 58.4606 64.1713C58.5539 63.8953 58.6259 63.6033 58.6793 63.3166C58.7273 63.0513 58.7499 62.7886 58.7433 62.5206C58.7366 62.3273 58.6939 62.1246 58.6099 61.9473C58.5833 61.8926 58.5513 61.8459 58.5193 61.7966C58.5033 61.7726 58.4899 61.7526 58.4753 61.7313C58.4166 61.6406 58.3313 61.5593 58.2432 61.4886C58.3179 61.4219 58.3606 61.3246 58.3446 61.2126C58.3193 61.0486 58.1513 60.9113 57.9833 60.9473C57.6713 61.0126 57.3619 61.0873 57.0553 61.1713Z" fill="#FCFAEF"/>
<path d="M48.0502 66.6112C48.3009 66.5845 48.5569 66.5618 48.8062 66.5205C48.9342 66.4992 49.0675 66.4725 49.1942 66.4312C49.3289 66.7498 49.5049 67.0432 49.7102 67.3165C49.9742 67.6685 50.3049 67.9805 50.6755 68.2258C50.8235 68.3245 50.9822 68.4085 51.1449 68.4832C51.1435 68.4832 51.1462 68.4885 51.1462 68.4938C51.0222 68.5205 50.9009 68.5565 50.7849 68.5952C50.5915 68.6632 50.4195 68.7565 50.2502 68.8658C50.0689 68.9805 49.9155 69.1272 49.7715 69.2832C49.5982 69.4752 49.4675 69.6992 49.3675 69.9338C49.1635 69.6738 48.9262 69.4365 48.6769 69.2178C48.5342 69.0978 48.3875 68.9858 48.2369 68.8845C48.2915 68.6658 48.2875 68.4338 48.2515 68.2098C48.2449 68.1738 48.2395 68.1352 48.2329 68.0978C48.1342 67.5952 47.9155 67.1272 47.7489 66.6445C47.8502 66.6325 47.9502 66.6218 48.0502 66.6112ZM46.3649 60.6445C46.2502 60.7125 46.1622 60.7885 46.0715 60.8872C46.0035 60.9632 45.9449 61.0485 45.8969 61.1378C45.8369 61.2445 45.7822 61.3565 45.7409 61.4725C45.6902 61.6032 45.6542 61.7418 45.6235 61.8792C45.5009 62.3792 45.4795 62.8952 45.4955 63.4058C45.5035 63.5645 45.5155 63.7258 45.5369 63.8818C45.5729 64.1218 45.6475 64.3565 45.7302 64.5805C45.8569 64.9285 46.0395 65.2512 46.2422 65.5592C46.2875 65.6325 46.3382 65.7018 46.3889 65.7752C46.3462 65.7538 46.3062 65.7338 46.2635 65.7125C46.0302 65.5805 45.8075 65.4312 45.5755 65.2938C45.3302 65.1498 45.0795 65.0098 44.8075 64.9258C44.6782 64.8845 44.5449 64.8592 44.4089 64.8512C44.2422 64.8432 44.0862 64.8685 43.9249 64.9178C43.6289 65.0125 43.3742 65.2258 43.1902 65.4725C42.8702 65.9058 42.8102 66.4685 42.8929 66.9938C42.9089 67.0952 42.9302 67.1965 42.9569 67.2938C43.0395 67.6112 43.1635 67.9138 43.3302 68.1925C43.4115 68.3298 43.5009 68.4605 43.5969 68.5832C43.6969 68.7098 43.8102 68.8245 43.9275 68.9312C44.1329 69.1165 44.3862 69.2445 44.6355 69.3565C44.9569 69.4938 45.2982 69.5898 45.6355 69.6685H45.6502C45.6289 69.7258 45.6102 69.7832 45.5955 69.8378C45.5435 70.0258 45.5115 70.2152 45.4889 70.4058C45.4515 70.7418 45.4515 71.0832 45.4475 71.4165C45.4435 71.8045 45.4289 72.1952 45.4875 72.5778C45.4889 72.5832 45.4902 72.5845 45.4902 72.5898C45.5515 72.9778 45.7062 73.3485 45.9675 73.6418C46.2249 73.9312 46.5782 74.1218 46.9222 74.2858C47.2875 74.4632 47.6715 74.5872 48.0635 74.6792C48.4209 74.7618 48.8089 74.7992 49.1715 74.7178C49.3195 74.6872 49.4649 74.6325 49.5995 74.5618C49.7449 74.4832 49.8702 74.3818 49.9849 74.2592C50.3169 73.9032 50.4182 73.4112 50.4275 72.9338C50.4435 72.9498 50.4609 72.9685 50.4769 72.9858C50.7395 73.2232 51.0289 73.4365 51.3342 73.6245C51.6529 73.8218 51.9929 73.9912 52.3435 74.1352C52.6809 74.2698 53.0315 74.3712 53.3875 74.4472C53.7129 74.5152 54.0395 74.5378 54.3729 74.5285C54.6795 74.5178 54.9889 74.4498 55.2715 74.3325C55.5235 74.2312 55.7449 74.0592 55.9209 73.8538C56.0875 73.6578 56.1835 73.4165 56.2449 73.1712C56.3022 72.9285 56.3049 72.6765 56.2835 72.4258C56.2609 72.1578 56.1929 71.8925 56.1129 71.6352C56.0315 71.3818 55.9249 71.1378 55.8049 70.9032C55.5782 70.4578 55.2875 70.0232 54.9249 69.6738C54.4729 69.2418 54.1089 68.9058 53.5222 68.6898C53.5222 68.6872 53.4582 68.6498 53.4529 68.6498C53.5942 68.5832 53.6769 68.5618 53.7955 68.4605C53.8569 68.4058 53.9329 68.3298 53.9875 68.2698C54.0502 68.1965 54.0915 68.1032 54.1369 68.0232C54.2062 67.8898 54.2115 67.7472 54.2302 67.5978C54.2542 67.4138 54.2635 67.1952 54.2502 67.0152C54.2315 66.6378 54.1609 66.2645 54.0889 65.8952C54.0542 65.7258 54.0275 65.5485 53.9955 65.3792C53.9622 65.2178 53.9102 64.9632 53.8809 64.8018C53.8075 64.4392 53.5835 64.2418 53.3369 63.9725C53.0915 63.7045 52.7769 63.5152 52.4422 63.3845C52.0862 63.2538 51.7062 63.2072 51.3315 63.2205C50.9769 63.2365 50.6315 63.3138 50.3009 63.4418C50.0969 63.5232 49.8995 63.6272 49.7249 63.7592C49.6235 63.6085 49.5182 63.4605 49.4089 63.3112C49.2529 63.1058 49.0942 62.9085 48.9555 62.6925C48.7822 62.4085 48.6369 62.1112 48.4729 61.8218C48.2929 61.4965 48.0942 61.1712 47.8142 60.9205C47.5942 60.7258 47.3129 60.5952 47.0249 60.5352C46.8049 60.4912 46.5555 60.5325 46.3649 60.6445Z" fill="#F8F2D7"/>
<path d="M119.58 43.8432C119.62 43.8245 119.658 43.8125 119.696 43.7992C119.283 43.9499 118.858 44.0485 118.424 44.1085C116.999 44.2472 115.578 43.9632 114.152 43.9765C113.379 43.9832 112.611 44.0952 111.871 44.3352C111.016 44.6085 110.198 44.9819 109.415 45.4245C107.859 46.2992 106.472 47.4685 105.159 48.6765C104.684 49.1059 104.216 49.5485 103.751 49.9912C103.647 49.5859 103.518 49.1819 103.326 48.8045C103.118 48.3979 102.795 48.0365 102.391 47.8219C102.351 47.8019 102.314 47.7832 102.274 47.7725C102.466 46.9392 102.554 46.0832 102.674 45.2339C102.786 44.5019 102.935 43.7805 103.194 43.0912C103.207 43.0752 103.223 43.0512 103.234 43.0312C103.382 42.8645 103.532 42.7032 103.695 42.5539C103.76 42.4939 103.834 42.4445 103.903 42.3872C103.927 42.3819 103.946 42.3765 103.97 42.3765C104.179 42.3325 105.783 41.3765 105.804 41.3379C106.844 40.8379 107.898 40.3645 108.978 39.9472C111.619 38.9472 114.366 38.2285 117.176 37.9112C117.29 37.9085 117.399 37.9139 117.514 37.9139C117.99 37.9245 118.467 37.9445 118.942 37.9885C119.459 38.0285 119.982 38.1085 120.499 38.1819C120.499 38.1819 120.498 38.1872 120.498 38.1819C121.423 38.3219 122.339 38.4792 123.272 38.5405C123.731 38.5779 124.196 38.5779 124.654 38.5832C124.886 38.5859 125.118 38.5859 125.348 38.5912C125.52 38.5979 125.69 38.6245 125.866 38.6499C126.174 38.7005 126.495 38.7499 126.808 38.7125C126.884 38.7045 126.947 38.6952 127.022 38.6765C127.079 38.6632 127.128 38.6352 127.184 38.6139C127.214 38.5979 127.244 38.5805 127.274 38.5645C127.304 38.5405 127.343 38.5152 127.379 38.4912C127.386 38.4832 127.391 38.4792 127.395 38.4739C128.472 39.0205 129.391 39.8245 130.386 40.5072C126.695 41.2779 123.091 42.4819 119.58 43.8432ZM117.912 0.00720215C117.744 0.0365372 117.624 0.149872 117.552 0.299202C116.922 1.64587 116.434 3.04053 116.107 4.48587C115.772 5.93653 115.654 7.42454 115.763 8.90587C115.874 10.3819 116.27 11.8432 116.916 13.1739C117.079 13.5019 117.264 13.8165 117.456 14.1325C117.664 14.4685 117.884 14.7939 118.138 15.0925C118.19 15.1579 118.248 15.2179 118.303 15.2832C118.422 15.4859 118.544 15.6899 118.664 15.8899C118.815 16.1379 118.972 16.3792 119.14 16.6059C119.308 16.8352 119.502 17.0405 119.708 17.2339C119.736 17.2579 119.76 17.2832 119.784 17.3019C120.148 18.5672 120.11 19.9005 120.243 21.2005C117.266 18.8872 114.016 16.9165 110.708 15.1192C110.744 15.1405 110.78 15.1579 110.815 15.1765C110.432 14.9659 110.084 14.7045 109.756 14.4085C108.731 13.4139 108.026 12.1459 107.094 11.0725C106.583 10.4832 106.002 9.97387 105.34 9.56187C104.583 9.08587 103.766 8.7032 102.924 8.39254C101.244 7.77254 99.4602 7.4712 97.6908 7.24987C95.9188 7.0232 94.1362 6.88454 92.3695 6.60054C92.2975 6.59121 92.2282 6.57787 92.1615 6.5672C91.9548 6.53654 91.7468 6.6792 91.6748 6.86454C91.6055 7.04587 91.6602 7.30453 91.8375 7.4112C92.3962 7.7472 92.9055 8.14587 93.3815 8.58854C94.5415 9.70454 95.4682 11.0285 96.5202 12.2419C97.0282 12.8272 97.5882 13.3765 98.1908 13.8739C98.7682 14.3459 99.4002 14.7472 100.064 15.0859C101.375 15.7579 102.838 16.0805 104.295 16.2099C106.199 16.3765 108.098 16.1165 109.987 15.8979C110.036 15.8899 110.086 15.8765 110.126 15.8539C110.267 15.9365 110.407 16.0125 110.552 16.0885C110.538 16.0805 110.522 16.0752 110.504 16.0672C112.706 17.2672 114.872 18.5512 116.943 19.9659C116.943 19.9659 116.934 19.9685 116.927 19.9685C116.575 20.0179 116.227 20.0979 115.88 20.1872C115.191 20.3645 114.52 20.6005 113.846 20.8152C113.015 21.0699 112.178 21.2699 111.308 21.3072C111.015 21.3072 110.727 21.2939 110.439 21.2939C110.092 21.2939 109.74 21.3072 109.394 21.3299C108.712 21.3712 108.035 21.4739 107.367 21.6032C105.992 21.8792 104.651 22.3352 103.383 22.9285C100.868 24.1059 98.6015 25.8872 96.9922 28.1605C96.8562 28.3539 96.8735 28.6819 97.0962 28.8165C97.3948 28.9939 97.7055 29.1499 98.0335 29.2805C98.3802 29.4192 98.7442 29.5072 99.1082 29.5779C99.8122 29.7179 100.54 29.7125 101.25 29.6432C101.996 29.5725 102.726 29.3899 103.44 29.1659C104.172 28.9392 104.886 28.6432 105.575 28.3099C106.908 27.6739 108.164 26.8712 109.358 26.0019C109.603 25.8192 109.846 25.6299 110.087 25.4365C110.339 25.2392 110.602 25.0592 110.862 24.8699C111.444 24.4472 112.016 24.0019 112.452 23.4259C112.727 23.0645 112.916 22.6192 112.935 22.1605C112.939 22.1165 112.932 22.0752 112.924 22.0339C113.762 21.8459 114.571 21.5565 115.391 21.2965C116.098 21.0805 116.814 20.9059 117.546 20.8352C117.57 20.8405 117.596 20.8432 117.614 20.8539C117.83 20.9085 118.043 20.9765 118.244 21.0539C118.444 21.1325 118.638 21.2365 118.83 21.3352C118.882 21.3619 118.932 21.3899 118.982 21.4192C120.336 22.4339 121.646 23.5232 122.886 24.6872C124.931 26.6352 126.768 28.7965 128.274 31.1979C128.319 31.2965 128.37 31.3979 128.411 31.5019C128.612 31.9339 128.799 32.3712 128.964 32.8192C129.154 33.3072 129.308 33.8099 129.464 34.3072C129.736 35.2005 130 36.0925 130.34 36.9659C130.51 37.3925 130.711 37.8099 130.9 38.2259C131.004 38.4339 131.102 38.6459 131.198 38.8539C131.266 39.0152 131.314 39.1819 131.368 39.3485C131.396 39.4525 131.434 39.5619 131.472 39.6712C131.412 39.6579 131.351 39.6499 131.294 39.6352C130.988 39.5485 130.682 39.4445 130.386 39.3192H130.383L130.379 39.3165L130.38 39.3192C130.335 39.3019 130.292 39.2805 130.248 39.2619C129.508 38.7152 128.791 38.1552 127.98 37.7205C127.951 37.6379 127.927 37.5565 127.9 37.4739C127.906 37.4005 127.904 37.3245 127.903 37.2525C127.9 37.1219 127.883 36.9859 127.859 36.8592C127.822 36.5832 127.763 36.3099 127.675 36.0405C127.594 35.7779 127.479 35.5285 127.348 35.2805C127.214 35.0379 127.052 34.8099 126.879 34.5952C126.85 34.5565 126.82 34.5205 126.79 34.4832C126.64 34.2992 126.483 34.1192 126.32 33.9525C126.314 33.9472 126.306 33.9419 126.303 33.9285C125.632 33.2445 124.844 32.6712 124.034 32.1579C123.136 31.5805 122.187 31.0885 121.22 30.6379C119.655 29.9139 118.031 29.2965 116.371 28.8325C115.736 28.6525 115.094 28.4992 114.444 28.3979C113.97 28.3299 113.486 28.2672 113.014 28.3539C112.888 28.3739 112.78 28.4712 112.719 28.5725C112.63 28.7179 112.64 28.8819 112.712 29.0365C113.324 30.3819 114.072 31.6579 114.963 32.8485C115.856 34.0379 116.912 35.0925 118.118 35.9632C118.275 36.0859 118.444 36.1872 118.615 36.2939C117.864 36.3845 117.124 36.5619 116.399 36.7779C115.799 36.9605 115.204 37.1605 114.608 37.3592C113.975 37.4819 113.346 37.6219 112.722 37.7805C111.27 38.1459 109.851 38.6165 108.458 39.1525C108.158 39.2672 107.862 39.3845 107.567 39.5072C107.496 39.5179 107.434 39.5285 107.362 39.5379C107.198 39.5619 107.039 39.5885 106.876 39.6165C106.69 39.6459 106.502 39.6739 106.312 39.6952H106.319C106.316 39.6979 106.312 39.6952 106.312 39.6952C106.308 39.6925 106.303 39.6979 106.3 39.6952C106.302 39.6952 106.303 39.6979 106.308 39.6952C106.302 39.6952 106.288 39.6952 106.282 39.6979H106.287C106.283 39.6979 106.282 39.7005 106.275 39.6979C106.279 39.6979 106.282 39.7005 106.282 39.6979C105.974 39.7285 105.663 39.7499 105.346 39.7472H105.339C105.324 39.7419 105.308 39.7365 105.295 39.7259C105.235 39.7179 105.179 39.6979 105.122 39.6925C105.05 39.6872 104.979 39.6899 104.906 39.6899C104.86 39.6899 104.816 39.7072 104.772 39.7125C104.646 39.7032 104.518 39.6872 104.388 39.6712H104.386C104.383 39.6685 104.383 39.6712 104.383 39.6712L104.384 39.6739C104.336 39.6685 104.288 39.6552 104.242 39.6499C103.387 39.3125 102.552 38.9445 101.659 38.7339C101.608 38.6605 101.564 38.5859 101.516 38.5152C101.507 38.4392 101.488 38.3699 101.466 38.2939C101.428 38.1739 101.375 38.0485 101.323 37.9259C101.214 37.6712 101.088 37.4219 100.94 37.1819C100.794 36.9472 100.616 36.7339 100.431 36.5339C100.236 36.3299 100.022 36.1499 99.8002 35.9859C99.7655 35.9552 99.7242 35.9312 99.6842 35.9032C99.4962 35.7592 99.2962 35.6272 99.0988 35.5019C99.0948 35.4992 99.0842 35.4965 99.0735 35.4912C98.2548 34.9965 97.3442 34.6405 96.4362 34.3459C95.4188 34.0205 94.3735 33.7805 93.3255 33.5925C91.6282 33.2859 89.9015 33.0952 88.1802 33.0699C87.5175 33.0565 86.8588 33.0699 86.2028 33.1379C85.7282 33.1925 85.2428 33.2525 84.8068 33.4579C84.6962 33.5099 84.6095 33.6272 84.5775 33.7419C84.5308 33.9059 84.5802 34.0619 84.6868 34.1899C85.6215 35.3405 86.6722 36.3872 87.8362 37.3072C88.9948 38.2392 90.2855 38.9885 91.6695 39.5339C93.0468 40.0725 94.5348 40.3459 96.0135 40.3379C96.3802 40.3352 96.7468 40.3072 97.1135 40.2672C97.5042 40.2259 97.8922 40.1685 98.2748 40.0699C98.3548 40.0485 98.4362 40.0285 98.5175 40.0045C98.7522 39.9832 98.9882 39.9659 99.2202 39.9419C99.5068 39.9112 99.7922 39.8739 100.07 39.8192C100.348 39.7672 100.622 39.6845 100.886 39.5779C100.915 39.5645 100.947 39.5565 100.976 39.5405C101.663 39.6605 103.568 40.2965 104.218 40.5512C104.162 40.5619 103.108 41.2072 103.051 41.2152C102.598 41.2965 96.3348 41.9085 95.8628 41.9939C95.7548 42.0179 95.6428 42.0339 95.5335 42.0512C92.7082 42.2032 89.8842 41.9365 87.1095 41.3792C85.4455 41.0339 83.8055 40.5885 82.1948 40.0619C82.1428 40.0365 82.0882 40.0125 82.0402 39.9885C81.8482 39.8872 81.6562 39.7885 81.4748 39.6685C81.2922 39.5485 81.1135 39.4139 80.9455 39.2725C80.9295 39.2579 80.9095 39.2392 80.8908 39.2205C80.5282 38.5832 80.2602 37.8979 80.0335 37.1899C79.7735 36.3765 79.5468 35.5432 79.2188 34.7525C79.2588 34.7339 79.2988 34.7125 79.3295 34.6845C79.6935 34.4085 79.9508 33.9992 80.0922 33.5645C80.3122 32.8765 80.3495 32.1499 80.3602 31.4312C80.3642 31.1112 80.3628 30.7912 80.3788 30.4712C80.3975 30.1659 80.4082 29.8592 80.4188 29.5512C80.4468 28.0752 80.3802 26.5885 80.1362 25.1299C80.0095 24.3739 79.8508 23.6192 79.6122 22.8899C79.3842 22.1792 79.1162 21.4765 78.7455 20.8192C78.3935 20.2032 77.9842 19.6005 77.4615 19.1085C77.1962 18.8485 76.9095 18.6005 76.6002 18.4005C76.3042 18.2045 75.9988 18.0405 75.6815 17.8952C75.4455 17.7912 75.1668 17.9659 75.0895 18.1899C74.1508 20.8072 73.9948 23.6925 74.4748 26.4245C74.7162 27.8019 75.1135 29.1632 75.6762 30.4472C75.9508 31.0672 76.2628 31.6819 76.6188 32.2619C76.8002 32.5619 76.9868 32.8592 77.1882 33.1379C77.3495 33.3792 77.5295 33.6032 77.6962 33.8432C78.1642 34.5805 78.4842 35.3792 78.7522 36.2045C78.9642 36.8792 79.1575 37.5619 79.4042 38.2312C79.5335 38.5619 79.6655 38.8979 79.8282 39.2125C79.8322 39.2205 79.8308 39.2285 79.8348 39.2312C77.4895 38.3405 75.1908 37.3099 72.9442 36.1952C72.9588 36.2045 72.9735 36.2125 72.9908 36.2205C72.8428 36.1485 72.7002 36.0779 72.5522 36.0099C72.5482 35.9632 72.5322 35.9139 72.5095 35.8699C71.6042 34.1979 70.7255 32.4885 69.4975 31.0285C68.5522 29.9112 67.4495 28.8979 66.1495 28.2125C65.4868 27.8619 64.7988 27.5725 64.0735 27.3712C63.3282 27.1632 62.5575 27.0232 61.7828 26.9419C60.1855 26.7752 58.5722 26.7805 56.9922 26.4739C56.3548 26.3379 55.7335 26.1485 55.1402 25.8845C54.9508 25.7965 54.7095 25.9032 54.5988 26.0645C54.4908 26.2312 54.4908 26.4819 54.6335 26.6325C54.6828 26.6819 54.7308 26.7312 54.7828 26.7805C56.0295 28.0645 57.1655 29.4472 58.3695 30.7672C59.5668 32.0885 60.8388 33.3792 62.3108 34.3952C63.0482 34.9032 63.8295 35.3565 64.6535 35.7045C65.3722 36.0099 66.1215 36.1979 66.8948 36.2725C68.3122 36.4192 69.7535 36.2672 71.1615 36.5365C71.5882 36.6325 72.0002 36.7699 72.3962 36.9579C72.3588 36.9445 72.3215 36.9245 72.2895 36.9059C75.6562 38.5832 79.1375 40.1112 82.7388 41.2179C81.6015 41.8565 80.5308 42.6525 79.2802 43.0832C79.2508 43.0779 79.2202 43.0672 79.1882 43.0619C78.9082 42.9992 78.6295 42.9605 78.3455 42.9552C78.0615 42.9499 77.7735 42.9605 77.4895 42.9792C77.2535 42.9912 77.0175 43.0072 76.7828 43.0312C76.6962 43.0205 76.6135 43.0125 76.5335 43.0019C76.1375 42.9685 75.7482 42.9765 75.3522 42.9965C74.9855 43.0179 74.6202 43.0512 74.2588 43.1085C72.7988 43.3432 71.3722 43.8539 70.1042 44.6139C68.8255 45.3739 67.6762 46.3219 66.6815 47.4285C65.6828 48.5285 64.8215 49.7339 64.0828 51.0179C64.0015 51.1632 63.9762 51.3245 64.0495 51.4819C64.1015 51.5885 64.2028 51.6952 64.3228 51.7232C64.7842 51.8539 65.2748 51.8379 65.7522 51.8099C66.4082 51.7725 67.0615 51.6765 67.7122 51.5592C69.4082 51.2472 71.0815 50.7832 72.7082 50.2032C73.7108 49.8432 74.7015 49.4392 75.6495 48.9499C76.4988 48.5125 77.3375 48.0152 78.0695 47.3899C78.0748 47.3845 78.0842 47.3792 78.0895 47.3739C78.2668 47.2232 78.4402 47.0592 78.6082 46.8819C78.6362 46.8512 78.6708 46.8192 78.7015 46.7859C78.8948 46.5885 79.0775 46.3712 79.2335 46.1459C79.3868 45.9112 79.5242 45.6765 79.6295 45.4219C79.7415 45.1579 79.8228 44.8899 79.8868 44.6192C79.9202 44.4939 79.9535 44.3592 79.9682 44.2312C79.9788 44.1552 79.9868 44.0832 79.9855 44.0125C80.0162 43.9312 80.0508 43.8512 80.0908 43.7725C80.9308 43.4192 81.7028 42.9219 82.4855 42.4499C82.5362 42.4312 82.5775 42.4165 82.6228 42.4032C82.6215 42.4005 82.6255 42.4032 82.6268 42.4005H82.6308C82.9388 42.3045 83.2495 42.2259 83.5642 42.1739C83.8735 42.1192 84.1815 42.0859 84.4948 42.0672C84.4948 42.0645 84.4908 42.0699 84.4882 42.0619C84.4948 42.0645 84.4948 42.0672 84.4988 42.0619L84.4948 42.0672C84.5042 42.0672 84.5095 42.0645 84.5175 42.0619C84.5215 42.0619 84.5282 42.0592 84.5295 42.0619L84.5282 42.0645C84.7162 42.0539 84.9028 42.0512 85.0908 42.0485C85.2562 42.0485 85.4202 42.0512 85.5855 42.0459C85.6562 42.0485 85.7215 42.0459 85.7908 42.0405C86.1068 42.1139 86.4148 42.1845 86.7282 42.2499C88.1922 42.5512 89.6642 42.7832 91.1602 42.9085C91.7988 42.9632 92.4455 42.9992 93.0882 43.0152C93.7095 43.1165 94.3282 43.2152 94.9495 43.2939C95.7922 43.4032 96.6442 43.4685 97.4935 43.4005C97.7588 43.3792 98.0175 43.3432 98.2775 43.3152C98.5135 43.2805 98.7482 43.2499 98.9828 43.2205C99.4508 43.1579 99.9148 43.0952 100.386 43.0205C100.55 42.9965 100.708 42.9659 100.868 42.9419C98.8828 44.1352 96.9522 45.4272 95.0802 46.7779C95.1122 46.7552 95.1455 46.7285 95.1775 46.7072C94.8215 46.9579 94.4335 47.1605 94.0268 47.3299C92.6842 47.8192 91.2375 47.9085 89.8628 48.2832C89.1135 48.4859 88.4042 48.7885 87.7455 49.2045C86.9882 49.6872 86.2908 50.2579 85.6482 50.8819C84.3602 52.1272 83.3162 53.6032 82.3468 55.1005C81.3775 56.6005 80.4802 58.1525 79.4615 59.6192C79.4202 59.6792 79.3748 59.7392 79.3402 59.7939C79.2188 59.9632 79.2628 60.2125 79.3948 60.3619C79.5308 60.5019 79.7842 60.5619 79.9575 60.4472C80.5015 60.0912 81.0855 59.8045 81.6882 59.5645C83.1975 59.0045 84.7935 58.7472 86.3428 58.3192C87.0922 58.1192 87.8282 57.8539 88.5322 57.5232C89.2122 57.2045 89.8442 56.8099 90.4415 56.3565C91.6122 55.4712 92.5388 54.2859 93.2855 53.0339C94.2602 51.3899 94.8468 49.5619 95.4682 47.7645C95.4842 47.7205 95.4962 47.6685 95.4922 47.6219C95.6215 47.5312 95.7548 47.4339 95.8855 47.3379C95.8708 47.3485 95.8562 47.3619 95.8455 47.3699C97.8815 45.9085 99.9735 44.5125 102.15 43.2552C102.148 43.2579 102.144 43.2672 102.146 43.2699C102.036 43.6112 101.956 43.9605 101.888 44.3125C101.75 45.0072 101.671 45.7125 101.575 46.4165C101.442 47.2752 101.262 48.1165 100.916 48.9192C100.792 49.1819 100.651 49.4365 100.528 49.6979C100.376 50.0072 100.236 50.3299 100.107 50.6525C99.8508 51.2859 99.6482 51.9392 99.4802 52.5979C99.1322 53.9552 98.9575 55.3645 98.9482 56.7619C98.9175 59.5365 99.5415 62.3565 100.894 64.7912C101.008 64.9992 101.312 65.1219 101.527 64.9819C101.818 64.7832 102.096 64.5752 102.354 64.3379C102.626 64.0859 102.867 63.7939 103.088 63.4965C103.52 62.9219 103.83 62.2645 104.071 61.5952C104.331 60.8925 104.483 60.1525 104.595 59.4112C104.708 58.6499 104.744 57.8845 104.743 57.1165C104.747 55.6605 104.575 54.2032 104.311 52.7725C105.61 52.7232 106.91 52.8125 108.208 52.7992C108.986 52.7859 109.762 52.7179 110.532 52.5805C111.263 52.4472 111.982 52.2232 112.671 51.9339C114.028 51.3712 115.22 50.4659 116.263 49.4365C117.619 48.0939 118.652 46.4792 119.706 44.8979C119.735 44.8565 119.755 44.8072 119.764 44.7605C119.915 44.7099 120.068 44.6459 120.219 44.5859C120.199 44.5952 120.187 44.6005 120.171 44.6085C122.51 43.7072 124.891 42.8899 127.312 42.2179C127.31 42.2259 127.306 42.2312 127.303 42.2339C127.11 42.5365 126.948 42.8539 126.791 43.1792C126.482 43.8152 126.226 44.4792 125.954 45.1352C125.608 45.9312 125.22 46.7005 124.683 47.3872C124.496 47.6112 124.299 47.8192 124.114 48.0405C123.887 48.3045 123.674 48.5832 123.468 48.8619C123.059 49.4059 122.694 49.9912 122.362 50.5885C121.684 51.8125 121.164 53.1299 120.798 54.4819C120.067 57.1552 119.958 60.0405 120.65 62.7365C120.711 62.9659 120.971 63.1632 121.216 63.0832C121.546 62.9659 121.867 62.8325 122.176 62.6685C122.506 62.4939 122.812 62.2725 123.102 62.0405C123.663 61.5939 124.131 61.0365 124.534 60.4525C124.963 59.8325 125.294 59.1605 125.588 58.4712C125.89 57.7645 126.119 57.0312 126.315 56.2912C126.691 54.8592 126.894 53.3845 127.003 51.9085C127.027 51.6085 127.039 51.2992 127.048 50.9912C127.06 50.6712 127.088 50.3539 127.115 50.0312C127.172 49.3192 127.199 48.5885 127.046 47.8872C126.95 47.4419 126.73 47.0099 126.392 46.7032C126.358 46.6712 126.323 46.6432 126.287 46.6245C126.687 45.8672 126.987 45.0592 127.32 44.2645C127.612 43.5859 127.942 42.9312 128.362 42.3245C128.383 42.3125 128.398 42.2965 128.419 42.2832C128.603 42.1552 128.788 42.0379 128.984 41.9365C129.174 41.8325 129.376 41.7525 129.575 41.6739C129.626 41.6499 129.68 41.6299 129.735 41.6112C131.391 41.2339 133.064 40.9339 134.754 40.7499C137.564 40.4472 140.4 40.4445 143.2 40.8512C143.311 40.8765 143.419 40.9085 143.528 40.9365C143.986 41.0699 144.44 41.2072 144.887 41.3712C145.384 41.5405 145.864 41.7552 146.343 41.9525C146.343 41.9525 146.344 41.9579 146.343 41.9525C147.207 42.3272 148.058 42.7045 148.939 43.0045C149.376 43.1552 149.823 43.2725 150.267 43.3925C150.487 43.4499 150.716 43.5152 150.935 43.5779C151.099 43.6272 151.258 43.6979 151.419 43.7672C151.708 43.8872 152.003 44.0232 152.315 44.0645C152.39 44.0779 152.46 44.0832 152.534 44.0859C152.591 44.0832 152.652 44.0725 152.706 44.0619C152.738 44.0539 152.771 44.0459 152.802 44.0379C152.843 44.0205 152.885 44.0072 152.924 43.9939C152.978 43.9685 153.027 43.9365 153.072 43.9059C153.107 43.8792 153.14 43.8565 153.171 43.8299C153.22 43.7832 153.263 43.7205 153.302 43.6712C153.342 43.6165 153.374 43.5485 153.394 43.4912C153.403 43.4659 153.414 43.4392 153.422 43.4139C153.439 43.3619 153.455 43.3099 153.459 43.2499C153.472 43.1819 153.475 43.1165 153.479 43.0432C153.476 42.9739 153.463 42.9032 153.458 42.8299C153.45 42.7499 153.42 42.6632 153.395 42.5805C153.374 42.5099 153.339 42.4472 153.31 42.3845C153.266 42.2912 153.199 42.2072 153.134 42.1219C153.111 42.0925 153.087 42.0645 153.058 42.0379C152.963 41.9339 152.843 41.8485 152.722 41.7645C152.572 41.6605 152.4 41.5805 152.228 41.5152C152.035 41.4339 151.835 41.3672 151.631 41.3072C151.411 41.2392 151.183 41.1819 150.963 41.1139C150.515 40.9792 150.06 40.8459 149.607 40.7205C149.114 40.5832 148.619 40.4579 148.122 40.3352C147.66 40.2205 147.204 40.1112 146.743 40.0045C146.515 39.9552 146.283 39.9032 146.055 39.8485C145.792 39.7939 145.54 39.7392 145.278 39.6925C144.438 39.5459 143.584 39.5285 142.736 39.5619C142.107 39.5859 141.484 39.6272 140.856 39.6659C140.211 39.6272 139.567 39.6032 138.927 39.5979C137.43 39.5832 135.936 39.6792 134.45 39.8485C134.171 39.8765 133.891 39.9139 133.611 39.9525C133.623 39.9312 133.632 39.9139 133.643 39.8952C133.687 39.7965 133.706 39.6979 133.727 39.5912C133.738 39.5539 133.742 39.5179 133.746 39.4792C133.758 39.3379 133.75 39.1872 133.73 39.0512C133.716 38.8645 133.668 38.6819 133.608 38.5072C133.544 38.3045 133.466 38.1139 133.382 37.9165C133.288 37.7072 133.187 37.4992 133.094 37.2832C132.904 36.8512 132.714 36.4219 132.514 35.9912C132.299 35.5285 132.076 35.0699 131.847 34.6139C131.638 34.1872 131.427 33.7672 131.206 33.3485C131.099 33.1405 130.99 32.9285 130.88 32.7205C130.756 32.4885 130.634 32.2579 130.499 32.0285C130.067 31.2912 129.527 30.6325 128.955 30.0045C128.53 29.5405 128.095 29.0925 127.656 28.6405C127.271 28.1219 126.874 27.6192 126.459 27.1245C125.502 25.9765 124.464 24.8979 123.375 23.8765C123.143 23.6525 122.906 23.4392 122.666 23.2232C122.627 23.1659 122.588 23.1139 122.556 23.0539C122.462 22.9165 122.366 22.7859 122.272 22.6525C122.166 22.4965 122.059 22.3379 121.96 22.1765C121.96 22.1765 121.955 22.1739 121.954 22.1739C121.948 22.1659 121.95 22.1552 121.942 22.1499C121.943 22.1525 121.944 22.1579 121.944 22.1579C121.943 22.1525 121.942 22.1499 121.938 22.1459C121.942 22.1485 121.942 22.1499 121.942 22.1499C121.782 21.8845 121.631 21.6112 121.495 21.3299C121.358 21.0379 121.246 20.7392 121.147 20.4339L121.146 20.4285C121.147 20.4259 121.146 20.4259 121.142 20.4259L121.143 20.4285C121.127 20.3819 121.114 20.3379 121.1 20.2885C121.039 19.3739 121.002 18.4579 120.811 17.5619C120.855 17.4885 120.898 17.4112 120.943 17.3432C121.003 17.3019 121.064 17.2552 121.119 17.2005C121.214 17.1165 121.304 17.0125 121.387 16.9139C121.574 16.7045 121.747 16.4819 121.895 16.2445C122.047 16.0125 122.16 15.7619 122.259 15.5045C122.362 15.2445 122.431 14.9739 122.482 14.7005C122.491 14.6525 122.498 14.6059 122.506 14.5645C122.551 14.3299 122.587 14.0912 122.611 13.8565C122.611 13.8512 122.611 13.8405 122.614 13.8352C122.707 12.8765 122.632 11.9032 122.502 10.9579C122.355 9.89787 122.119 8.85387 121.834 7.8272C121.375 6.16854 120.796 4.52587 120.075 2.96053C119.802 2.36453 119.502 1.76987 119.156 1.2152C118.906 0.804535 118.638 0.395203 118.267 0.0885315C118.171 0.0125351 118.03 -0.0141296 117.912 0.00720215Z" fill="#C8CFB0"/>
<path d="M84.5242 42.0645C84.5215 42.0618 84.5175 42.0618 84.5175 42.0618C84.5149 42.0645 84.5122 42.0645 84.5095 42.0645C84.5149 42.0645 84.5175 42.0618 84.5242 42.0645Z" fill="#C8CFB0"/>
<path d="M78.4967 53.2518C78.3887 53.2758 78.3073 53.3918 78.3073 53.4945C78.3073 53.5385 78.318 53.5745 78.338 53.6132C78.3727 53.6705 78.426 53.6998 78.49 53.7212C80.2993 54.3358 82.2327 54.5585 84.158 54.6292C84.1767 54.6345 84.1953 54.6345 84.2127 54.6345C84.818 54.7785 85.4233 54.9238 86.0367 55.0412C86.466 55.1185 86.8967 55.1865 87.3327 55.2252C87.7527 55.2652 88.1727 55.2825 88.5953 55.2465C88.874 55.2252 89.174 55.1705 89.4433 55.0665C89.5807 55.0612 89.718 55.0518 89.8553 55.0332C90.0913 55.0025 90.33 54.9452 90.5647 54.8878C91.0887 54.7518 91.6033 54.5718 92.1007 54.3532C92.254 54.2825 92.414 54.2052 92.5647 54.1158C92.834 53.9545 93.0807 53.7545 93.2567 53.4998C93.362 53.3425 93.442 53.1505 93.47 52.9678C93.4967 52.8198 93.4873 52.6732 93.4407 52.5332C93.546 52.5465 93.6473 52.5545 93.7513 52.5612C93.89 52.5692 94.002 52.4345 94.0073 52.3118C94.0073 52.2465 93.9833 52.1838 93.934 52.1398C93.8847 52.0932 93.8273 52.0798 93.762 52.0772C93.7193 52.0745 93.6847 52.0718 93.646 52.0692C93.382 52.0412 93.1233 51.9972 92.8713 51.9425C92.794 51.8998 92.714 51.8665 92.6353 51.8345C92.2527 51.6838 91.8407 51.6065 91.4287 51.5465C91.4073 51.5438 91.3833 51.5385 91.3607 51.5332C91.3567 51.5305 91.3487 51.5305 91.3407 51.5278C90.9553 51.4238 90.562 51.3372 90.1593 51.2825C89.698 51.2252 89.2287 51.1945 88.7593 51.1812C87.8633 51.1532 86.9567 51.2025 86.0567 51.2598C85.6407 51.2825 85.2233 51.3038 84.8047 51.3398C84.3807 51.3798 83.9487 51.4452 83.5473 51.6065C83.462 51.6398 83.3953 51.6945 83.37 51.7825C83.3393 51.8878 83.3873 52.0038 83.482 52.0518C83.618 52.1132 83.758 52.1665 83.9047 52.2025C84.0753 52.2465 84.2593 52.2705 84.434 52.2878C84.7567 52.3278 85.0833 52.3505 85.3927 52.4372C85.322 52.4785 85.25 52.5198 85.1767 52.5545C85.158 52.5612 85.1367 52.5638 85.122 52.5745C84.77 52.5305 84.4327 52.4492 84.1007 52.3332C83.534 52.1185 83.0127 51.8252 82.5233 51.4812C81.4793 50.7385 80.586 49.8092 79.7887 48.8225C79.63 48.6238 79.4753 48.4238 79.326 48.2212C79.4487 48.1758 79.518 48.0492 79.4887 47.9292C79.4527 47.7385 79.3847 47.5518 79.2687 47.3998C79.2207 47.3372 79.1673 47.2825 79.1007 47.2332C79.0233 47.1812 78.9447 47.1425 78.8513 47.1132C78.826 47.1065 78.8007 47.0985 78.774 47.0985C78.6873 47.0518 78.586 47.0305 78.478 47.0412C78.318 47.0545 78.1873 47.1398 78.062 47.2412C77.9833 47.3118 77.9193 47.3972 77.8727 47.4838C77.854 47.5198 77.838 47.5572 77.83 47.5932C77.814 47.6238 77.8007 47.6558 77.786 47.6865C77.7327 47.8252 77.7247 47.9678 77.7607 48.1012C77.802 48.2438 77.9007 48.3665 78.0193 48.4518C78.17 48.5585 78.3513 48.6478 78.5407 48.6705C78.6793 48.6892 78.8193 48.6705 78.9487 48.5958C78.95 48.5958 78.954 48.5905 78.9593 48.5878C78.9607 48.5852 78.9633 48.5825 78.966 48.5798C79.914 49.8345 80.986 51.0118 82.29 51.9238C82.6647 52.1892 83.0647 52.4158 83.486 52.6092C82.986 52.5198 82.4887 52.4212 82.0033 52.2878C81.2887 52.0932 80.5913 51.8478 79.8953 51.5985C79.394 51.4132 78.902 51.2132 78.4607 50.9158C78.3927 50.8665 78.322 50.8172 78.2593 50.7625C78.2793 50.7132 78.2967 50.6612 78.278 50.6092C78.246 50.5118 78.2073 50.4238 78.154 50.3425C78.1007 50.2625 78.0273 50.1972 77.95 50.1425C77.7967 50.0358 77.602 49.9865 77.4073 50.0118C77.2327 50.0332 77.07 50.1212 76.9607 50.2598C76.8153 50.4345 76.7673 50.6785 76.8087 50.8878C76.85 51.0798 76.9567 51.2545 77.1273 51.3638C77.2047 51.4105 77.2873 51.4452 77.3767 51.4652C77.4847 51.4918 77.5993 51.4785 77.7087 51.4545C77.762 51.4425 77.8153 51.4212 77.866 51.3905C77.9033 51.3692 77.934 51.3452 77.966 51.3198C77.998 51.2878 78.0247 51.2572 78.0527 51.2252C78.322 51.4238 78.6113 51.5958 78.9207 51.7385C79.29 51.9052 79.682 52.0385 80.0647 52.1758C80.7287 52.4132 81.402 52.6345 82.0887 52.8145C82.034 52.8198 81.9807 52.8225 81.926 52.8278C80.7793 52.9078 79.6313 53.0145 78.4967 53.2518Z" fill="#F1E6B1"/>
<path d="M88.3447 55.0018C88.9287 55.1192 89.526 55.1845 90.1273 55.2152C90.806 55.2525 91.49 55.2312 92.17 55.1632C92.8433 55.0978 93.5193 54.9752 94.1713 54.7725C94.394 54.7072 94.6167 54.6272 94.8327 54.5352C97.0513 55.0805 99.2647 55.6632 101.523 56.0858C102.994 56.3632 104.483 56.5592 105.986 56.6658C107.471 56.7645 108.966 56.7645 110.459 56.6765C111.122 56.6352 111.787 56.5618 112.45 56.5352C113.115 56.5098 113.778 56.5045 114.445 56.4605C115.081 56.4232 115.719 56.3432 116.343 56.1738C116.646 56.0925 116.938 55.9805 117.222 55.8458C117.303 55.8045 117.383 55.7618 117.462 55.7152C117.646 55.6032 117.817 55.4778 117.982 55.3405C118.067 55.2698 118.073 55.1325 118.023 55.0458C117.965 54.9498 117.853 54.9205 117.747 54.9445C117.105 55.0858 116.462 55.2072 115.818 55.3112C112.937 55.7672 110.014 55.8618 107.147 55.6032C105.082 55.4085 103.054 55.0125 101.045 54.5538C99.3193 54.1578 97.6113 53.7205 95.8873 53.3218C95.682 53.1085 95.446 52.9258 95.206 52.7512C94.8367 52.4778 94.4473 52.2365 94.022 52.0592C93.83 51.9752 93.634 51.9138 93.4287 51.8765C93.2407 51.8458 93.054 51.8485 92.87 51.8925C92.7847 51.9085 92.7007 51.9525 92.626 51.9912C92.566 52.0258 92.4993 52.0672 92.45 52.1112C92.4167 52.1418 92.37 52.1872 92.3513 52.2285C92.3313 52.2645 92.3153 52.2992 92.3087 52.3378C92.2993 52.3898 92.3033 52.4285 92.31 52.4832C92.3127 52.5125 92.3367 52.5565 92.3567 52.5832C92.3607 52.5898 92.366 52.5925 92.3673 52.5978C92.198 52.8018 92.0087 52.9832 91.8047 53.1578C91.5233 53.3712 91.2207 53.5458 90.9033 53.6925C90.5247 53.8565 90.1353 53.9885 89.742 54.1058C89.2767 54.2498 88.8113 54.3792 88.3487 54.5298C88.242 54.5672 88.1633 54.6632 88.1607 54.7725C88.1593 54.8792 88.2353 54.9778 88.3447 55.0018Z" fill="#95A975"/>
<path d="M69.6621 67.7779C69.7941 67.7392 69.9181 67.6819 70.0421 67.6219C70.2675 67.5259 70.4888 67.4112 70.7235 67.3432C70.6941 67.4005 70.6648 67.4552 70.6315 67.5072C70.6208 67.5205 70.6115 67.5272 70.5995 67.5379C70.3555 67.6472 70.1021 67.7312 69.8435 67.7832C69.6835 67.8139 69.5261 67.8272 69.3635 67.8379C69.4648 67.8245 69.5661 67.8059 69.6621 67.7779ZM63.9101 66.8539C63.8888 66.9259 63.8768 67.0099 63.8821 67.0845C63.8848 67.1165 63.8875 67.1445 63.8981 67.1739C63.8995 67.1992 63.8995 67.2259 63.9048 67.2512C63.9235 67.3605 63.9768 67.4579 64.0515 67.5299C64.1341 67.6085 64.2475 67.6472 64.3581 67.6579C64.4995 67.6685 64.6515 67.6525 64.7808 67.5925C64.8808 67.5485 64.9661 67.4859 65.0181 67.3845C65.0208 67.3845 65.0208 67.3765 65.0221 67.3765C65.0235 67.3739 65.0235 67.3685 65.0235 67.3659C66.1355 67.8085 67.2968 68.1525 68.5035 68.2339C68.8501 68.2539 69.2008 68.2472 69.5501 68.2072C69.1915 68.3485 68.8275 68.4752 68.4635 68.5832C67.9168 68.7392 67.3688 68.8539 66.8168 68.9632C66.4181 69.0405 66.0195 69.1032 65.6168 69.0872C65.5528 69.0832 65.4875 69.0779 65.4248 69.0672C65.4181 69.0259 65.4075 68.9832 65.3755 68.9579C65.3181 68.9085 65.2581 68.8632 65.1901 68.8325C65.1235 68.8045 65.0528 68.7885 64.9781 68.7859C64.8381 68.7752 64.6928 68.8219 64.5768 68.9112C64.4701 68.9939 64.3981 69.1165 64.3795 69.2512C64.3568 69.4205 64.4208 69.5979 64.5301 69.7179C64.6328 69.8299 64.7701 69.9005 64.9235 69.9032C64.9928 69.9032 65.0608 69.8925 65.1288 69.8712C65.2075 69.8459 65.2755 69.7939 65.3421 69.7312C65.3688 69.7045 65.3981 69.6685 65.4155 69.6299C65.4301 69.5979 65.4448 69.5725 65.4515 69.5432C65.4635 69.5152 65.4675 69.4779 65.4688 69.4472C65.7261 69.4725 65.9821 69.4685 66.2368 69.4392C66.5475 69.4032 66.8515 69.3379 67.1541 69.2725C67.6821 69.1659 68.2075 69.0459 68.7248 68.8899C68.6901 68.9165 68.6568 68.9392 68.6235 68.9632C68.0688 69.3539 67.5208 69.7565 67.0021 70.1992C66.7408 70.2072 66.4768 70.2539 66.2195 70.2445C66.1701 70.1579 66.0955 70.0752 65.9781 70.0125C65.7155 69.8845 65.4328 69.9832 65.3448 70.2725C65.2621 70.5325 65.3928 70.8659 65.5555 71.0699C65.7515 71.3192 66.0768 71.1085 66.0888 70.8592C66.2075 70.8619 66.3275 70.8565 66.4475 70.8459C66.0861 71.2205 65.8768 71.7125 65.6341 72.1659C65.5048 72.1952 65.4355 72.2859 65.4181 72.3899C65.1221 72.7565 65.5048 73.3539 65.9781 73.1245C66.2755 72.9832 66.3115 72.6739 66.1981 72.4419C66.4941 71.8899 66.7248 71.3192 67.2835 70.9659C67.5928 70.7699 67.9261 70.6499 68.2261 70.4445C69.1061 70.1245 69.9621 69.7179 70.7875 69.2565C70.7968 69.2512 70.8101 69.2445 70.8221 69.2392C71.2741 69.0925 71.7248 68.9499 72.1715 68.7805C72.4781 68.6659 72.7861 68.5405 73.0848 68.3979C73.3715 68.2539 73.6528 68.1005 73.9128 67.9139C74.0875 67.7859 74.2581 67.6325 74.3941 67.4605C74.4808 67.4005 74.5661 67.3405 74.6488 67.2752C74.7915 67.1605 74.9208 67.0299 75.0541 66.8979C75.3408 66.6059 75.6075 66.2859 75.8408 65.9472C75.9141 65.8432 75.9861 65.7312 76.0501 65.6112C76.1608 65.4005 76.2461 65.1712 76.2568 64.9392C76.2621 64.7939 76.2421 64.6392 76.1901 64.5099C76.1461 64.4032 76.0821 64.3085 75.9968 64.2365C76.0701 64.2045 76.1408 64.1685 76.2115 64.1299C76.3021 64.0845 76.3235 63.9499 76.2781 63.8712C76.2528 63.8272 76.2115 63.7965 76.1635 63.7859C76.1141 63.7779 76.0701 63.7885 76.0248 63.8139C75.9995 63.8272 75.9728 63.8432 75.9488 63.8539C75.7675 63.9419 75.5795 64.0125 75.3928 64.0752C75.3235 64.0805 75.2608 64.0872 75.1968 64.1005C74.8888 64.1499 74.5901 64.2619 74.2995 64.3872C74.2821 64.3925 74.2675 64.4005 74.2528 64.4059C74.2475 64.4085 74.2421 64.4085 74.2355 64.4112C73.9421 64.4939 73.6541 64.5925 73.3715 64.7152C73.0475 64.8592 72.7301 65.0259 72.4208 65.1992C71.8248 65.5352 71.2555 65.9232 70.6915 66.3139C70.4328 66.4965 70.1675 66.6739 69.9115 66.8605C69.6475 67.0539 69.3955 67.2672 69.1955 67.5299C69.1528 67.5845 69.1315 67.6499 69.1488 67.7152C69.1715 67.7912 69.2448 67.8485 69.3221 67.8432C69.0408 67.8659 68.7595 67.8739 68.4795 67.8565C67.5101 67.7805 66.5648 67.5259 65.6541 67.1992C65.4741 67.1352 65.2941 67.0645 65.1155 66.9939C65.1808 66.9165 65.1741 66.8045 65.1088 66.7365C65.0075 66.6299 64.8955 66.5325 64.7541 66.4805C64.6981 66.4579 64.6435 66.4445 64.5821 66.4392C64.5115 66.4339 64.4461 66.4419 64.3701 66.4605C64.3541 66.4659 64.3341 66.4712 64.3168 66.4779C64.2408 66.4832 64.1675 66.5099 64.1008 66.5565C64.0021 66.6299 63.9501 66.7365 63.9101 66.8539Z" fill="#F1E6B1"/>
<path d="M84.3249 62.0124C83.3716 62.3924 81.9662 62.8737 81.9662 62.8737C80.6889 63.299 79.4302 63.7644 78.1516 64.1817C77.9342 64.127 77.4556 63.703 77.2329 63.6844C76.8849 63.651 76.5342 63.6484 76.1876 63.6977C76.0316 63.7204 75.8769 63.7577 75.7289 63.8177C75.5942 63.867 75.4782 63.9417 75.3716 64.0457C75.3236 64.091 75.2849 64.151 75.2516 64.207C75.2289 64.2497 75.1996 64.3017 75.1862 64.3537C75.1756 64.387 75.1636 64.431 75.1689 64.471C75.1716 64.499 75.1702 64.5284 75.1836 64.5564C75.1969 64.5964 75.2169 64.6217 75.2396 64.651C75.2542 64.6684 75.2889 64.687 75.3089 64.6977C75.3169 64.6977 75.3196 64.703 75.3249 64.703C75.2942 64.903 75.2462 65.0964 75.1769 65.2884C75.0782 65.5364 74.9529 65.767 74.8022 65.991C74.6222 66.247 74.4182 66.4857 74.2116 66.7177C73.9622 66.9937 73.7142 67.263 73.4716 67.5404C73.4156 67.6084 73.4022 67.7004 73.4436 67.7724C73.4876 67.843 73.5742 67.879 73.6542 67.8484C74.0796 67.6977 74.4942 67.5017 74.8969 67.2857C75.3529 67.043 75.7902 66.7604 76.2062 66.4497C76.6196 66.1404 77.0076 65.7937 77.3529 65.4084C77.4716 65.275 77.5876 65.1377 77.6916 64.991C79.3502 64.471 81.0169 63.979 82.6529 63.3644C83.7182 62.963 85.0862 62.8897 85.7862 61.979C86.1369 61.523 85.2756 61.6324 84.3249 62.0124Z" fill="#95A975"/>
<path d="M81.2793 72.4394C81.3966 72.3687 81.5086 72.2834 81.614 72.1967C81.6406 72.1794 81.6686 72.1581 81.6966 72.1341C81.7886 72.1114 81.8486 72.0647 81.8766 71.9941C81.986 71.9114 82.094 71.8327 82.21 71.7701C82.1966 71.8301 82.1806 71.8901 82.158 71.9501C82.1526 71.9634 82.142 71.9727 82.1393 71.9887C81.922 72.1501 81.698 72.2887 81.4553 72.4007C81.3086 72.4674 81.1526 72.5154 81.0033 72.5674C81.098 72.5301 81.19 72.4861 81.2793 72.4394ZM80.5406 73.8274C80.2553 74.1501 79.9753 74.4754 79.7033 74.8114C79.7006 74.8034 79.6993 74.7941 79.6966 74.7834C79.622 74.6034 79.4793 74.4754 79.3193 74.4034C79.7606 74.1967 80.1993 73.9807 80.6246 73.7367C80.594 73.7674 80.5686 73.7994 80.5406 73.8274ZM75.4686 72.8634C75.4606 72.9421 75.47 73.0247 75.4926 73.0954C75.502 73.1247 75.5153 73.1527 75.5286 73.1794C75.5366 73.2047 75.546 73.2287 75.558 73.2487C75.598 73.3541 75.6713 73.4367 75.7633 73.4887C75.8593 73.5461 75.9793 73.5594 76.09 73.5434C76.2286 73.5234 76.374 73.4701 76.49 73.3847C76.574 73.3167 76.6406 73.2341 76.6686 73.1247C76.6686 73.1221 76.6713 73.1194 76.6713 73.1167C76.6726 73.1114 76.6713 73.1087 76.6713 73.1061C77.854 73.2834 79.066 73.3487 80.2553 73.1447C80.598 73.0874 80.9393 72.9994 81.2713 72.8794C80.9526 73.1007 80.63 73.3087 80.2953 73.4967C79.8033 73.7727 79.2966 74.0127 78.7846 74.2461C78.414 74.4127 78.038 74.5674 77.6433 74.6447C77.5806 74.6527 77.5193 74.6607 77.4526 74.6661C77.438 74.6274 77.4153 74.5901 77.3753 74.5754C77.31 74.5354 77.246 74.5074 77.1713 74.4941C77.098 74.4781 77.0273 74.4807 76.9526 74.4967C76.814 74.5207 76.682 74.5954 76.59 74.7127C76.5073 74.8194 76.466 74.9527 76.4766 75.0874C76.494 75.2594 76.5966 75.4154 76.7313 75.5074C76.858 75.5901 77.0073 75.6301 77.158 75.5981C77.2273 75.5821 77.2886 75.5541 77.3513 75.5207C77.4233 75.4754 77.4753 75.4061 77.5206 75.3354C77.5433 75.3007 77.562 75.2567 77.574 75.2154C77.582 75.1874 77.5873 75.1527 77.5873 75.1274C77.5926 75.0927 77.59 75.0594 77.5846 75.0247C77.8406 74.9941 78.09 74.9314 78.33 74.8407C78.3913 74.8194 78.45 74.7914 78.51 74.7647C78.4406 75.0541 78.5913 75.4114 78.8086 75.6194C78.8246 75.7101 78.874 75.7914 78.9513 75.8327C78.938 75.8514 78.9193 75.8714 78.9086 75.8874C78.8633 75.9607 78.882 76.0647 78.9353 76.1194C78.9606 76.1447 78.9846 76.1581 79.0166 76.1687C79.0686 76.1847 79.1086 76.1687 79.154 76.1501C80.4606 75.5154 81.6313 74.6061 82.7153 73.6167C82.722 73.6087 82.7313 73.5981 82.7433 73.5901C83.15 73.3461 83.5566 73.1007 83.9513 72.8354C84.2233 72.6527 84.4926 72.4581 84.7513 72.2461C84.9966 72.0434 85.238 71.8301 85.446 71.5847C85.5846 71.4234 85.718 71.2367 85.8113 71.0354C85.882 70.9607 85.9486 70.8794 86.014 70.7994C86.1273 70.6527 86.2233 70.4967 86.3193 70.3381C86.5353 69.9861 86.718 69.6141 86.8686 69.2314C86.918 69.1114 86.9633 68.9807 86.9966 68.8541C87.054 68.6247 87.0833 68.3821 87.0393 68.1501C87.0126 68.0101 86.9553 67.8634 86.874 67.7487C86.81 67.6554 86.7286 67.5794 86.626 67.5327C86.69 67.4807 86.75 67.4314 86.8113 67.3767C86.8873 67.3061 86.8766 67.1741 86.8113 67.1087C86.782 67.0727 86.7313 67.0514 86.6833 67.0541C86.6326 67.0567 86.594 67.0781 86.5553 67.1114C86.5326 67.1327 86.5113 67.1501 86.4886 67.1687C86.3353 67.2941 86.1686 67.4114 85.9993 67.5127C85.9366 67.5327 85.8753 67.5541 85.8166 67.5794C85.53 67.7021 85.2633 67.8794 85.0073 68.0674C84.9926 68.0781 84.9793 68.0847 84.9686 68.0954C84.9633 68.1007 84.958 68.1007 84.954 68.1061C84.686 68.2541 84.426 68.4154 84.1833 68.6007C83.9006 68.8167 83.63 69.0514 83.3673 69.2914C82.8646 69.7567 82.4006 70.2674 81.9433 70.7754C81.7326 71.0127 81.5153 71.2447 81.3086 71.4887C81.2886 71.5127 81.2686 71.5407 81.246 71.5674C80.7446 71.6327 80.29 71.6501 79.8166 71.4474C79.8086 71.4154 79.7966 71.3821 79.7766 71.3581C79.69 70.9527 79.2913 70.6141 78.8833 70.8381C78.118 71.2514 79.066 72.2807 79.5753 72.0274C79.9873 72.2021 80.3873 72.2487 80.8073 72.2314C80.7993 72.2567 80.7806 72.2807 80.7673 72.3034C80.7406 72.3661 80.7326 72.4341 80.766 72.4941C80.8046 72.5647 80.8873 72.6007 80.9646 72.5794C80.6953 72.6634 80.4246 72.7394 80.146 72.7834C79.4886 72.8874 78.822 72.9061 78.1593 72.8714C78.27 72.6767 78.21 72.4447 78.0473 72.2967C77.6033 71.8687 77.0393 72.3247 77.2046 72.7941C77.0286 72.7727 76.8513 72.7487 76.6713 72.7207C76.7166 72.6327 76.6846 72.5234 76.6073 72.4727C76.4833 72.3901 76.3513 72.3274 76.2046 72.3061C76.1446 72.2967 76.0873 72.2967 76.0286 72.3034C75.9566 72.3167 75.8926 72.3381 75.826 72.3741C75.8073 72.3847 75.794 72.3927 75.778 72.4034C75.7046 72.4261 75.6393 72.4674 75.5873 72.5327C75.506 72.6274 75.4793 72.7421 75.4686 72.8634Z" fill="#F1E6B1"/>
<path d="M94.2168 63.4447C93.3768 64.0354 92.1221 64.8274 92.1221 64.8274C90.9754 65.5327 89.8554 66.278 88.7088 66.9807C88.4848 66.9754 87.9208 66.674 87.6994 66.7074C87.3528 66.754 87.0128 66.83 86.6874 66.9607C86.5408 67.018 86.3994 67.09 86.2661 67.1794C86.1488 67.262 86.0514 67.362 85.9728 67.4834C85.9354 67.5407 85.9128 67.6114 85.8928 67.6714C85.8808 67.7234 85.8674 67.7754 85.8634 67.83C85.8608 67.8634 85.8621 67.9114 85.8714 67.9474C85.8808 67.9727 85.8901 68.0047 85.9074 68.0287C85.9314 68.0647 85.9554 68.0834 85.9874 68.106C86.0034 68.122 86.0381 68.13 86.0648 68.1354C86.0701 68.138 86.0754 68.138 86.0781 68.138C86.0928 68.338 86.0901 68.538 86.0728 68.7447C86.0341 69.0074 85.9621 69.262 85.8701 69.5127C85.7514 69.8047 85.6088 70.0834 85.4594 70.3567C85.2834 70.6794 85.0994 71.002 84.9341 71.3274C84.8928 71.406 84.8994 71.4967 84.9581 71.5594C85.0141 71.6167 85.1088 71.6327 85.1808 71.5847C85.5594 71.338 85.9168 71.054 86.2594 70.75C86.6461 70.4087 87.0061 70.0327 87.3381 69.6354C87.6701 69.2394 87.9688 68.8114 88.2154 68.3567C88.3008 68.1994 88.3794 68.038 88.4474 67.874C89.9434 66.9807 91.4528 66.1194 92.9021 65.1447C93.8461 64.51 95.1594 64.1194 95.6288 63.078C95.8674 62.5487 95.0541 62.854 94.2168 63.4447Z" fill="#95A975"/>
<path d="M71.4033 57.1297C71.3206 57.135 71.2446 57.2083 71.2286 57.2857C71.2246 57.3203 71.226 57.351 71.2393 57.3817C71.258 57.4297 71.2886 57.455 71.3353 57.4817C72.606 58.1763 74.026 58.6083 75.4606 58.919C75.4726 58.919 75.4873 58.9243 75.4993 58.927C75.934 59.1137 76.3673 59.3043 76.8113 59.4737C77.122 59.5857 77.4353 59.695 77.758 59.7857C78.0646 59.8697 78.3753 59.9363 78.6993 59.9683C78.91 59.987 79.142 59.987 79.3593 59.9443C79.462 59.9603 79.5673 59.971 79.6673 59.9737C79.854 59.9843 80.038 59.971 80.222 59.9577C80.634 59.927 81.042 59.867 81.4406 59.7657C81.5686 59.7337 81.698 59.7003 81.8206 59.6483C82.0473 59.5643 82.2579 59.447 82.4206 59.2777C82.518 59.1737 82.606 59.0443 82.654 58.911C82.6899 58.8017 82.7046 58.6923 82.686 58.583C82.766 58.6057 82.8406 58.6217 82.9193 58.643C83.0206 58.6683 83.122 58.5803 83.1406 58.4897C83.15 58.4417 83.1406 58.3897 83.11 58.3537C83.078 58.3123 83.0393 58.2937 82.9873 58.2803C82.9606 58.2723 82.9313 58.2683 82.9033 58.263C82.7086 58.2057 82.5219 58.1377 82.3393 58.0617C82.286 58.0203 82.2326 57.987 82.1793 57.9523C81.9126 57.7883 81.614 57.671 81.3126 57.5723C81.2953 57.567 81.282 57.5617 81.2646 57.5563C81.262 57.5563 81.258 57.5483 81.2486 57.5483C80.9766 57.419 80.6913 57.299 80.3993 57.211C80.0606 57.103 79.7113 57.0203 79.3646 56.9443C78.6953 56.807 78.0113 56.7203 77.33 56.643C77.0153 56.6083 76.6993 56.567 76.3806 56.539C76.0606 56.5097 75.726 56.5017 75.406 56.5723C75.3353 56.583 75.2766 56.6163 75.2473 56.679C75.2086 56.7523 75.2286 56.8483 75.2966 56.895C75.3873 56.9603 75.486 57.0177 75.5913 57.0617C75.714 57.119 75.8486 57.1577 75.9793 57.2003C76.2126 57.2697 76.4553 57.3323 76.6726 57.439C76.618 57.463 76.5593 57.4817 76.4966 57.4963C76.4833 57.5017 76.4673 57.5017 76.4553 57.5043C76.198 57.427 75.954 57.3177 75.722 57.1897C75.3246 56.9523 74.974 56.663 74.654 56.343C73.9726 55.6457 73.4286 54.827 72.9606 53.987C72.8673 53.8177 72.7793 53.6457 72.6913 53.4763C72.7913 53.4577 72.8606 53.3697 72.8566 53.2777C72.8526 53.1297 72.8273 52.9843 72.7606 52.851C72.7326 52.799 72.6993 52.7497 72.6553 52.7057C72.606 52.6537 72.554 52.6163 72.4846 52.583C72.4686 52.575 72.4486 52.567 72.4313 52.559C72.3713 52.515 72.2993 52.4843 72.2166 52.479C72.0953 52.4683 71.9846 52.5123 71.878 52.5723C71.8113 52.6137 71.75 52.6683 71.706 52.7283C71.6846 52.7523 71.6686 52.7777 71.6553 52.8043C71.6406 52.827 71.6246 52.8483 71.6126 52.8723C71.554 52.9657 71.5286 53.0723 71.538 53.1763C71.5473 53.2883 71.6073 53.3923 71.6846 53.4737C71.7833 53.5723 71.9073 53.663 72.046 53.7083C72.15 53.739 72.254 53.7417 72.3593 53.7003C72.362 53.703 72.3673 53.7003 72.37 53.7003C72.3726 53.7003 72.3753 53.695 72.3766 53.695C72.918 54.763 73.566 55.783 74.4206 56.6403C74.6673 56.887 74.934 57.111 75.2246 57.3123C74.862 57.1817 74.5046 57.0363 74.158 56.8777C73.6486 56.635 73.158 56.359 72.6713 56.0777C72.3206 55.8723 71.9793 55.6577 71.686 55.379C71.6433 55.3297 71.598 55.283 71.5566 55.2337C71.5806 55.2003 71.598 55.163 71.5913 55.119C71.5833 55.0443 71.5646 54.9737 71.5353 54.903C71.5046 54.8403 71.4606 54.7803 71.41 54.7283C71.306 54.6297 71.17 54.5643 71.0193 54.559C70.8873 54.5537 70.754 54.5963 70.6526 54.6843C70.522 54.799 70.454 54.971 70.4566 55.135C70.4606 55.2857 70.514 55.4297 70.6286 55.5363C70.682 55.5803 70.738 55.6137 70.802 55.6457C70.8793 55.679 70.9673 55.6843 71.0526 55.679C71.094 55.6763 71.138 55.6657 71.1793 55.651C71.2086 55.643 71.238 55.627 71.2633 55.611C71.2913 55.5963 71.3193 55.575 71.342 55.551C71.5153 55.739 71.7086 55.9057 71.9246 56.0537C72.1793 56.2283 72.4513 56.3817 72.7193 56.5337C73.1886 56.8017 73.662 57.0537 74.1526 57.2803C74.114 57.275 74.0713 57.2723 74.0273 57.2683C73.158 57.1763 72.2833 57.103 71.4033 57.1297Z" fill="#F1E6B1"/>
<path d="M90.4136 62.4028C89.4456 62.0615 88.075 61.4935 88.075 61.4935C86.835 60.9708 85.5803 60.4908 84.3403 59.9602C84.2176 59.7748 84.1363 59.1428 83.9816 58.9815C83.7416 58.7255 83.4816 58.4882 83.187 58.3042C83.0523 58.2148 82.9163 58.1402 82.763 58.0882C82.6296 58.0388 82.4896 58.0148 82.3456 58.0255C82.2803 58.0255 82.2096 58.0455 82.1483 58.0642C82.1016 58.0828 82.0456 58.1055 82.003 58.1348C81.9736 58.1522 81.935 58.1762 81.911 58.2082C81.8936 58.2308 81.8763 58.2548 81.867 58.2828C81.851 58.3215 81.8496 58.3508 81.847 58.3922C81.8456 58.4135 81.8603 58.4522 81.8683 58.4762C81.8696 58.4788 81.8736 58.4815 81.8776 58.4855C81.719 58.6135 81.555 58.7282 81.3803 58.8295C81.1403 58.9495 80.891 59.0455 80.6336 59.1108C80.3296 59.1842 80.0176 59.2308 79.7083 59.2668C79.3403 59.3095 78.9763 59.3482 78.6096 59.4002C78.5256 59.4135 78.4523 59.4735 78.439 59.5535C78.423 59.6348 78.4643 59.7202 78.543 59.7495C78.9656 59.9162 79.4056 60.0428 79.8483 60.1482C80.3536 60.2642 80.8683 60.3402 81.3856 60.3788C81.9003 60.4188 82.4216 60.4188 82.9376 60.3562C83.1123 60.3348 83.2883 60.3068 83.463 60.2642C85.0536 60.9682 86.6323 61.6948 88.267 62.3148C89.331 62.7175 90.4056 63.5642 91.5323 63.3428C92.1016 63.2282 91.3803 62.7442 90.4136 62.4028Z" fill="#95A975"/>
<path d="M144.137 36.6737C142.483 38.7231 140.507 40.5857 138.517 42.4244C136.152 44.6111 133.94 46.4391 131.752 48.0044C129.304 49.7617 126.644 51.4137 123.623 53.0484L123.472 53.1297C122.863 53.4604 122.231 53.8044 121.588 54.0977C120.992 54.3684 120.38 54.6217 119.785 54.8671L119.549 54.9657L119.405 55.0284C115.959 56.9417 112.517 58.5831 109.179 59.8951C106.984 60.7617 104.961 61.4471 103 61.9911C102.457 62.1431 101.917 62.2831 101.397 62.4111C99.7934 62.8071 98.3054 63.0911 96.8454 63.2831C94.6574 63.5697 92.7054 63.6631 90.8827 63.5617C88.8987 63.4497 87.0254 63.1271 85.3121 62.6004C85.0467 62.5177 84.8934 62.2391 84.972 61.9737C85.0214 61.8044 85.164 61.6737 85.3414 61.6297C85.428 61.6084 85.5134 61.6111 85.5987 61.6377C86.3827 61.8764 87.2 62.0777 88.0387 62.2311C88.16 62.2551 88.2854 62.2751 88.4094 62.2964C88.4134 62.2991 88.4187 62.3017 88.4214 62.2991C88.4227 62.2991 88.4347 62.3017 88.4347 62.2991C89.4267 62.4497 90.4374 62.5457 91.4854 62.5804C91.4921 62.5777 91.4987 62.5804 91.5067 62.5777C91.5347 62.5804 91.5574 62.5804 91.5881 62.5804C91.6001 62.5804 91.6094 62.5831 91.6214 62.5831C91.6467 62.5831 91.668 62.5857 91.6934 62.5857C91.708 62.5857 91.7227 62.5884 91.7374 62.5884C91.76 62.5884 91.784 62.5857 91.8067 62.5857C91.8227 62.5884 91.836 62.5884 91.8494 62.5884C91.876 62.5884 91.9027 62.5911 91.9307 62.5911C91.9401 62.5911 91.9494 62.5911 91.9614 62.5884C91.9974 62.5884 92.0294 62.5911 92.0614 62.5911H92.0707C93.252 62.6031 94.4787 62.5431 95.7654 62.4084C97.5174 62.2097 99.3467 61.8817 101.204 61.4257C103.615 60.8324 106.099 60.0311 108.793 58.9791L108.816 58.9684C112.564 57.4804 116.409 55.6084 120.237 53.3977C123.611 51.4577 126.793 49.3737 129.719 47.2017L129.88 47.0804C130.116 46.8671 130.353 46.6471 130.588 46.4284C132.783 44.4111 134.903 42.3271 136.899 40.2364C137.937 39.1471 138.945 38.0564 139.895 36.9884C140.777 35.9991 141.716 34.9417 142.604 33.8324C142.604 33.8324 146.116 34.2311 144.137 36.6737Z" fill="#95A975"/>
<path d="M81.7793 63.4994C81.7793 63.4994 78.27 65.3794 75.8887 61.3741C75.8887 61.3741 80.134 61.0981 81.7793 63.4994Z" fill="#95A975"/>
<path d="M85.6151 62.0956C85.6151 62.0956 82.1084 63.9783 79.7271 59.9703C79.7271 59.9703 83.9751 59.6996 85.6151 62.0956Z" fill="#95A975"/>
<path d="M81.4069 63.7258C81.4069 63.7258 81.8496 67.6845 77.2456 68.4111C77.2456 68.4111 78.5683 64.3645 81.4069 63.7258Z" fill="#95A975"/>
<path d="M85.5464 61.8508C85.5464 61.8508 85.9917 65.8041 81.3877 66.5308C81.3877 66.5308 82.7104 62.4868 85.5464 61.8508Z" fill="#95A975"/>
<path d="M90.2261 63.3328C90.2261 63.3328 88.7221 67.0181 84.3328 65.4528C84.3328 65.4528 87.4274 62.5328 90.2261 63.3328Z" fill="#95A975"/>
</svg>
